<svg xmlns="http://www.w3.org/2000/svg" viewBox="0 0 1920 1080">
<defs><style>
.bg{fill:hsl(0,0%,0%);}
.box{fill:hsl(200,100%,35%);}
</style></defs>
<rect class="bg" width="1920" height="1080"/>
<path class="box" d="M1005,490v90c0,2.8-2.2,5-5,5h-90c-2.8,0-5-2.2-5-5v-90c0-2.8,2.2-5,5-5h90C1002.8,485,1005,487.2,1005,490z"/>
<path d="M958.1,524.9c-4-10.2-14-17.4-25.6-17.4c-15.2,0-27.5,12.3-27.5,27.5h10h35v20h-20v10h20v20h10v-20h20v-10h-20
	v-20h45v-10h-32.9l32.9-32.9V490c0-2.8-2.2-5-5-5h-2.1L958.1,524.9z M918.1,525c3.2-4.5,8.4-7.5,14.4-7.5s11.2,3,14.4,7.5H918.1z"/>
</svg>
