<?xml version="1.0" encoding="utf-8"?>
<!-- Generator: Adobe Illustrator 24.2.0, SVG Export Plug-In . SVG Version: 6.00 Build 0)  -->
<svg version="1.1" id="Layer_1" xmlns="http://www.w3.org/2000/svg" xmlns:xlink="http://www.w3.org/1999/xlink" x="0px" y="0px"
	 viewBox="0 0 230 230" style="enable-background:new 0 0 230 230;" xml:space="preserve">
<style type="text/css">
	.st0{fill:#E6E6E6;}
	.st1{opacity:0.7;}
	.st2{opacity:0.95;}
	.st3{opacity:0.8;}
</style>
<rect x="0" y="0" class="st0" width="230" height="230"/>
<g id="Layer_2_1_" class="st1">
	<g id="Layer_1-2">
		<polygon class="st2" points="0,103.5 46,103.5 46,57.5 69,57.5 69,103.5 115,103.5 115,23 115,0 0,0 		"/>
		<polygon class="st2" points="138,230 213.7,230 138,154.3 		"/>
		<polygon class="st2" points="69,126.5 69,172.5 46,172.5 46,126.5 0,126.5 0,230 115,230 115,126.5 		"/>
		<path class="st2" d="M115,0c34.9,0,63.3,28.3,63.3,63.2c0,25.9-15.8,49.2-39.9,58.8l91.7,91.7V0H115z"/>
		<path class="st2" d="M155.3,63.3c0-13.2-6.4-25.5-17.3-33v66C148.8,88.7,155.2,76.4,155.3,63.3z"/>
	</g>
</g>
<path class="st3" d="M0,0v230h230V0H0z M178.5,172.5H36.2V30.3h142.3V172.5z"/>
<g>
	<path class="st0" d="M37.5,176.7c0.1-0.2,0.2-0.5,0.3-0.7c0.1-0.2,0.3-0.4,0.4-0.5s0.3-0.2,0.5-0.3s0.4-0.1,0.6-0.1
		c0.1,0,0.2,0,0.4,0c0.1,0,0.2,0.1,0.3,0.1l0,0.4c0,0.1-0.1,0.1-0.1,0.1c0,0-0.1,0-0.2,0c-0.1,0-0.2,0-0.4,0c-0.2,0-0.4,0-0.6,0.1
		c-0.2,0.1-0.3,0.2-0.5,0.3c-0.1,0.1-0.3,0.3-0.4,0.5s-0.2,0.4-0.3,0.7v3.9H37v-6h0.3c0.1,0,0.1,0,0.1,0c0,0,0,0.1,0.1,0.1
		L37.5,176.7z"/>
	<path class="st0" d="M68.9,181.2h-0.5c-0.1,0-0.1,0-0.1,0c0,0-0.1-0.1-0.1-0.1l-1-2.5h-4.2l-1,2.5c0,0,0,0.1-0.1,0.1s-0.1,0-0.1,0
		h-0.5l3.5-8.5h0.6L68.9,181.2z M67.1,178.2l-1.7-4.3c-0.1-0.1-0.1-0.3-0.2-0.5c0,0.1-0.1,0.2-0.1,0.3c0,0.1-0.1,0.2-0.1,0.2
		l-1.7,4.3H67.1z"/>
	<path class="st0" d="M96,175.3v6h-0.3c-0.1,0-0.2-0.1-0.2-0.2l-0.1-0.9c-0.3,0.3-0.6,0.6-1,0.8c-0.4,0.2-0.8,0.3-1.2,0.3
		c-0.3,0-0.6-0.1-0.9-0.2c-0.2-0.1-0.5-0.3-0.6-0.5c-0.2-0.2-0.3-0.4-0.4-0.7c-0.1-0.3-0.1-0.6-0.1-0.9v-3.8h0.6v3.8
		c0,0.6,0.1,1,0.4,1.3s0.6,0.5,1.2,0.5c0.4,0,0.8-0.1,1.1-0.3c0.3-0.2,0.6-0.5,0.9-0.8v-4.5H96z"/>
	<path class="st0" d="M124.2,172.5v8.7h-0.3c-0.1,0-0.2-0.1-0.2-0.2l-0.1-0.9c-0.3,0.4-0.6,0.6-0.9,0.9c-0.4,0.2-0.7,0.3-1.2,0.3
		c-0.7,0-1.3-0.3-1.7-0.8c-0.4-0.5-0.6-1.3-0.6-2.3c0-0.4,0.1-0.8,0.2-1.2s0.3-0.7,0.5-1s0.5-0.5,0.8-0.7c0.3-0.2,0.7-0.2,1.1-0.2
		c0.4,0,0.8,0.1,1.1,0.2c0.3,0.1,0.6,0.4,0.8,0.7v-3.5H124.2z M123.7,176.6c-0.2-0.3-0.5-0.6-0.8-0.7c-0.3-0.1-0.6-0.2-1-0.2
		c-0.4,0-0.7,0.1-0.9,0.2s-0.5,0.3-0.7,0.5c-0.2,0.2-0.3,0.5-0.4,0.8c-0.1,0.3-0.1,0.7-0.1,1.1c0,0.9,0.2,1.5,0.5,2s0.8,0.6,1.4,0.6
		c0.4,0,0.8-0.1,1.1-0.3c0.3-0.2,0.6-0.5,0.9-0.9V176.6z"/>
	<path class="st0" d="M148.7,173.2c0,0.1,0,0.1,0,0.2c0,0.1-0.1,0.1-0.1,0.2s-0.1,0.1-0.2,0.1c-0.1,0-0.1,0-0.2,0s-0.1,0-0.2,0
		c-0.1,0-0.1-0.1-0.2-0.1s-0.1-0.1-0.1-0.2c0-0.1,0-0.1,0-0.2c0-0.1,0-0.1,0-0.2c0-0.1,0.1-0.1,0.1-0.2s0.1-0.1,0.2-0.1
		c0.1,0,0.1,0,0.2,0s0.1,0,0.2,0c0.1,0,0.1,0.1,0.2,0.1s0.1,0.1,0.1,0.2C148.7,173.1,148.7,173.1,148.7,173.2z M148.5,175.3v6h-0.6
		v-6H148.5z"/>
	<path class="st0" d="M174.5,175.2c0.4,0,0.8,0.1,1.1,0.2c0.3,0.1,0.6,0.4,0.9,0.6c0.2,0.3,0.4,0.6,0.5,1s0.2,0.8,0.2,1.3
		c0,0.5-0.1,0.9-0.2,1.3s-0.3,0.7-0.5,1c-0.2,0.3-0.5,0.5-0.9,0.6c-0.3,0.1-0.7,0.2-1.1,0.2c-0.4,0-0.8-0.1-1.1-0.2
		c-0.3-0.1-0.6-0.4-0.9-0.6c-0.2-0.3-0.4-0.6-0.5-1s-0.2-0.8-0.2-1.3c0-0.5,0.1-0.9,0.2-1.3s0.3-0.7,0.5-1c0.2-0.3,0.5-0.5,0.9-0.6
		C173.7,175.3,174.1,175.2,174.5,175.2z M174.5,180.9c0.4,0,0.7-0.1,0.9-0.2c0.3-0.1,0.5-0.3,0.7-0.5c0.2-0.2,0.3-0.5,0.4-0.8
		c0.1-0.3,0.1-0.7,0.1-1.1c0-0.4,0-0.8-0.1-1.1c-0.1-0.3-0.2-0.6-0.4-0.8c-0.2-0.2-0.4-0.4-0.7-0.5c-0.3-0.1-0.6-0.2-0.9-0.2
		c-0.4,0-0.7,0.1-0.9,0.2s-0.5,0.3-0.7,0.5c-0.2,0.2-0.3,0.5-0.4,0.8c-0.1,0.3-0.1,0.7-0.1,1.1c0,0.4,0,0.8,0.1,1.1
		c0.1,0.3,0.2,0.6,0.4,0.8c0.2,0.2,0.4,0.4,0.7,0.5S174.2,180.9,174.5,180.9z"/>
</g>
</svg>
