<svg xmlns="http://www.w3.org/2000/svg" width="600px" height="600px" viewBox="0 0 600 600">
<style type="text/css">
	.st0{fill:#E6E6E6;}
	.st1{opacity:0.75;}
</style>
<rect y="0" class="st0" width="599" height="599"/>
<polygon class="st1" points="0,270 120,270 120,150 180,150 180,270 300,270 300,60 300,0 0,0 "/>
<polygon class="st1" points="360,600 557.4,600 360,402.6 "/>
<polygon class="st1" points="180,330 180,450 120,450 120,330 0,330 0,600 300,600 300,330 "/>
<path class="st1" d="M300,0c91,0,165,73.8,165,164.9c0,67.6-41.2,128.3-104,153.4l239,239.2V0H300z"/>
<path class="st1" d="M405.2,165.1c0-34.4-16.7-66.5-45.1-86.1v172.2C388.3,231.4,405,199.3,405.2,165.1z"/>
<path class="st1" d="M0,0v600h600V0H0z M465.7,450H94.4V79h371.2V450z"/>
<path class="st0" d="M98,461c0.3-0.5,0.5-1.3,0.8-1.8c0.3-0.5,0.8-1,1-1.3c0.3-0.3,0.8-0.5,1.3-0.8c0.5-0.3,1-0.3,1.6-0.3
	c0.3,0,0.5,0,1,0c0.3,0,0.5,0.3,0.8,0.3v1c0,0.3-0.3,0.3-0.3,0.3s-0.3,0-0.5,0c-0.3,0-0.5,0-1,0s-1,0-1.6,0.3
	c-0.5,0.3-0.8,0.5-1.3,0.8c-0.3,0.3-0.8,0.8-1,1.3c-0.3,0.5-0.5,1-0.8,1.8v10.2h-1.3V457h0.8c0.3,0,0.3,0,0.3,0s0,0.3,0.3,0.3
	L98,461z"/>
<path class="st0" d="M179.9,472.7h-1.3c-0.3,0-0.3,0-0.3,0l-0.3-0.3l-2.6-6.5h-11l-2.6,6.5c0,0,0,0.3-0.3,0.3c-0.3,0-0.3,0-0.3,0
	h-1.3l9.1-22.2h1.6L179.9,472.7z M175.2,464.9l-4.4-11.2c-0.3-0.3-0.3-0.8-0.5-1.3c0,0.3-0.3,0.5-0.3,0.8s-0.3,0.5-0.3,0.5
	l-4.4,11.2H175.2z"/>
<path class="st0" d="M250.6,457.3V473h-0.8c-0.3,0-0.5-0.3-0.5-0.5l-0.3-2.3c-0.8,0.8-1.6,1.6-2.6,2.1c-1,0.5-2.1,0.8-3.1,0.8
	c-0.8,0-1.6-0.3-2.3-0.5c-0.5-0.3-1.3-0.8-1.6-1.3c-0.5-0.5-0.8-1-1-1.8c-0.3-0.8-0.3-1.6-0.3-2.3V457h1.6v9.9c0,1.6,0.3,2.6,1,3.4
	s1.6,1.3,3.1,1.3c1,0,2.1-0.3,2.9-0.8c0.8-0.5,1.6-1.3,2.3-2.1V457h1.6V457.3z"/>
<path class="st0" d="M324.1,450v22.7h-0.8c-0.3,0-0.5-0.3-0.5-0.5l-0.3-2.3c-0.8,1-1.6,1.6-2.3,2.3c-1,0.5-1.8,0.8-3.1,0.8
	c-1.8,0-3.4-0.8-4.4-2.1c-1-1.3-1.6-3.4-1.6-6c0-1,0.3-2.1,0.5-3.1c0.3-1,0.8-1.8,1.3-2.6c0.5-0.8,1.3-1.3,2.1-1.8
	c0.8-0.5,1.8-0.5,2.9-0.5s2.1,0.3,2.9,0.5c0.8,0.3,1.6,1,2.1,1.8V450H324.1z M322.8,460.7c-0.5-0.8-1.3-1.6-2.1-1.8
	c-0.8-0.3-1.6-0.5-2.6-0.5s-1.8,0.3-2.3,0.5s-1.3,0.8-1.8,1.3c-0.5,0.5-0.8,1.3-1,2.1c-0.3,0.8-0.3,1.8-0.3,2.9
	c0,2.3,0.5,3.9,1.3,5.2c0.8,1.3,2.1,1.6,3.7,1.6c1,0,2.1-0.3,2.9-0.8s1.6-1.3,2.3-2.3V460.7z"/>
<path class="st0" d="M388,451.8c0,0.3,0,0.3,0,0.5c0,0.3-0.3,0.3-0.3,0.5c0,0.3-0.3,0.3-0.5,0.3c-0.3,0-0.3,0-0.5,0
	c-0.3,0-0.3,0-0.5,0c-0.3,0-0.3-0.3-0.5-0.3s-0.3-0.3-0.3-0.5s0-0.3,0-0.5s0-0.3,0-0.5c0-0.3,0.3-0.3,0.3-0.5s0.3-0.3,0.5-0.3
	c0.3,0,0.3,0,0.5,0c0.3,0,0.3,0,0.5,0c0.3,0,0.3,0.3,0.5,0.3c0.3,0,0.3,0.3,0.3,0.5C388,451.6,388,451.6,388,451.8z M387.5,457.3
	V473h-1.6v-15.7H387.5z"/>
<path class="st0" d="M455.3,457c1,0,2.1,0.3,2.9,0.5c0.8,0.3,1.6,1,2.3,1.6c0.5,0.8,1,1.6,1.3,2.6s0.5,2.1,0.5,3.4s-0.3,2.3-0.5,3.4
	c-0.3,1-0.8,1.8-1.3,2.6c-0.5,0.8-1.3,1.3-2.3,1.6c-0.8,0.3-1.8,0.5-2.9,0.5s-2.1-0.3-2.9-0.5c-0.8-0.3-1.6-1-2.3-1.6
	c-0.5-0.8-1-1.6-1.3-2.6s-0.5-2.1-0.5-3.4s0.3-2.3,0.5-3.4c0.3-1,0.8-1.8,1.3-2.6c0.5-0.8,1.3-1.3,2.3-1.6
	C453.2,457.3,454.2,457,455.3,457z M455.3,471.9c1,0,1.8-0.3,2.3-0.5c0.8-0.3,1.3-0.8,1.8-1.3c0.5-0.5,0.8-1.3,1-2.1
	c0.3-0.8,0.3-1.8,0.3-2.9c0-1,0-2.1-0.3-2.9s-0.5-1.6-1-2.1s-1-1-1.8-1.3c-0.8-0.3-1.6-0.5-2.3-0.5c-1,0-1.8,0.3-2.3,0.5
	c-0.5,0.3-1.3,0.8-1.8,1.3s-0.8,1.3-1,2.1c-0.3,0.8-0.3,1.8-0.3,2.9s0,2.1,0.3,2.9s0.5,1.6,1,2.1c0.5,0.5,1,1,1.8,1.3
	C453.7,471.7,454.5,471.9,455.3,471.9z"/>
</svg>
