<svg xmlns="http://www.w3.org/2000/svg" width="600px" height="600px" viewBox="0 0 600 600">
<style type="text/css">
	.st0,.st2{fill:#E6E6E6;}
	.st1{opacity:0.75;}
</style>
<rect y="0" class="st0" width="599" height="599"/>
<g class="st1">
	<polygon points="0,270 120,270 120,150 180,150 180,270 300,270 300,60 300,0 0,0 "/>
	<polygon points="360,600 557.4,600 360,402.6 "/>
	<polygon points="180,330 180,450 120,450 120,330 0,330 0,600 300,600 300,330 "/>
	<path d="M300,0c91,0,165,73.8,165,164.9c0,67.6-41.2,128.3-104,153.4l239,239.2V0H300z"/>
	<path d="M405.2,165.1c0-34.4-16.7-66.5-45.1-86.1v172.2C388.3,231.4,405,199.3,405.2,165.1z"/>
</g>
<path class="st1" d="M0,0v600h600V0H0z M465.7,450H94.4V79h371.2V450z"/>
<g class="st0">
	<path class="st0" d="M97,459.8c0.2-0.6,0.5-1.1,0.7-1.5c0.3-0.4,0.6-0.8,1-1.1c0.4-0.3,0.8-0.5,1.2-0.7c0.4-0.2,0.9-0.2,1.5-0.2
		c0.3,0,0.6,0,0.9,0.1c0.3,0.1,0.5,0.1,0.7,0.3l-0.1,0.9c0,0.1-0.1,0.2-0.3,0.2c-0.1,0-0.3,0-0.5-0.1c-0.2-0.1-0.5-0.1-0.9-0.1
		c-0.5,0-1,0.1-1.4,0.2c-0.4,0.2-0.8,0.4-1.1,0.7c-0.3,0.3-0.6,0.7-0.9,1.2c-0.2,0.5-0.5,1-0.7,1.7v9h-1.3v-13.9h0.7
		c0.2,0,0.3,0,0.3,0.1c0.1,0.1,0.1,0.2,0.1,0.3L97,459.8z"/>
	<path class="st0" d="M178.6,470.4h-1.1c-0.1,0-0.2,0-0.3-0.1s-0.1-0.2-0.2-0.3l-2.3-5.8h-9.7l-2.3,5.8c0,0.1-0.1,0.2-0.2,0.3
		c-0.1,0.1-0.2,0.1-0.3,0.1H161l8.1-19.8h1.4L178.6,470.4z M174.2,463.2l-4-10c-0.1-0.3-0.3-0.7-0.4-1.2c-0.1,0.2-0.1,0.4-0.2,0.6
		c-0.1,0.2-0.1,0.4-0.2,0.6l-4,10H174.2z"/>
	<path class="st0" d="M250.4,456.5v13.9h-0.7c-0.2,0-0.4-0.1-0.4-0.4l-0.1-2.1c-0.6,0.8-1.4,1.4-2.2,1.9s-1.8,0.7-2.8,0.7
		c-0.8,0-1.5-0.1-2-0.4c-0.6-0.2-1.1-0.6-1.4-1.1c-0.4-0.5-0.7-1-0.9-1.7c-0.2-0.6-0.3-1.4-0.3-2.2v-8.9h1.3v8.9
		c0,1.3,0.3,2.3,0.9,3.1c0.6,0.7,1.5,1.1,2.7,1.1c0.9,0,1.8-0.2,2.5-0.7c0.8-0.5,1.5-1.1,2.1-1.9v-10.5H250.4z"/>
	<path class="st0" d="M319.8,450v20.4h-0.7c-0.2,0-0.4-0.1-0.4-0.4l-0.1-2.2c-0.6,0.8-1.3,1.5-2.2,2c-0.8,0.5-1.7,0.7-2.8,0.7
		c-1.7,0-3.1-0.6-4-1.8c-1-1.2-1.4-3-1.4-5.3c0-1,0.1-2,0.4-2.8c0.3-0.9,0.7-1.6,1.2-2.3c0.5-0.6,1.1-1.2,1.9-1.5
		c0.8-0.4,1.6-0.6,2.6-0.6c0.9,0,1.8,0.2,2.5,0.5c0.7,0.3,1.3,0.9,1.8,1.5V450H319.8z M318.5,459.5c-0.5-0.8-1.1-1.4-1.8-1.7
		c-0.6-0.3-1.4-0.5-2.2-0.5c-0.8,0-1.5,0.1-2.2,0.4c-0.6,0.3-1.1,0.7-1.5,1.3c-0.4,0.5-0.7,1.2-0.9,2c-0.2,0.8-0.3,1.6-0.3,2.5
		c0,2.1,0.4,3.6,1.1,4.6c0.8,1,1.9,1.5,3.3,1.5c0.9,0,1.8-0.2,2.5-0.7c0.8-0.5,1.4-1.1,2-2V459.5z"/>
	<path class="st0" d="M388.1,451.7c0,0.2,0,0.3-0.1,0.5s-0.2,0.3-0.3,0.4c-0.1,0.1-0.2,0.2-0.4,0.3c-0.1,0.1-0.3,0.1-0.5,0.1
		s-0.3,0-0.5-0.1c-0.1-0.1-0.3-0.2-0.4-0.3c-0.1-0.1-0.2-0.2-0.3-0.4c-0.1-0.1-0.1-0.3-0.1-0.5s0-0.3,0.1-0.5
		c0.1-0.2,0.2-0.3,0.3-0.4s0.2-0.2,0.4-0.3c0.1-0.1,0.3-0.1,0.5-0.1s0.3,0,0.5,0.1c0.1,0.1,0.3,0.2,0.4,0.3c0.1,0.1,0.2,0.2,0.3,0.4
		C388,451.4,388.1,451.5,388.1,451.7z M387.5,456.5v13.9h-1.3v-13.9H387.5z"/>
	<path class="st0" d="M459.1,456.3c1,0,1.9,0.2,2.7,0.5c0.8,0.3,1.5,0.8,2,1.4c0.5,0.6,1,1.4,1.2,2.3c0.3,0.9,0.4,1.9,0.4,3
		s-0.1,2.1-0.4,3c-0.3,0.9-0.7,1.6-1.2,2.3c-0.5,0.6-1.2,1.1-2,1.4c-0.8,0.3-1.7,0.5-2.7,0.5c-1,0-1.9-0.2-2.7-0.5
		c-0.8-0.3-1.5-0.8-2-1.4c-0.5-0.6-1-1.4-1.2-2.3c-0.3-0.9-0.4-1.9-0.4-3s0.1-2.1,0.4-3c0.3-0.9,0.7-1.6,1.2-2.3
		c0.5-0.6,1.2-1.1,2-1.4C457.2,456.4,458.1,456.3,459.1,456.3z M459.1,469.6c0.8,0,1.6-0.1,2.2-0.4c0.6-0.3,1.1-0.7,1.6-1.2
		s0.7-1.2,0.9-1.9c0.2-0.8,0.3-1.6,0.3-2.5c0-0.9-0.1-1.8-0.3-2.5c-0.2-0.8-0.5-1.4-0.9-1.9s-0.9-0.9-1.6-1.2
		c-0.6-0.3-1.3-0.4-2.2-0.4c-0.8,0-1.6,0.1-2.2,0.4c-0.6,0.3-1.1,0.7-1.6,1.2c-0.4,0.5-0.7,1.2-0.9,1.9c-0.2,0.8-0.3,1.6-0.3,2.5
		c0,0.9,0.1,1.8,0.3,2.5c0.2,0.8,0.5,1.4,0.9,1.9c0.4,0.5,0.9,0.9,1.6,1.2C457.6,469.4,458.3,469.6,459.1,469.6z"/>
</g>
</svg>
