<svg xmlns="http://www.w3.org/2000/svg" width="600px" height="600px" viewBox="0 0 230 230">
<defs><style>
.cls-1{fill:none;}
.box{fill:hsl(200,100%,35%);
	opacity:0.4;isolation:isolate;}
.text{fill:hsl(200,3%,40%);}
</style></defs>
<path class="cls-1" d="M48.24,131.1c0,.16-.08.3-.12.44s-.1.27-.15.39l-2.8,6.94h6.15l-2.8-7A8.56,8.56,0,0,1,48.24,131.1Z"/>
<path class="cls-1" d="M139.51,135.09a3.45,3.45,0,0,0-1.54-.34,3.38,3.38,0,0,0-1.5.32,2.92,2.92,0,0,0-1.07.87,3.87,3.87,0,0,0-.65,1.37,6.33,6.33,0,0,0-.22,1.74,5.11,5.11,0,0,0,.79,3.17,2.73,2.73,0,0,0,2.29,1,3.23,3.23,0,0,0,1.74-.5,4.71,4.71,0,0,0,1.39-1.39v-5.08A3.34,3.34,0,0,0,139.51,135.09Z"/>
<polygon class="box" points="15.86 44.14 53.12 44.14 53.12 118.64 127.62 118.64 127.62 0 0 0 0 118.64 15.86 118.64 15.86 44.14"/>
<polygon class="box" points="164.87 230 194.02 230 164.87 200.85 164.87 230"/>
<rect class="box" x="53.11" y="155.89" width="74.5" height="74.11"/>
<rect class="box" y="155.89" width="15.86" height="74.11"/>
<path class="box" d="M230,0H215a102,102,0,0,1,15,50.67Z"/>
<path class="box" d="M230,57.15A102.44,102.44,0,0,1,185.49,138h0a112.11,112.11,0,0,1-20.12,10.7L230,213.31"/>
<path class="box" d="M192.81,53.45A65.1,65.1,0,0,0,164.87,0V106.9A65.12,65.12,0,0,0,192.81,53.45Z"/>
<path class="text" d="M1.66,137.6a7.84,7.84,0,0,1,.47-1.15,3.34,3.34,0,0,1,.6-.84,2.2,2.2,0,0,1,.78-.51,2.79,2.79,0,0,1,1-.17,2.07,2.07,0,0,1,.62.07,1.82,1.82,0,0,0,.36.07c.09,0,.15-.06.18-.16l.08-.64a1.42,1.42,0,0,0-.51-.19,3,3,0,0,0-.6-.05,2.8,2.8,0,0,0-1,.17,2.54,2.54,0,0,0-.84.49,3.17,3.17,0,0,0-.66.78,6.41,6.41,0,0,0-.51,1.05l-.07-2a.38.38,0,0,0-.08-.23.33.33,0,0,0-.24-.07H.73v9.67h.93Z"/>
<path class="text" d="M47.76,130.11l-5.63,13.75h.76a.31.31,0,0,0,.23-.08.4.4,0,0,0,.14-.18l1.61-4h6.75l1.62,4a.53.53,0,0,0,.13.19.35.35,0,0,0,.23.07h.76l-5.62-13.75Zm-2.59,8.76,2.8-6.94q.08-.18.15-.39c0-.14.08-.28.12-.44a8.56,8.56,0,0,0,.28.82l2.8,7Z"/>
<path class="text" d="M95.27,141.46a5,5,0,0,1-1.46,1.34,3.43,3.43,0,0,1-1.76.48,2.29,2.29,0,0,1-1.9-.78,3.31,3.31,0,0,1-.62-2.13v-6.18H88.6v6.18a5.49,5.49,0,0,0,.2,1.52,3.11,3.11,0,0,0,.61,1.14,2.48,2.48,0,0,0,1,.73,3.57,3.57,0,0,0,1.4.26,3.82,3.82,0,0,0,2-.51,5.34,5.34,0,0,0,1.55-1.34l.09,1.44a.26.26,0,0,0,.28.25h.52v-9.67h-.94Z"/>
<path class="text" d="M140.74,135.45a3.51,3.51,0,0,0-1.26-1.06,3.74,3.74,0,0,0-1.7-.36,4.11,4.11,0,0,0-1.8.38,3.92,3.92,0,0,0-1.32,1.07,5,5,0,0,0-.81,1.59,7,7,0,0,0-.27,2,5.82,5.82,0,0,0,1,3.7,3.34,3.34,0,0,0,2.78,1.24,3.59,3.59,0,0,0,1.92-.52,5.19,5.19,0,0,0,1.5-1.39l.09,1.53a.27.27,0,0,0,.3.25h.5V129.72h-.92Zm0,5.9a4.71,4.71,0,0,1-1.39,1.39,3.23,3.23,0,0,1-1.74.5,2.73,2.73,0,0,1-2.29-1,5.11,5.11,0,0,1-.79-3.17,6.33,6.33,0,0,1,.22-1.74,3.87,3.87,0,0,1,.65-1.37,2.92,2.92,0,0,1,1.07-.87,3.38,3.38,0,0,1,1.5-.32,3.45,3.45,0,0,1,1.54.34,3.34,3.34,0,0,1,1.23,1.18Z"/>
<path class="text" d="M184.42,131.45a.92.92,0,0,0,.28.19.88.88,0,0,0,.33.06,1,1,0,0,0,.33-.06,1,1,0,0,0,.46-.46.71.71,0,0,0,.07-.32.8.8,0,0,0-.07-.34.88.88,0,0,0-.19-.27,1,1,0,0,0-.27-.19A1,1,0,0,0,185,130a.88.88,0,0,0-.33.07.92.92,0,0,0-.28.19.85.85,0,0,0-.18.27.8.8,0,0,0-.07.34.71.71,0,0,0,.07.32A1,1,0,0,0,184.42,131.45Z"/>
<polygon class="text" points="185.49 143.86 185.49 137.98 185.49 134.19 184.57 134.19 184.57 138.59 184.57 143.86 185.49 143.86"/>
<path class="text" d="M228.63,135.4a3.81,3.81,0,0,0-1.39-1,5.12,5.12,0,0,0-3.72,0,3.81,3.81,0,0,0-1.39,1,4.19,4.19,0,0,0-.86,1.57,7.15,7.15,0,0,0,0,4.1,4.35,4.35,0,0,0,.86,1.57,3.9,3.9,0,0,0,1.39,1,5.12,5.12,0,0,0,3.72,0,3.9,3.9,0,0,0,1.39-1,4.67,4.67,0,0,0,.86-1.57,7.39,7.39,0,0,0,0-4.1A4.48,4.48,0,0,0,228.63,135.4Zm0,5.38a3.84,3.84,0,0,1-.65,1.33,2.9,2.9,0,0,1-1.08.85,4,4,0,0,1-3,0,2.9,2.9,0,0,1-1.08-.85,3.84,3.84,0,0,1-.65-1.33,7.11,7.11,0,0,1,0-3.51,3.89,3.89,0,0,1,.65-1.34,2.83,2.83,0,0,1,1.08-.86,3.83,3.83,0,0,1,3,0,2.83,2.83,0,0,1,1.08.86,3.89,3.89,0,0,1,.65,1.34,7.44,7.44,0,0,1,0,3.51Z"/>
</svg>