<svg xmlns="http://www.w3.org/2000/svg" width="600px" height="600px" viewBox="0 0 600 600">
<style type="text/css">
	@font-face {
		font-family: Lato;
		src: url( '/assets/fonts/lato-light-webfont.woff' ) format( 'woff' ),
			 url( '/assets/fonts/lato-light-webfont.ttf' ) format( 'truetype' );
		font-weight: 300;
	}
	.st0,.st2{fill:#E6E6E6;}
	.st1{opacity:0.75;}
	.st2{font-family:Lato;font-size:28px;}
</style>
<rect y="0" class="st0" width="599" height="599"/>
<g class="st1">
	<polygon points="0,270 120,270 120,150 180,150 180,270 300,270 300,60 300,0 0,0 "/>
	<polygon points="360,600 557.4,600 360,402.6 "/>
	<polygon points="180,330 180,450 120,450 120,330 0,330 0,600 300,600 300,330 "/>
	<path d="M300,0c91,0,165,73.8,165,164.9c0,67.6-41.2,128.3-104,153.4l239,239.2V0H300z"/>
	<path d="M405.2,165.1c0-34.4-16.7-66.5-45.1-86.1v172.2C388.3,231.4,405,199.3,405.2,165.1z"/>
</g>
<path class="st1" d="M0,0v600h600V0H0z M465.7,450H94.4V79h371.2V450z"/>
<text class="st2" transform="matrix(1 0 0 1 94 469.8898)">
	<tspan x="0" y="0">r</tspan>
	<tspan x="67.2" y="0">A</tspan>
	<tspan x="143.9" y="0">u</tspan>
	<tspan x="213.3" y="0">d</tspan>
	<tspan x="290.3" y="0">i</tspan>
	<tspan x="357.9" y="0">o</tspan></text>
</svg>
