<svg xmlns="http://www.w3.org/2000/svg" width="600px" height="600px" viewBox="0 0 230 230">
<defs><style>.cls-2{fill:#231f20;opacity:0.9;isolation:isolate;}.cls-3{fill:#fff;}</style></defs>

<polygon class="cls-2" points="0 103.5 46 103.5 46 57.5 69 57.5 69 103.5 115 103.5 115 23 115 0 0 0 0 103.5"/>
<polygon class="cls-2" points="138 230 213.74 230 138 154.26 138 230"/>
<polygon class="cls-2" points="69 126.5 69 172.5 46 172.5 46 126.5 0 126.5 0 230 115 230 115 126.5 69 126.5"/>
<path class="cls-2" d="M115,0a63.25,63.25,0,0,1,23.31,122.05L230,213.74V0Z"/>
<path class="cls-2" d="M155.25,63.25a40.18,40.18,0,0,0-17.25-33v66A40.18,40.18,0,0,0,155.25,63.25Z"/>
<path class="cls-3" d="M.36,112.4a3.43,3.43,0,0,1,1-.71,2.72,2.72,0,0,1,1.17-.24,2.17,2.17,0,0,1,.84.16,1.53,1.53,0,0,1,.59.44,1.77,1.77,0,0,1,.36.68,3.28,3.28,0,0,1,.12.91v3.89H4.2a.21.21,0,0,1-.22-.17l-.08-.77c-.17.16-.33.3-.49.43a3.16,3.16,0,0,1-.51.33,3.49,3.49,0,0,1-.57.2,2.81,2.81,0,0,1-.67.07,2,2,0,0,1-.6-.09,1.56,1.56,0,0,1-.51-.27,1.44,1.44,0,0,1-.36-.48,1.65,1.65,0,0,1-.13-.7,1.25,1.25,0,0,1,.21-.7,1.78,1.78,0,0,1,.68-.57,4.68,4.68,0,0,1,1.18-.38,10.45,10.45,0,0,1,1.74-.17v-.62a2,2,0,0,0-.36-1.28,1.27,1.27,0,0,0-1-.44,2,2,0,0,0-.74.12,2.42,2.42,0,0,0-.51.26,2.94,2.94,0,0,0-.34.26.39.39,0,0,1-.23.12.15.15,0,0,1-.1,0,.27.27,0,0,1-.08-.07Zm3.51,2.24a11.14,11.14,0,0,0-1.47.14,3.84,3.84,0,0,0-1,.28,1.46,1.46,0,0,0-.59.43.87.87,0,0,0-.19.57,1.21,1.21,0,0,0,.1.52.92.92,0,0,0,.26.35,1,1,0,0,0,.38.21,1.41,1.41,0,0,0,.45.07,2.55,2.55,0,0,0,.64-.08,2.52,2.52,0,0,0,.54-.21,2.44,2.44,0,0,0,.47-.32c.14-.12.28-.26.42-.4Z"/>
<path class="cls-3" d="M38.88,113a4.06,4.06,0,0,1,.32-.66,1.93,1.93,0,0,1,.41-.48,1.63,1.63,0,0,1,.51-.3,1.83,1.83,0,0,1,.64-.11,1.47,1.47,0,0,1,.36,0,1,1,0,0,1,.32.11l0,.4a.13.13,0,0,1-.11.1.91.91,0,0,1-.22,0,2,2,0,0,0-.39,0,1.62,1.62,0,0,0-.61.11,1.37,1.37,0,0,0-.48.31,2.05,2.05,0,0,0-.38.52,6.13,6.13,0,0,0-.29.71v3.87h-.57v-6h.3a.21.21,0,0,1,.15,0,.23.23,0,0,1,.05.14Z"/>
<path class="cls-3" d="M76.26,112.35l-.06.05a.09.09,0,0,1-.07,0,.31.31,0,0,1-.17-.09,1.85,1.85,0,0,0-.27-.17,2.35,2.35,0,0,0-.44-.18,2.47,2.47,0,0,0-1.55.1,1.82,1.82,0,0,0-.67.53,2.49,2.49,0,0,0-.42.83,4,4,0,0,0-.14,1.09,3.73,3.73,0,0,0,.15,1.11,2.35,2.35,0,0,0,.42.82,1.8,1.8,0,0,0,.65.51,2,2,0,0,0,.85.17,2.12,2.12,0,0,0,.72-.1,2.18,2.18,0,0,0,.48-.22,1.67,1.67,0,0,0,.3-.22.28.28,0,0,1,.18-.1.14.14,0,0,1,.12.06l.15.19a1.59,1.59,0,0,1-.35.33,1.8,1.8,0,0,1-.47.27,2.7,2.7,0,0,1-.57.18,3.42,3.42,0,0,1-.65.06,2.68,2.68,0,0,1-1-.2,2.38,2.38,0,0,1-.81-.6,2.83,2.83,0,0,1-.53-1,4.27,4.27,0,0,1-.19-1.29,4.1,4.1,0,0,1,.18-1.25,2.75,2.75,0,0,1,.53-1,2.42,2.42,0,0,1,.85-.63,2.63,2.63,0,0,1,1.15-.23,2.56,2.56,0,0,1,1,.19,2.59,2.59,0,0,1,.79.5Z"/>
<path class="cls-3" d="M110.48,112.56a3.39,3.39,0,0,1,.94-.8,2.39,2.39,0,0,1,1.19-.3,2.14,2.14,0,0,1,.87.16,1.49,1.49,0,0,1,.62.45,2,2,0,0,1,.37.7,3.05,3.05,0,0,1,.13.94v3.82H114v-3.82a2.09,2.09,0,0,0-.38-1.32,1.41,1.41,0,0,0-1.17-.47,2.1,2.1,0,0,0-1.09.29,3.07,3.07,0,0,0-.9.83v4.49h-.58V108.8h.58Z"/>

</svg>