<svg xmlns="http://www.w3.org/2000/svg" viewBox="0 0 230 230"><defs><style>.cls-1{opacity:0.9;}.cls-2{fill:#231f20;isolation:isolate;}.cls-3{fill:#e5e5e5;}</style></defs><g id="Layer_2" data-name="Layer 2"><g id="Layer_1-2" data-name="Layer 1"><g id="Layer_2-2" data-name="Layer 2" class="cls-1"><g id="Layer_1-2-2" data-name="Layer 1-2"><polygon class="cls-2" points="0 103.5 46 103.5 46 57.5 69 57.5 69 103.5 115 103.5 115 23 115 0 0 0 0 103.5"/><polygon class="cls-2" points="138 230 213.74 230 138 154.26 138 230"/><polygon class="cls-2" points="69 126.5 69 172.5 46 172.5 46 126.5 0 126.5 0 230 115 230 115 126.5 69 126.5"/><path class="cls-2" d="M115,0a63.25,63.25,0,0,1,23.31,122.05L230,213.74V0Z"/><path class="cls-2" d="M155.25,63.25a40.18,40.18,0,0,0-17.25-33v66A40.18,40.18,0,0,0,155.25,63.25Z"/></g></g><path class="cls-3" d="M.55,114.54a3.56,3.56,0,0,1,.31-.65,2.16,2.16,0,0,1,.41-.48,1.71,1.71,0,0,1,.52-.31,1.81,1.81,0,0,1,.63-.1,2.19,2.19,0,0,1,.36,0,.82.82,0,0,1,.32.12l-.05.4c0,.06,0,.09-.11.09a.79.79,0,0,1-.22,0,1.41,1.41,0,0,0-.39,0,1.66,1.66,0,0,0-.61.1,1.39,1.39,0,0,0-.48.32,1.87,1.87,0,0,0-.37.52,3.62,3.62,0,0,0-.29.71v3.86H0v-6H.31a.26.26,0,0,1,.14,0,.21.21,0,0,1,0,.15Z"/><path class="cls-3" d="M26.77,119.07H26.3a.21.21,0,0,1-.14,0,.25.25,0,0,1-.08-.12l-1-2.47H20.91l-1,2.47a.21.21,0,0,1-.08.11.19.19,0,0,1-.14,0h-.47l3.47-8.49h.61ZM24.89,116l-1.72-4.29a4.86,4.86,0,0,1-.18-.51,2.29,2.29,0,0,1-.08.28.92.92,0,0,1-.09.23L21.1,116Z"/><path class="cls-3" d="M48.61,113.1v6h-.32a.17.17,0,0,1-.18-.15l0-.89a3.44,3.44,0,0,1-1,.83,2.45,2.45,0,0,1-1.21.31A2.14,2.14,0,0,1,45,119a1.52,1.52,0,0,1-.61-.45,1.93,1.93,0,0,1-.38-.71,3.33,3.33,0,0,1-.12-.93V113.1h.57v3.82a2,2,0,0,0,.39,1.31,1.39,1.39,0,0,0,1.17.48,2.11,2.11,0,0,0,1.09-.3,2.9,2.9,0,0,0,.9-.82V113.1Z"/><path class="cls-3" d="M71.67,110.34v8.73h-.31a.16.16,0,0,1-.18-.15l-.06-1a3.15,3.15,0,0,1-.93.86,2.24,2.24,0,0,1-1.18.32,2.07,2.07,0,0,1-1.72-.76,3.6,3.6,0,0,1-.61-2.29,4,4,0,0,1,.17-1.22,2.75,2.75,0,0,1,.5-1,2.36,2.36,0,0,1,.81-.66,2.49,2.49,0,0,1,1.12-.24,2.32,2.32,0,0,1,1,.22,2.28,2.28,0,0,1,.77.66v-3.54Zm-.57,4a2,2,0,0,0-.76-.73,2.08,2.08,0,0,0-1-.21,2,2,0,0,0-.92.19,1.86,1.86,0,0,0-.67.54,2.72,2.72,0,0,0-.4.84,4.1,4.1,0,0,0-.13,1.08,3.23,3.23,0,0,0,.48,2,1.7,1.7,0,0,0,1.42.63,1.91,1.91,0,0,0,1.07-.31,2.82,2.82,0,0,0,.86-.86Z"/><path class="cls-3" d="M91,111a.42.42,0,0,1,0,.2.71.71,0,0,1-.11.17.45.45,0,0,1-.17.11.5.5,0,0,1-.21,0,.62.62,0,0,1-.37-.16.5.5,0,0,1-.11-.17.42.42,0,0,1,0-.2.45.45,0,0,1,0-.2.42.42,0,0,1,.11-.17.66.66,0,0,1,.17-.12.45.45,0,0,1,.2,0,.49.49,0,0,1,.21,0,.66.66,0,0,1,.17.12.56.56,0,0,1,.11.17A.46.46,0,0,1,91,111Zm-.25,2.06v6h-.57v-6Z"/><path class="cls-3" d="M111.59,113a3,3,0,0,1,1.15.21,2.42,2.42,0,0,1,.85.63,2.71,2.71,0,0,1,.53,1,4.23,4.23,0,0,1,.19,1.27,4.18,4.18,0,0,1-.19,1.27,2.75,2.75,0,0,1-.53,1,2.37,2.37,0,0,1-.85.61,3.12,3.12,0,0,1-2.3,0,2.32,2.32,0,0,1-.86-.61,2.75,2.75,0,0,1-.53-1,3.89,3.89,0,0,1-.19-1.27,3.94,3.94,0,0,1,.19-1.27,2.71,2.71,0,0,1,.53-1,2.37,2.37,0,0,1,.86-.63A3,3,0,0,1,111.59,113Zm0,5.69a2.27,2.27,0,0,0,.93-.18,1.84,1.84,0,0,0,.67-.53,2.51,2.51,0,0,0,.4-.82,4.59,4.59,0,0,0,0-2.17,2.56,2.56,0,0,0-.4-.83,1.84,1.84,0,0,0-.67-.53,2.52,2.52,0,0,0-1.87,0,1.89,1.89,0,0,0-.66.53,2.37,2.37,0,0,0-.4.83,4.27,4.27,0,0,0,0,2.17,2.33,2.33,0,0,0,.4.82,1.89,1.89,0,0,0,.66.53A2.28,2.28,0,0,0,111.59,118.7Z"/></g></g></svg>