<svg xmlns="http://www.w3.org/2000/svg" viewBox="0 0 1920 1080">
<defs><style>
.bg{fill:hsl(0,0%,0%);}
.box{fill:hsl(200,100%,35%);}
</style></defs>
<rect class="bg" width="1920" height="1080"/>
<path class="box" d="M905,580v-90c0-2.8,2.2-5,5-5h90c2.8,0,5,2.2,5,5v90c0,2.8-2.2,5-5,5h-90C907.2,585,905,582.8,905,580z"/>
<path d="M951.9,545.1c4,10.2,14,17.4,25.6,17.4c15.2,0,27.5-12.3,27.5-27.5h-10h-35v-20h20v-10h-20v-20h-10v20h-20v10
	h20v20h-45v10h32.9L905,577.9v2.1c0,2.8,2.2,5,5,5h2.1L951.9,545.1z M991.9,545c-3.2,4.5-8.4,7.5-14.4,7.5s-11.2-3-14.4-7.5H991.9z"
	/>
</svg>
