<svg xmlns="http://www.w3.org/2000/svg" width="595px" height="128px" viewBox="0 0 595 128">
<style type="text/css">
	.st0{fill:#808080;stroke:#000000;stroke-width:0.9087;stroke-miterlimit:10;}
	.st1{fill:#FF0000;stroke:#000000;stroke-width:0.9087;stroke-miterlimit:10;}
	.st2{stroke:#000000;stroke-width:0.9087;stroke-miterlimit:10;}
	.st3{fill:#00FF00;stroke:#000000;stroke-width:0.9087;stroke-miterlimit:10;}
	.st4{fill:#B5B3B3;stroke:#000000;stroke-width:0.9087;stroke-miterlimit:10;}
	.st5{fill:#00FF00;stroke:#231F20;stroke-width:0.9087;stroke-miterlimit:10;}
	.st6{fill:#FF5F00;stroke:#000000;stroke-width:0.9087;stroke-miterlimit:10;}
	.st7{font-family:Arial;fill:#E6E6E6;}
	.st8{font-size:20px;}
	.st9{letter-spacing:23;}
	.st10{letter-spacing:13;}
	.st11{letter-spacing:2;}
	.st12{letter-spacing:18;}
	.st13{letter-spacing:7;}
</style>
<path class="st0" d="M8.5,89.8V35.7c0-4.3,3.5-7.7,7.7-7.7h562.8c4.3,0,7.7,3.5,7.7,7.7v54.1c0,4.3-3.5,7.7-7.7,7.7H16.3
	C12.1,97.5,8.5,94,8.5,89.8z"/>
<circle class="st1" cx="537.8" cy="76.9" r="10.3"/>
<circle class="st2" cx="509.6" cy="76.9" r="10.3"/>
<circle class="st3" cx="481.2" cy="76.9" r="10.3"/>
<circle class="st3" cx="452.9" cy="76.9" r="10.3"/>
<circle class="st3" cx="424.5" cy="76.9" r="10.3"/>
<circle class="st2" cx="396.2" cy="76.9" r="10.3"/>
<circle class="st3" cx="367.9" cy="76.9" r="10.3"/>
<circle class="st3" cx="339.6" cy="76.9" r="10.3"/>
<circle class="st2" cx="311.2" cy="76.9" r="10.3"/>
<circle class="st3" cx="282.9" cy="76.9" r="10.3"/>
<circle class="st3" cx="254.5" cy="76.9" r="10.3"/>
<circle class="st3" cx="226.3" cy="76.9" r="10.3"/>
<circle class="st4" cx="197.9" cy="76.9" r="10.3"/>
<circle class="st2" cx="169.6" cy="76.9" r="10.3"/>
<circle class="st3" cx="141.2" cy="76.9" r="10.3"/>
<circle class="st2" cx="112.9" cy="76.9" r="10.3"/>
<circle class="st3" cx="84.5" cy="76.9" r="10.3"/>
<circle class="st3" cx="56.2" cy="76.9" r="10.3"/>
<circle class="st3" cx="27.9" cy="76.9" r="10.3"/>
<circle class="st3" cx="537.8" cy="48.5" r="10.3"/>
<circle class="st3" cx="509.6" cy="48.5" r="10.3"/>
<circle class="st5" cx="481.2" cy="48.5" r="10.3"/>
<circle class="st2" cx="452.9" cy="48.5" r="10.3"/>
<circle class="st3" cx="424.5" cy="48.5" r="10.3"/>
<circle class="st3" cx="396.2" cy="48.5" r="10.3"/>
<circle class="st3" cx="367.9" cy="48.5" r="10.3"/>
<circle class="st6" cx="339.6" cy="48.5" r="10.3"/>
<circle class="st3" cx="311.2" cy="48.5" r="10.3"/>
<circle class="st3" cx="282.9" cy="48.5" r="10.3"/>
<circle class="st3" cx="254.5" cy="48.5" r="10.3"/>
<circle class="st2" cx="226.3" cy="48.5" r="10.3"/>
<circle class="st4" cx="197.9" cy="48.5" r="10.3"/>
<circle class="st5" cx="169.6" cy="48.5" r="10.3"/>
<circle class="st5" cx="141.2" cy="48.5" r="10.3"/>
<circle class="st3" cx="112.9" cy="48.5" r="10.3"/>
<circle class="st3" cx="84.5" cy="48.5" r="10.3"/>
<circle class="st3" cx="56.2" cy="48.5" r="10.3"/>
<circle class="st2" cx="27.9" cy="48.5" r="10.3"/>
<path class="st6" d="M555.9,56.2V40.8c0-1.5,1.2-2.5,2.5-2.5h15.4c1.5,0,2.5,1.2,2.5,2.5v15.4c0,1.5-1.2,2.5-2.5,2.5h-15.4
	C557.1,58.9,555.9,57.7,555.9,56.2z"/>
<circle class="st1" cx="566.2" cy="76.9" r="10.3"/>
<text transform="matrix(1 0 0 1 0.4388 17.3645)"><tspan x="0" y="0" class="st7 st8 st9">	</tspan><tspan x="28.3" y="0" class="st7 st8 st10">	</tspan><tspan x="46.3" y="0" class="st7 st8">37</tspan><tspan x="67.1" y="0" class="st7 st8 st11">	</tspan><tspan x="74.6" y="0" class="st7 st8">35</tspan><tspan x="95.5" y="0" class="st7 st8 st11">	</tspan><tspan x="102.9" y="0" class="st7 st8">33</tspan><tspan x="123.8" y="0" class="st7 st8 st11">	</tspan><tspan x="131.3" y="0" class="st7 st8">31</tspan><tspan x="152.2" y="0" class="st7 st8 st11">	</tspan><tspan x="159.6" y="0" class="st7 st8">29</tspan><tspan x="180.5" y="0" class="st7 st8 st10">	</tspan><tspan x="198.4" y="0" class="st7 st8 st9">	</tspan><tspan x="226.8" y="0" class="st7 st8 st10">	</tspan><tspan x="244.7" y="0" class="st7 st8">23</tspan><tspan x="265.6" y="0" class="st7 st8 st11">	</tspan><tspan x="273" y="0" class="st7 st8">21</tspan><tspan x="293.9" y="0" class="st7 st8 st11">	</tspan><tspan x="301.4" y="0" class="st7 st8">19</tspan><tspan x="322.3" y="0" class="st7 st8 st10">		</tspan><tspan x="358.1" y="0" class="st7 st8">15</tspan><tspan x="378.9" y="0" class="st7 st8 st11">	</tspan><tspan x="386.4" y="0" class="st7 st8">13</tspan><tspan x="407.3" y="0" class="st7 st8 st11">	</tspan><tspan x="414.8" y="0" class="st7 st8">11</tspan><tspan x="435.6" y="0" class="st7 st8 st10">	</tspan><tspan x="453.5" y="0" class="st7 st8 st12">	</tspan><tspan x="476.7" y="0" class="st7 st8">7</tspan><tspan x="487.1" y="0" class="st7 st8 st10">	</tspan><tspan x="505" y="0" class="st7 st8">5</tspan><tspan x="515.5" y="0" class="st7 st8 st10">	</tspan><tspan x="533.4" y="0" class="st7 st8">3</tspan></text>
<text transform="matrix(1 0 0 1 -0.1712 120.8188)"><tspan x="0" y="0" class="st7 st8 st10">	</tspan><tspan x="17.9" y="0" class="st7 st8">40</tspan><tspan x="38.8" y="0" class="st7 st8 st11">	</tspan><tspan x="46.3" y="0" class="st7 st8">38</tspan><tspan x="67.1" y="0" class="st7 st8 st11">	</tspan><tspan x="74.6" y="0" class="st7 st8">36</tspan><tspan x="95.5" y="0" class="st7 st8 st10">		</tspan><tspan x="131.3" y="0" class="st7 st8">32</tspan><tspan x="152.2" y="0" class="st7 st8 st10">	</tspan><tspan x="170.1" y="0" class="st7 st8 st9">	</tspan><tspan x="198.4" y="0" class="st7 st8 st10">	</tspan><tspan x="216.3" y="0" class="st7 st8">26</tspan><tspan x="237.2" y="0" class="st7 st8 st11">	</tspan><tspan x="244.7" y="0" class="st7 st8">24</tspan><tspan x="265.6" y="0" class="st7 st8 st11">	</tspan><tspan x="273" y="0" class="st7 st8">22</tspan><tspan x="293.9" y="0" class="st7 st8 st10">		</tspan><tspan x="329.7" y="0" class="st7 st8">18</tspan><tspan x="350.6" y="0" class="st7 st8 st11">	</tspan><tspan x="358.1" y="0" class="st7 st8">16</tspan><tspan x="378.9" y="0" class="st7 st8 st10">		</tspan><tspan x="414.8" y="0" class="st7 st8">12</tspan><tspan x="435.6" y="0" class="st7 st8 st11">	</tspan><tspan x="443.1" y="0" class="st7 st8">10</tspan><tspan x="464" y="0" class="st7 st8 st13">	</tspan><tspan x="476.7" y="0" class="st7 st8">8</tspan></text>
</svg>
