<?xml version="1.0" encoding="utf-8"?>
<!-- Generator: Adobe Illustrator 24.2.0, SVG Export Plug-In . SVG Version: 6.00 Build 0)  -->
<svg version="1.1" id="Background_xA0_Image_1_" xmlns="http://www.w3.org/2000/svg" xmlns:xlink="http://www.w3.org/1999/xlink"
	 x="0px" y="0px" viewBox="0 0 142.3 637.4" style="enable-background:new 0 0 142.3 637.4;" xml:space="preserve">
<style type="text/css">
	.st0{fill:#808080;stroke:#000000;stroke-miterlimit:10;}
	.st1{fill:#FF0000;stroke:#000000;stroke-miterlimit:10;}
	.st2{stroke:#000000;stroke-miterlimit:10;}
	.st3{fill:#00FF00;stroke:#000000;stroke-miterlimit:10;}
	.st4{fill:#B5B3B3;stroke:#000000;stroke-miterlimit:10;}
	.st5{fill:#00FF00;stroke:#231F20;stroke-miterlimit:10;}
	.st6{fill:#FF5F00;stroke:#000000;stroke-miterlimit:10;}
	.st7{fill:#231F20;}
</style>
<path class="st0" d="M45.1,0.5h59.5c4.7,0,8.5,3.8,8.5,8.5v619.4c0,4.7-3.8,8.5-8.5,8.5H45.1c-4.7,0-8.5-3.8-8.5-8.5V9
	C36.6,4.4,40.4,0.5,45.1,0.5z"/>
<circle class="st1" cx="59.3" cy="583" r="11.3"/>
<circle class="st2" cx="59.3" cy="551.9" r="11.3"/>
<circle class="st3" cx="59.3" cy="520.7" r="11.3"/>
<circle class="st3" cx="59.3" cy="489.5" r="11.3"/>
<circle class="st3" cx="59.3" cy="458.3" r="11.3"/>
<circle class="st2" cx="59.3" cy="427.1" r="11.3"/>
<circle class="st3" cx="59.3" cy="396" r="11.3"/>
<circle class="st3" cx="59.3" cy="364.8" r="11.3"/>
<circle class="st2" cx="59.3" cy="333.6" r="11.3"/>
<circle class="st3" cx="59.3" cy="302.4" r="11.3"/>
<circle class="st3" cx="59.3" cy="271.2" r="11.3"/>
<circle class="st3" cx="59.3" cy="240.1" r="11.3"/>
<circle class="st4" cx="59.3" cy="208.9" r="11.3"/>
<circle class="st2" cx="59.3" cy="177.7" r="11.3"/>
<circle class="st3" cx="59.3" cy="146.5" r="11.3"/>
<circle class="st2" cx="59.3" cy="115.3" r="11.3"/>
<circle class="st3" cx="59.3" cy="84.1" r="11.3"/>
<circle class="st3" cx="59.3" cy="53" r="11.3"/>
<circle class="st3" cx="59.3" cy="21.8" r="11.3"/>
<circle class="st3" cx="90.5" cy="583" r="11.3"/>
<circle class="st3" cx="90.5" cy="551.9" r="11.3"/>
<circle class="st5" cx="90.5" cy="520.7" r="11.3"/>
<circle class="st2" cx="90.5" cy="489.5" r="11.3"/>
<circle class="st3" cx="90.5" cy="458.3" r="11.3"/>
<circle class="st3" cx="90.5" cy="427.1" r="11.3"/>
<circle class="st3" cx="90.5" cy="396" r="11.3"/>
<circle class="st6" cx="90.5" cy="364.8" r="11.3"/>
<circle class="st3" cx="90.5" cy="333.6" r="11.3"/>
<circle class="st3" cx="90.5" cy="302.4" r="11.3"/>
<circle class="st3" cx="90.5" cy="271.2" r="11.3"/>
<circle class="st2" cx="90.5" cy="240.1" r="11.3"/>
<circle class="st4" cx="90.5" cy="208.9" r="11.3"/>
<circle class="st5" cx="90.5" cy="177.7" r="11.3"/>
<circle class="st5" cx="90.5" cy="146.5" r="11.3"/>
<circle class="st3" cx="90.5" cy="115.3" r="11.3"/>
<circle class="st3" cx="90.5" cy="84.1" r="11.3"/>
<circle class="st3" cx="90.5" cy="53" r="11.3"/>
<circle class="st2" cx="90.5" cy="21.8" r="11.3"/>
<path class="st6" d="M82,602.9h17c1.6,0,2.8,1.3,2.8,2.8v17c0,1.6-1.3,2.8-2.8,2.8H82c-1.6,0-2.8-1.3-2.8-2.8v-17
	C79.1,604.2,80.4,602.9,82,602.9z"/>
<path class="st7" d="M5,26.3H0v-1.5L4.9,15h1.5v9.6h0.9v1.7H6.4v2.4H5V26.3z M5,17.9l-3.3,6.6H5V17.9z"/>
<path class="st7" d="M9.1,19.9c0-1.5,0.3-2.7,0.8-3.6c0.7-1.1,1.6-1.7,2.7-1.7c0.8,0,1.5,0.3,2.1,0.9s1,1.4,1.3,2.4
	c0.1,0.6,0.2,1.2,0.2,2v3.4c0,0.8,0,1.5-0.1,2c-0.1,0.7-0.3,1.3-0.6,1.9c-0.7,1.2-1.6,1.7-2.8,1.7c-1.1,0-2-0.6-2.7-1.7
	c-0.3-0.5-0.6-1.2-0.7-1.9c-0.1-0.5-0.1-1.2-0.1-2.1L9.1,19.9L9.1,19.9z M14.8,20.2c0-1.2-0.1-2-0.4-2.6c-0.4-0.8-1-1.2-1.7-1.2
	c-0.8,0-1.4,0.5-1.8,1.4c-0.2,0.5-0.3,1.3-0.3,2.4v2.9c0,1.4,0.1,2.3,0.4,2.8c0.4,0.8,1,1.2,1.8,1.2s1.4-0.4,1.8-1.3
	c0.2-0.5,0.3-1.4,0.3-2.6L14.8,20.2L14.8,20.2z"/>
<path class="st7" d="M1.1,49.9c0-1.3,0.3-2.3,0.8-3s1.2-1.1,2-1.1s1.4,0.4,1.9,1.1s0.8,1.6,0.8,2.6s-0.3,1.9-0.8,2.4
	c0.3,0.2,0.7,0.6,1,1.3s0.5,1.5,0.5,2.3c0,1.3-0.3,2.4-1,3.2C5.6,59.6,4.8,60,3.9,60s-1.7-0.5-2.4-1.4c-0.6-0.9-0.9-2.1-0.9-3.5H2
	c0,0.8,0.1,1.5,0.3,1.9c0.4,0.8,0.9,1.3,1.6,1.3c0.6,0,1.1-0.3,1.4-0.8c0.4-0.5,0.6-1.2,0.6-1.9s-0.2-1.3-0.5-1.8S4.7,53,4.2,52.9
	c-0.2,0-0.3,0-0.5,0H3.1v-1.8h0.6c0.4,0,0.8-0.1,1.1-0.4c0.3-0.3,0.5-0.8,0.5-1.4c0-0.5-0.1-0.9-0.4-1.2s-0.6-0.5-1-0.5
	S3.2,47.8,3,48.2s-0.3,0.9-0.3,1.7L1.1,49.9L1.1,49.9z"/>
<path class="st7" d="M9.8,49.5c0-1.1,0.3-2,0.8-2.7c0.6-0.7,1.2-1,2-1s1.5,0.4,2,1.1c0.5,0.7,0.8,1.6,0.8,2.7
	c-0.1,1.3-0.4,2.1-0.9,2.5c0.3,0.2,0.6,0.6,0.9,1.3s0.5,1.4,0.5,2.3c0,1.2-0.3,2.3-1,3.1c-0.7,0.9-1.5,1.3-2.4,1.3s-1.7-0.4-2.4-1.3
	c-0.7-0.9-1-1.9-1-3.1c0-0.8,0.2-1.5,0.5-2.2c0.3-0.8,0.6-1.2,0.9-1.3C10.1,51.6,9.8,50.7,9.8,49.5z M10.6,55.7
	c0,0.7,0.2,1.3,0.6,1.8s0.8,0.7,1.4,0.7s1-0.2,1.4-0.7s0.6-1.1,0.6-1.8s-0.2-1.3-0.6-1.8s-0.9-0.7-1.4-0.7c-0.6,0-1,0.2-1.4,0.7
	S10.6,55,10.6,55.7z M11.2,49.4c0,0.6,0.1,1,0.4,1.4s0.6,0.5,1,0.5s0.7-0.2,1-0.6s0.4-0.8,0.4-1.3s-0.1-1-0.4-1.3
	c-0.3-0.4-0.6-0.5-1-0.5s-0.7,0.2-1,0.5C11.3,48.5,11.2,48.9,11.2,49.4z"/>
<path class="st7" d="M1.3,81c0-1.3,0.3-2.3,0.8-3s1.2-1.1,2-1.1S5.5,77.3,6,78s0.8,1.6,0.8,2.6S6.5,82.5,6,83c0.3,0.2,0.7,0.6,1,1.3
	s0.5,1.5,0.5,2.3c0,1.3-0.3,2.4-1,3.2c-0.7,0.9-1.5,1.3-2.4,1.3s-1.7-0.5-2.4-1.4c-0.6-0.9-0.9-2.1-0.9-3.5h1.4
	c0,0.8,0.1,1.5,0.3,1.9c0.4,0.8,0.9,1.3,1.6,1.3c0.6,0,1.1-0.3,1.4-0.8c0.4-0.5,0.6-1.2,0.6-1.9s-0.2-1.3-0.5-1.8S4.9,84.1,4.4,84
	c-0.2,0-0.3,0-0.5,0H3.3v-1.8h0.6c0.4,0,0.8-0.1,1.1-0.4c0.3-0.3,0.5-0.8,0.5-1.4c0-0.5-0.1-0.9-0.4-1.2s-0.6-0.5-1-0.5
	s-0.7,0.2-0.9,0.6S2.9,80.2,2.9,81L1.3,81L1.3,81z"/>
<path class="st7" d="M14.4,77.2l-2.2,4.3h0.6c0.9,0,1.8,0.5,2.4,1.5c0.6,0.9,1,2.1,1,3.3c0,1.3-0.3,2.4-1,3.4s-1.6,1.5-2.6,1.5
	s-1.8-0.5-2.5-1.4c-0.7-1-1-2.1-1-3.4c0-1,0.2-2,0.7-3c0.1-0.3,0.4-0.8,0.6-1.3l2.4-4.8h1.6V77.2z M10.5,86.2c0,0.9,0.2,1.6,0.6,2.2
	c0.4,0.6,0.9,0.9,1.6,0.9c0.6,0,1.1-0.3,1.6-0.9s0.6-1.3,0.6-2.2c0-0.8-0.2-1.6-0.6-2.2c-0.4-0.6-1-0.9-1.6-0.9s-1.1,0.3-1.5,0.9
	C10.7,84.7,10.5,85.4,10.5,86.2z"/>
<path class="st7" d="M1.2,112.2c0-1.3,0.3-2.3,0.8-3s1.2-1.1,2-1.1s1.4,0.4,1.9,1.1s0.8,1.6,0.8,2.6s-0.3,1.9-0.8,2.4
	c0.3,0.2,0.7,0.6,1,1.3s0.5,1.5,0.5,2.3c0,1.3-0.3,2.4-1,3.2c-0.7,0.9-1.5,1.3-2.4,1.3s-1.7-0.5-2.4-1.4c-0.6-0.9-0.9-2.1-0.9-3.5
	h1.4c0,0.8,0.1,1.5,0.3,1.9c0.4,0.8,0.9,1.3,1.6,1.3c0.6,0,1.1-0.3,1.4-0.8c0.4-0.5,0.6-1.2,0.6-1.9s-0.2-1.3-0.5-1.8
	s-0.7-0.8-1.2-0.9c-0.2,0-0.3,0-0.5,0H3.2v-1.8h0.6c0.4,0,0.8-0.1,1.1-0.4c0.3-0.3,0.5-0.8,0.5-1.4c0-0.5-0.1-0.9-0.4-1.2
	s-0.6-0.5-1-0.5s-0.7,0.2-0.9,0.6s-0.3,0.9-0.3,1.7L1.2,112.2L1.2,112.2z"/>
<path class="st7" d="M13.9,119.7h-5v-1.5l4.9-9.8h1.5v9.6h0.9v1.7h-0.9v2.4h-1.4V119.7z M13.9,111.3l-3.3,6.6h3.3V111.3z"/>
<path class="st7" d="M1.4,143.3c0-1.3,0.3-2.3,0.8-3s1.2-1.1,2-1.1s1.4,0.4,1.9,1.1s0.8,1.6,0.8,2.6s-0.3,1.9-0.8,2.4
	c0.3,0.2,0.7,0.6,1,1.3s0.5,1.5,0.5,2.3c0,1.3-0.3,2.4-1,3.2c-0.7,0.9-1.5,1.3-2.4,1.3s-1.7-0.5-2.4-1.4c-0.6-0.9-0.9-2.1-0.9-3.5
	h1.4c0,0.8,0.1,1.5,0.3,1.9c0.4,0.8,0.9,1.3,1.6,1.3c0.6,0,1.1-0.3,1.4-0.8c0.4-0.5,0.6-1.2,0.6-1.9s-0.2-1.3-0.5-1.8
	s-0.7-0.8-1.2-0.9c-0.2,0-0.3,0-0.5,0H3.4v-1.8H4c0.4,0,0.8-0.1,1.1-0.4c0.3-0.3,0.5-0.8,0.5-1.4c0-0.5-0.1-0.9-0.4-1.2
	s-0.6-0.5-1-0.5s-0.7,0.2-0.9,0.6S3,142.5,3,143.3L1.4,143.3L1.4,143.3z"/>
<path class="st7" d="M9.2,151.7l3.9-4.9c0.5-0.6,0.8-1.1,1-1.5c0.3-0.6,0.5-1.2,0.5-1.7c0-0.7-0.2-1.3-0.6-1.8s-0.8-0.7-1.4-0.7
	c-0.4,0-0.8,0.2-1.2,0.6c-0.4,0.4-0.6,0.8-0.6,1.4c0,0.3-0.1,0.7-0.1,1.3H9.3c0-1.5,0.3-2.8,0.9-3.7s1.5-1.4,2.5-1.4
	c0.9,0,1.6,0.4,2.3,1.3c0.7,0.9,1,1.9,1,3c0,1.2-0.3,2.3-1,3.3c-0.1,0.2-0.4,0.6-0.9,1.2l-2.7,3.4H16v1.8H9.3L9.2,151.7L9.2,151.7z"
	/>
<path class="st7" d="M1,174.5c0-1.3,0.3-2.3,0.8-3s1.2-1.1,2-1.1s1.4,0.4,1.9,1.1s0.8,1.6,0.8,2.6s-0.3,1.9-0.8,2.4
	c0.3,0.2,0.7,0.6,1,1.3c0.3,0.7,0.5,1.5,0.5,2.3c0,1.3-0.3,2.4-1,3.2c-0.7,0.9-1.5,1.3-2.4,1.3s-1.7-0.5-2.4-1.4
	c-0.6-0.9-0.9-2.1-0.9-3.5h1.4c0,0.8,0.1,1.5,0.3,1.9c0.4,0.8,0.9,1.3,1.6,1.3c0.6,0,1.1-0.3,1.4-0.8c0.4-0.5,0.6-1.2,0.6-1.9
	c0-0.7-0.2-1.3-0.5-1.8s-0.7-0.8-1.2-0.9c-0.2,0-0.3,0-0.5,0H2.8v-1.8h0.6c0.4,0,0.8-0.1,1.1-0.4c0.3-0.3,0.5-0.8,0.5-1.4
	c0-0.5-0.1-0.9-0.4-1.2c-0.3-0.3-0.6-0.5-1-0.5s-0.7,0.2-0.9,0.6s-0.3,0.9-0.3,1.7L1,174.5L1,174.5z"/>
<path class="st7" d="M9.1,175.7c0-1.5,0.3-2.7,0.8-3.6c0.7-1.1,1.6-1.7,2.7-1.7c0.8,0,1.5,0.3,2.1,0.9s1,1.4,1.3,2.4
	c0.1,0.6,0.2,1.2,0.2,2v3.4c0,0.8,0,1.5-0.1,2c-0.1,0.7-0.3,1.3-0.6,1.9c-0.7,1.2-1.6,1.7-2.8,1.7c-1.1,0-2-0.6-2.7-1.7
	c-0.3-0.5-0.6-1.2-0.7-1.9c-0.1-0.5-0.1-1.2-0.1-2.1L9.1,175.7L9.1,175.7z M14.8,176c0-1.2-0.1-2-0.4-2.6c-0.4-0.8-1-1.2-1.7-1.2
	c-0.8,0-1.4,0.5-1.8,1.4c-0.2,0.5-0.3,1.3-0.3,2.4v2.9c0,1.4,0.1,2.3,0.4,2.8c0.4,0.8,1,1.2,1.8,1.2s1.4-0.4,1.8-1.3
	c0.2-0.5,0.3-1.4,0.3-2.6L14.8,176L14.8,176z"/>
<path class="st7" d="M0.7,214l3.9-4.9c0.5-0.6,0.8-1.1,1-1.5c0.3-0.6,0.5-1.2,0.5-1.7c0-0.7-0.2-1.3-0.6-1.8s-0.8-0.7-1.4-0.7
	c-0.4,0-0.8,0.2-1.2,0.6c-0.4,0.4-0.6,0.8-0.6,1.4c0,0.3-0.1,0.7-0.1,1.3H0.8c0-1.5,0.3-2.8,0.9-3.7c0.6-0.9,1.5-1.4,2.5-1.4
	c0.9,0,1.6,0.4,2.3,1.3c0.7,0.9,1,1.9,1,3c0,1.2-0.3,2.3-1,3.3c-0.1,0.2-0.4,0.6-0.9,1.2l-2.7,3.4h4.6v1.8H0.8L0.7,214L0.7,214z"/>
<path class="st7" d="M9.8,205.2c0-1.1,0.3-2,0.8-2.7c0.6-0.7,1.2-1,2-1s1.5,0.4,2,1.1s0.8,1.6,0.8,2.7c-0.1,1.3-0.4,2.1-0.9,2.5
	c0.3,0.2,0.6,0.6,0.9,1.3s0.5,1.4,0.5,2.3c0,1.2-0.3,2.3-1,3.1c-0.7,0.9-1.5,1.3-2.4,1.3s-1.7-0.4-2.4-1.3c-0.7-0.9-1-1.9-1-3.1
	c0-0.8,0.2-1.5,0.5-2.2c0.3-0.8,0.6-1.2,0.9-1.3C10.1,207.3,9.8,206.5,9.8,205.2z M10.6,211.5c0,0.7,0.2,1.3,0.6,1.8
	s0.8,0.7,1.4,0.7s1-0.2,1.4-0.7s0.6-1.1,0.6-1.8c0-0.7-0.2-1.3-0.6-1.8s-0.9-0.7-1.4-0.7c-0.6,0-1,0.2-1.4,0.7
	S10.6,210.7,10.6,211.5z M11.2,205.2c0,0.6,0.1,1,0.4,1.4s0.6,0.5,1,0.5s0.7-0.2,1-0.6s0.4-0.8,0.4-1.3s-0.1-1-0.4-1.3
	c-0.3-0.4-0.6-0.5-1-0.5s-0.7,0.2-1,0.5S11.2,204.7,11.2,205.2z"/>
<path class="st7" d="M0.9,245.1l3.9-4.9c0.5-0.6,0.8-1.1,1-1.5c0.3-0.6,0.5-1.2,0.5-1.7c0-0.7-0.2-1.3-0.6-1.8s-0.8-0.7-1.4-0.7
	c-0.4,0-0.8,0.2-1.2,0.6c-0.4,0.4-0.6,0.8-0.6,1.4c0,0.3-0.1,0.7-0.1,1.3H1c0-1.5,0.3-2.8,0.9-3.7c0.6-0.9,1.5-1.4,2.5-1.4
	c0.9,0,1.6,0.4,2.3,1.3c0.7,0.9,1,1.9,1,3c0,1.2-0.3,2.3-1,3.3c-0.1,0.2-0.4,0.6-0.9,1.2l-2.7,3.4h4.6v1.8H1L0.9,245.1L0.9,245.1z"
	/>
<path class="st7" d="M14.4,232.9l-2.2,4.3h0.6c0.9,0,1.8,0.5,2.4,1.5c0.6,0.9,1,2.1,1,3.3c0,1.3-0.3,2.4-1,3.4s-1.6,1.5-2.6,1.5
	s-1.8-0.5-2.5-1.4c-0.7-1-1-2.1-1-3.4c0-1,0.2-2,0.7-3c0.1-0.3,0.4-0.8,0.6-1.3l2.4-4.8h1.6V232.9z M10.5,242c0,0.9,0.2,1.6,0.6,2.2
	s0.9,0.9,1.6,0.9c0.6,0,1.1-0.3,1.6-0.9s0.6-1.3,0.6-2.2c0-0.8-0.2-1.6-0.6-2.2s-1-0.9-1.6-0.9s-1.1,0.3-1.5,0.9
	C10.7,240.4,10.5,241.1,10.5,242z"/>
<path class="st7" d="M0.7,276.3l3.9-4.9c0.5-0.6,0.8-1.1,1-1.5c0.3-0.6,0.5-1.2,0.5-1.7c0-0.7-0.2-1.3-0.6-1.8s-0.8-0.7-1.4-0.7
	c-0.4,0-0.8,0.2-1.2,0.6c-0.4,0.4-0.6,0.8-0.6,1.4c0,0.3-0.1,0.7-0.1,1.3H0.8c0-1.5,0.3-2.8,0.9-3.7c0.6-0.9,1.5-1.4,2.5-1.4
	c0.9,0,1.6,0.4,2.3,1.3c0.7,0.9,1,1.9,1,3c0,1.2-0.3,2.3-1,3.3c-0.1,0.2-0.4,0.6-0.9,1.2l-2.7,3.4h4.6v1.8H0.8L0.7,276.3L0.7,276.3z
	"/>
<path class="st7" d="M13.9,275.5h-5V274l4.9-9.8h1.5v9.6h0.9v1.7h-0.9v2.4h-1.4V275.5z M13.9,267.1l-3.3,6.6h3.3V267.1z"/>
<path class="st7" d="M0.6,307.4l3.9-4.9c0.5-0.6,0.8-1.1,1-1.5c0.3-0.6,0.5-1.2,0.5-1.7c0-0.7-0.2-1.3-0.6-1.8s-0.8-0.7-1.4-0.7
	c-0.4,0-0.8,0.2-1.2,0.6c-0.4,0.4-0.6,0.8-0.6,1.4c0,0.3-0.1,0.7-0.1,1.3H0.7c0-1.5,0.3-2.8,0.9-3.7c0.6-0.9,1.5-1.4,2.5-1.4
	c0.9,0,1.6,0.4,2.3,1.3c0.7,0.9,1,1.9,1,3c0,1.2-0.3,2.3-1,3.3c-0.1,0.2-0.4,0.6-0.9,1.2l-2.7,3.4h4.6v1.8H0.7L0.6,307.4L0.6,307.4z
	"/>
<path class="st7" d="M9.2,307.4l3.9-4.9c0.5-0.6,0.8-1.1,1-1.5c0.3-0.6,0.5-1.2,0.5-1.7c0-0.7-0.2-1.3-0.6-1.8s-0.8-0.7-1.4-0.7
	c-0.4,0-0.8,0.2-1.2,0.6c-0.4,0.4-0.6,0.8-0.6,1.4c0,0.3-0.1,0.7-0.1,1.3H9.3c0-1.5,0.3-2.8,0.9-3.7c0.6-0.9,1.5-1.4,2.5-1.4
	c0.9,0,1.6,0.4,2.3,1.3c0.7,0.9,1,1.9,1,3c0,1.2-0.3,2.3-1,3.3c-0.1,0.2-0.4,0.6-0.9,1.2l-2.7,3.4H16v1.8H9.3L9.2,307.4L9.2,307.4z"
	/>
<path class="st7" d="M0.4,338.6l3.9-4.9c0.5-0.6,0.8-1.1,1-1.5c0.3-0.6,0.5-1.2,0.5-1.7c0-0.7-0.2-1.3-0.6-1.8S4.4,328,3.8,328
	c-0.4,0-0.8,0.2-1.2,0.6S2,329.4,2,330c0,0.3-0.1,0.7-0.1,1.3H0.5c0-1.5,0.3-2.8,0.9-3.7c0.6-0.9,1.5-1.4,2.5-1.4
	c0.9,0,1.6,0.4,2.3,1.3s1,1.9,1,3c0,1.2-0.3,2.3-1,3.3c-0.1,0.2-0.4,0.6-0.9,1.2l-2.7,3.4h4.6v1.8H0.5L0.4,338.6L0.4,338.6z"/>
<path class="st7" d="M9.1,331.4c0-1.5,0.3-2.7,0.8-3.6c0.7-1.1,1.6-1.7,2.7-1.7c0.8,0,1.5,0.3,2.1,0.9s1,1.4,1.3,2.4
	c0.1,0.6,0.2,1.2,0.2,2v3.4c0,0.8,0,1.5-0.1,2c-0.1,0.7-0.3,1.3-0.6,1.9c-0.7,1.2-1.6,1.7-2.8,1.7c-1.1,0-2-0.6-2.7-1.7
	c-0.3-0.5-0.6-1.2-0.7-1.9c-0.1-0.5-0.1-1.2-0.1-2.1L9.1,331.4L9.1,331.4z M14.8,331.7c0-1.2-0.1-2-0.4-2.6c-0.4-0.8-1-1.2-1.7-1.2
	c-0.8,0-1.4,0.5-1.8,1.4c-0.2,0.5-0.3,1.3-0.3,2.4v2.9c0,1.4,0.1,2.3,0.4,2.8c0.4,0.8,1,1.2,1.8,1.2s1.4-0.4,1.8-1.3
	c0.2-0.5,0.3-1.4,0.3-2.6L14.8,331.7L14.8,331.7z"/>
<path class="st7" d="M4.1,359.3H2.4v-1.8h3.1v13.8H4.1V359.3z"/>
<path class="st7" d="M9.8,361c0-1.1,0.3-2,0.8-2.7s1.2-1,2-1s1.5,0.4,2,1.1s0.8,1.6,0.8,2.7c-0.1,1.3-0.4,2.1-0.9,2.5
	c0.3,0.2,0.6,0.6,0.9,1.3s0.5,1.4,0.5,2.3c0,1.2-0.3,2.3-1,3.1s-1.5,1.3-2.4,1.3s-1.7-0.4-2.4-1.3s-1-1.9-1-3.1
	c0-0.8,0.2-1.5,0.5-2.2c0.3-0.8,0.6-1.2,0.9-1.3C10.1,363.1,9.8,362.2,9.8,361z M10.6,367.2c0,0.7,0.2,1.3,0.6,1.8s0.8,0.7,1.4,0.7
	s1-0.2,1.4-0.7s0.6-1.1,0.6-1.8c0-0.7-0.2-1.3-0.6-1.8s-0.9-0.7-1.4-0.7c-0.6,0-1,0.2-1.4,0.7S10.6,366.5,10.6,367.2z M11.2,360.9
	c0,0.6,0.1,1,0.4,1.4s0.6,0.5,1,0.5s0.7-0.2,1-0.6s0.4-0.8,0.4-1.3s-0.1-1-0.4-1.3s-0.6-0.5-1-0.5s-0.7,0.2-1,0.5
	C11.3,360,11.2,360.4,11.2,360.9z"/>
<path class="st7" d="M4.3,390.4H2.6v-1.8h3.1v13.9H4.3V390.4z"/>
<path class="st7" d="M14.4,388.7l-2.2,4.3h0.6c0.9,0,1.8,0.5,2.4,1.5c0.6,0.9,1,2.1,1,3.3c0,1.3-0.3,2.4-1,3.4s-1.6,1.5-2.6,1.5
	s-1.8-0.5-2.5-1.4s-1-2.1-1-3.4c0-1,0.2-2,0.7-3c0.1-0.3,0.4-0.8,0.6-1.3l2.4-4.8h1.6V388.7z M10.5,397.7c0,0.9,0.2,1.6,0.6,2.2
	s0.9,0.9,1.6,0.9c0.6,0,1.1-0.3,1.6-0.9s0.6-1.3,0.6-2.2c0-0.8-0.2-1.6-0.6-2.2s-1-0.9-1.6-0.9s-1.1,0.3-1.5,0.9
	S10.5,396.9,10.5,397.7z"/>
<path class="st7" d="M4.5,421.6H2.8v-1.8h3.1v13.8H4.5V421.6z"/>
<path class="st7" d="M13.9,431.2h-5v-1.5l4.9-9.8h1.5v9.6h0.9v1.7h-0.9v2.4h-1.4V431.2z M13.9,422.8l-3.3,6.6h3.3V422.8z"/>
<path class="st7" d="M4.2,452.7H2.5v-1.8h3.1v13.8H4.2V452.7z"/>
<path class="st7" d="M9.2,463.2l3.9-4.9c0.5-0.6,0.8-1.1,1-1.5c0.3-0.6,0.5-1.2,0.5-1.7c0-0.7-0.2-1.3-0.6-1.8s-0.8-0.7-1.4-0.7
	c-0.4,0-0.8,0.2-1.2,0.6s-0.6,0.8-0.6,1.4c0,0.3-0.1,0.7-0.1,1.3H9.3c0-1.5,0.3-2.8,0.9-3.7s1.5-1.4,2.5-1.4c0.9,0,1.6,0.4,2.3,1.3
	s1,1.9,1,3c0,1.2-0.3,2.3-1,3.3c-0.1,0.2-0.4,0.6-0.9,1.2l-2.7,3.4H16v1.8H9.3L9.2,463.2L9.2,463.2z"/>
<path class="st7" d="M4,483.9H2.3v-1.8h3.1v13.8H4V483.9z"/>
<path class="st7" d="M9.1,487.2c0-1.5,0.3-2.7,0.8-3.6c0.7-1.1,1.6-1.7,2.7-1.7c0.8,0,1.5,0.3,2.1,0.9s1,1.4,1.3,2.4
	c0.1,0.6,0.2,1.2,0.2,2v3.4c0,0.8,0,1.5-0.1,2c-0.1,0.7-0.3,1.3-0.6,1.9c-0.7,1.2-1.6,1.7-2.8,1.7c-1.1,0-2-0.6-2.7-1.7
	c-0.3-0.5-0.6-1.2-0.7-1.9c-0.1-0.5-0.1-1.2-0.1-2.1L9.1,487.2L9.1,487.2z M14.8,487.5c0-1.2-0.1-2-0.4-2.6c-0.4-0.8-1-1.2-1.7-1.2
	c-0.8,0-1.4,0.5-1.8,1.4c-0.2,0.5-0.3,1.3-0.3,2.4v2.9c0,1.4,0.1,2.3,0.4,2.8c0.4,0.8,1,1.2,1.8,1.2s1.4-0.4,1.8-1.3
	c0.2-0.5,0.3-1.4,0.3-2.6L14.8,487.5L14.8,487.5z"/>
<path class="st7" d="M9.8,516.7c0-1.1,0.3-2,0.8-2.7s1.2-1,2-1s1.5,0.4,2,1.1s0.8,1.6,0.8,2.7c-0.1,1.3-0.4,2.1-0.9,2.5
	c0.3,0.2,0.6,0.6,0.9,1.3s0.5,1.4,0.5,2.3c0,1.2-0.3,2.3-1,3.1s-1.5,1.3-2.4,1.3s-1.7-0.4-2.4-1.3s-1-1.9-1-3.1
	c0-0.8,0.2-1.5,0.5-2.2c0.3-0.8,0.6-1.2,0.9-1.3C10.1,518.8,9.8,518,9.8,516.7z M10.6,523c0,0.7,0.2,1.3,0.6,1.8s0.8,0.7,1.4,0.7
	s1-0.2,1.4-0.7s0.6-1.1,0.6-1.8s-0.2-1.3-0.6-1.8s-0.9-0.7-1.4-0.7c-0.6,0-1,0.2-1.4,0.7S10.6,522.2,10.6,523z M11.2,516.7
	c0,0.6,0.1,1,0.4,1.4s0.6,0.5,1,0.5s0.7-0.2,1-0.6s0.4-0.8,0.4-1.3s-0.1-1-0.4-1.3s-0.6-0.5-1-0.5s-0.7,0.2-1,0.5
	C11.3,515.7,11.2,516.2,11.2,516.7z"/>
<path class="st7" d="M14.4,544.4l-2.2,4.3h0.6c0.9,0,1.8,0.5,2.4,1.5c0.6,0.9,1,2.1,1,3.3c0,1.3-0.3,2.4-1,3.4s-1.6,1.5-2.6,1.5
	s-1.8-0.5-2.5-1.4s-1-2.1-1-3.4c0-1,0.2-2,0.7-3c0.1-0.3,0.4-0.8,0.6-1.3l2.4-4.8L14.4,544.4L14.4,544.4z M10.5,553.5
	c0,0.9,0.2,1.6,0.6,2.2c0.4,0.6,0.9,0.9,1.6,0.9c0.6,0,1.1-0.3,1.6-0.9s0.6-1.3,0.6-2.2c0-0.8-0.2-1.6-0.6-2.2s-1-0.9-1.6-0.9
	s-1.1,0.3-1.5,0.9S10.5,552.6,10.5,553.5z"/>
<path class="st7" d="M13.9,586.9h-5v-1.5l4.9-9.8h1.5v9.6h0.9v1.7h-0.9v2.4h-1.4V586.9z M13.9,578.6l-3.3,6.6h3.3V578.6z"/>
<path class="st7" d="M9.2,618.9l3.9-4.9c0.5-0.6,0.8-1.1,1-1.5c0.3-0.6,0.5-1.2,0.5-1.7c0-0.7-0.2-1.3-0.6-1.8s-0.8-0.7-1.4-0.7
	c-0.4,0-0.8,0.2-1.2,0.6s-0.6,0.8-0.6,1.4c0,0.3-0.1,0.7-0.1,1.3H9.3c0-1.5,0.3-2.8,0.9-3.7s1.5-1.4,2.5-1.4c0.9,0,1.6,0.4,2.3,1.3
	s1,1.9,1,3c0,1.2-0.3,2.3-1,3.3c-0.1,0.2-0.4,0.6-0.9,1.2l-2.7,3.4H16v1.8H9.3L9.2,618.9L9.2,618.9z"/>
<circle class="st1" cx="59.3" cy="614.2" r="11.3"/>
<path class="st7" d="M127.2,19.9c0-1.3,0.3-2.3,0.8-3s1.2-1.1,2-1.1s1.4,0.4,1.9,1.1s0.8,1.6,0.8,2.6s-0.3,1.9-0.8,2.4
	c0.3,0.2,0.7,0.6,1,1.3c0.3,0.7,0.5,1.5,0.5,2.3c0,1.3-0.3,2.4-1,3.2c-0.7,0.9-1.5,1.3-2.4,1.3s-1.7-0.5-2.4-1.4
	c-0.6-0.9-0.9-2.1-0.9-3.5h1.4c0,0.8,0.1,1.5,0.3,1.9c0.4,0.8,0.9,1.3,1.6,1.3c0.6,0,1.1-0.3,1.4-0.8c0.4-0.5,0.6-1.2,0.6-1.9
	c0-0.7-0.2-1.3-0.5-1.8s-0.7-0.8-1.2-0.9c-0.2,0-0.3,0-0.5,0h-0.6v-1.8h0.6c0.4,0,0.8-0.1,1.1-0.4c0.3-0.3,0.5-0.8,0.5-1.4
	c0-0.5-0.1-0.9-0.4-1.2c-0.3-0.3-0.6-0.5-1-0.5s-0.7,0.2-0.9,0.6s-0.3,0.9-0.3,1.7C128.8,19.9,127.2,19.9,127.2,19.9z"/>
<path class="st7" d="M136.6,29.9l2.1-4.2h-0.6c-0.9,0-1.8-0.5-2.4-1.5s-0.9-2.1-0.9-3.3c0-1.3,0.3-2.4,1-3.4s1.5-1.5,2.6-1.5
	c1,0,1.8,0.5,2.5,1.4c0.7,1,1,2.1,1,3.4c0,1-0.2,2-0.7,3c0,0.1-0.2,0.5-0.7,1.3l-2.4,4.8C138.1,29.9,136.6,29.9,136.6,29.9z
	 M138.4,23.8c0.6,0,1.1-0.3,1.5-0.9s0.6-1.3,0.6-2.1c0-0.8-0.2-1.6-0.6-2.2s-0.9-0.9-1.6-0.9c-0.6,0-1.1,0.3-1.6,0.9
	c-0.4,0.6-0.6,1.3-0.6,2.1c0,0.8,0.2,1.5,0.7,2.1C137.3,23.5,137.8,23.8,138.4,23.8z"/>
<path class="st7" d="M127.2,51.1c0-1.3,0.3-2.3,0.8-3s1.2-1.1,2-1.1s1.4,0.4,1.9,1.1s0.8,1.6,0.8,2.6s-0.3,1.9-0.8,2.4
	c0.3,0.2,0.7,0.6,1,1.3s0.5,1.5,0.5,2.3c0,1.3-0.3,2.4-1,3.2c-0.7,0.9-1.5,1.3-2.4,1.3s-1.7-0.5-2.4-1.4c-0.6-0.9-0.9-2.1-0.9-3.5
	h1.4c0,0.8,0.1,1.5,0.3,1.9c0.4,0.8,0.9,1.3,1.6,1.3c0.6,0,1.1-0.3,1.4-0.8c0.4-0.5,0.6-1.2,0.6-1.9s-0.2-1.3-0.5-1.8
	s-0.7-0.8-1.2-0.9c-0.2,0-0.3,0-0.5,0h-0.6v-1.8h0.6c0.4,0,0.8-0.1,1.1-0.4c0.3-0.3,0.5-0.8,0.5-1.4c0-0.5-0.1-0.9-0.4-1.2
	s-0.6-0.5-1-0.5s-0.7,0.2-0.9,0.6s-0.3,0.9-0.3,1.7L127.2,51.1L127.2,51.1z"/>
<path class="st7" d="M139.5,49h-4.6v-1.8h6.1v1.5L136.9,61h-1.5L139.5,49z"/>
<path class="st7" d="M127.2,82.2c0-1.3,0.3-2.3,0.8-3s1.2-1.1,2-1.1s1.4,0.4,1.9,1.1s0.8,1.6,0.8,2.6s-0.3,1.9-0.8,2.4
	c0.3,0.2,0.7,0.6,1,1.3s0.5,1.5,0.5,2.3c0,1.3-0.3,2.4-1,3.2c-0.7,0.9-1.5,1.3-2.4,1.3s-1.7-0.5-2.4-1.4c-0.6-0.9-0.9-2.1-0.9-3.5
	h1.4c0,0.8,0.1,1.5,0.3,1.9c0.4,0.8,0.9,1.3,1.6,1.3c0.6,0,1.1-0.3,1.4-0.8c0.4-0.5,0.6-1.2,0.6-1.9s-0.2-1.3-0.5-1.8
	s-0.7-0.8-1.2-0.9c-0.2,0-0.3,0-0.5,0h-0.6v-1.7h0.6c0.4,0,0.8-0.1,1.1-0.4c0.3-0.3,0.5-0.8,0.5-1.4c0-0.5-0.1-0.9-0.4-1.2
	s-0.6-0.5-1-0.5s-0.7,0.2-0.9,0.6s-0.3,0.9-0.3,1.7h-1.6V82.2z"/>
<path class="st7" d="M136.5,78.4h4.9v1.8h-3.7l-0.4,2.8c0.3-0.2,0.8-0.4,1.4-0.4c1,0,1.8,0.5,2.5,1.4c0.7,1,1,2.1,1,3.4
	c0,1.3-0.3,2.5-1,3.5s-1.5,1.5-2.5,1.5s-1.8-0.4-2.5-1.3c-0.7-0.9-1.1-2.1-1.1-3.6h1.4c0,1,0.2,1.7,0.6,2.3s0.9,0.8,1.5,0.8
	s1.2-0.3,1.6-0.9c0.4-0.6,0.6-1.3,0.6-2.2c0-0.8-0.2-1.6-0.6-2.2c-0.4-0.6-0.9-0.9-1.5-0.9c-0.8,0-1.4,0.5-2,1.5l-1.1-0.6
	L136.5,78.4z"/>
<path class="st7" d="M127.2,113.4c0-1.3,0.3-2.3,0.8-3s1.2-1.1,2-1.1s1.4,0.4,1.9,1.1s0.8,1.6,0.8,2.6s-0.3,1.9-0.8,2.4
	c0.3,0.2,0.7,0.6,1,1.3s0.5,1.5,0.5,2.3c0,1.3-0.3,2.4-1,3.2c-0.7,0.9-1.5,1.3-2.4,1.3s-1.7-0.5-2.4-1.4c-0.6-0.9-0.9-2.1-0.9-3.5
	h1.4c0,0.8,0.1,1.5,0.3,1.9c0.4,0.8,0.9,1.3,1.6,1.3c0.6,0,1.1-0.3,1.4-0.8c0.4-0.5,0.6-1.2,0.6-1.9s-0.2-1.3-0.5-1.8
	s-0.7-0.8-1.2-0.9c-0.2,0-0.3,0-0.5,0h-0.6v-1.8h0.6c0.4,0,0.8-0.1,1.1-0.4c0.3-0.3,0.5-0.8,0.5-1.4c0-0.5-0.1-0.9-0.4-1.2
	s-0.6-0.5-1-0.5s-0.7,0.2-0.9,0.6s-0.3,0.9-0.3,1.7L127.2,113.4L127.2,113.4z"/>
<path class="st7" d="M135.8,113.4c0-1.3,0.3-2.3,0.8-3s1.2-1.1,2-1.1s1.4,0.4,1.9,1.1c0.5,0.7,0.8,1.6,0.8,2.6s-0.3,1.9-0.8,2.4
	c0.3,0.2,0.7,0.6,1,1.3s0.5,1.5,0.5,2.3c0,1.3-0.3,2.4-1,3.2c-0.7,0.9-1.5,1.3-2.4,1.3s-1.7-0.5-2.4-1.4c-0.6-0.9-0.9-2.1-0.9-3.5
	h1.4c0,0.8,0.1,1.5,0.3,1.9c0.4,0.8,0.9,1.3,1.6,1.3c0.6,0,1.1-0.3,1.4-0.8c0.4-0.5,0.6-1.2,0.6-1.9s-0.2-1.3-0.5-1.8
	s-0.7-0.8-1.2-0.9c-0.2,0-0.3,0-0.5,0h-0.6v-1.8h0.6c0.4,0,0.8-0.1,1.1-0.4c0.3-0.3,0.5-0.8,0.5-1.4c0-0.5-0.1-0.9-0.4-1.2
	s-0.6-0.5-1-0.5s-0.7,0.2-0.9,0.6c-0.2,0.4-0.3,0.9-0.3,1.7L135.8,113.4L135.8,113.4z"/>
<path class="st7" d="M127.2,144.5c0-1.3,0.3-2.3,0.8-3s1.2-1.1,2-1.1s1.4,0.4,1.9,1.1s0.8,1.6,0.8,2.6s-0.3,1.9-0.8,2.4
	c0.3,0.2,0.7,0.6,1,1.3s0.5,1.5,0.5,2.3c0,1.3-0.3,2.4-1,3.2c-0.7,0.9-1.5,1.3-2.4,1.3s-1.7-0.5-2.4-1.4c-0.6-0.9-0.9-2.1-0.9-3.5
	h1.4c0,0.8,0.1,1.5,0.3,1.9c0.4,0.8,0.9,1.3,1.6,1.3c0.6,0,1.1-0.3,1.4-0.8c0.4-0.5,0.6-1.2,0.6-1.9s-0.2-1.3-0.5-1.8
	s-0.7-0.8-1.2-0.9c-0.2,0-0.3,0-0.5,0h-0.6v-1.8h0.6c0.4,0,0.8-0.1,1.1-0.4c0.3-0.3,0.5-0.8,0.5-1.4c0-0.5-0.1-0.9-0.4-1.2
	s-0.6-0.5-1-0.5s-0.7,0.2-0.9,0.6s-0.3,0.9-0.3,1.7L127.2,144.5L127.2,144.5z"/>
<path class="st7" d="M137.4,142.4h-1.6v-1.8h3.1v13.9h-1.4v-12.1H137.4z"/>
<path class="st7" d="M126.6,184l3.9-4.9c0.5-0.6,0.8-1.1,1-1.5c0.3-0.6,0.5-1.2,0.5-1.7c0-0.7-0.2-1.3-0.6-1.8s-0.8-0.7-1.4-0.7
	c-0.4,0-0.8,0.2-1.2,0.6c-0.4,0.4-0.6,0.8-0.6,1.4c0,0.3-0.1,0.7-0.1,1.3h-1.4c0-1.5,0.3-2.8,0.9-3.7c0.6-0.9,1.5-1.4,2.5-1.4
	c0.9,0,1.6,0.4,2.3,1.3c0.7,0.9,1,1.9,1,3c0,1.2-0.3,2.3-1,3.3c-0.1,0.2-0.4,0.6-0.9,1.2l-2.7,3.4h4.6v1.8h-6.7L126.6,184L126.6,184
	z"/>
<path class="st7" d="M136.8,185.6l2.1-4.2h-0.6c-0.9,0-1.8-0.5-2.4-1.5s-0.9-2.1-0.9-3.3c0-1.3,0.3-2.4,1-3.4s1.5-1.5,2.6-1.5
	c1,0,1.8,0.5,2.5,1.4c0.7,1,1,2.1,1,3.4c0,1-0.2,2-0.7,3c0,0.1-0.2,0.5-0.7,1.3l-2.4,4.8L136.8,185.6L136.8,185.6z M138.6,179.5
	c0.6,0,1.1-0.3,1.5-0.9s0.6-1.3,0.6-2.1c0-0.8-0.2-1.6-0.6-2.2s-0.9-0.9-1.6-0.9c-0.6,0-1.1,0.3-1.6,0.9c-0.4,0.6-0.6,1.3-0.6,2.1
	c0,0.8,0.2,1.5,0.7,2.1C137.5,179.2,138,179.5,138.6,179.5z"/>
<path class="st7" d="M126.6,215.2l3.9-4.9c0.5-0.6,0.8-1.1,1-1.5c0.3-0.6,0.5-1.2,0.5-1.7c0-0.7-0.2-1.3-0.6-1.8s-0.8-0.7-1.4-0.7
	c-0.4,0-0.8,0.2-1.2,0.6c-0.4,0.4-0.6,0.8-0.6,1.4c0,0.3-0.1,0.7-0.1,1.3h-1.4c0-1.5,0.3-2.8,0.9-3.7c0.6-0.9,1.5-1.4,2.5-1.4
	c0.9,0,1.6,0.4,2.3,1.3c0.7,0.9,1,1.9,1,3c0,1.2-0.3,2.3-1,3.3c-0.1,0.2-0.4,0.6-0.9,1.2l-2.7,3.4h4.6v1.8h-6.7L126.6,215.2
	L126.6,215.2z"/>
<path class="st7" d="M139.7,204.7h-4.6v-1.8h6.1v1.5l-4.1,12.3h-1.5L139.7,204.7z"/>
<path class="st7" d="M126.6,246.3l3.9-4.9c0.5-0.6,0.8-1.1,1-1.5c0.3-0.6,0.5-1.2,0.5-1.7c0-0.7-0.2-1.3-0.6-1.8s-0.8-0.7-1.4-0.7
	c-0.4,0-0.8,0.2-1.2,0.6c-0.4,0.4-0.6,0.8-0.6,1.4c0,0.3-0.1,0.7-0.1,1.3h-1.4c0-1.5,0.3-2.8,0.9-3.7c0.6-0.9,1.5-1.4,2.5-1.4
	c0.9,0,1.6,0.4,2.3,1.3c0.7,0.9,1,1.9,1,3c0,1.2-0.3,2.3-1,3.3c-0.1,0.2-0.4,0.6-0.9,1.2l-2.7,3.4h4.6v1.8h-6.7L126.6,246.3
	L126.6,246.3z"/>
<path class="st7" d="M136.3,234.1h4.9v1.8h-3.7l-0.4,2.8c0.3-0.2,0.8-0.4,1.4-0.4c1,0,1.8,0.5,2.5,1.4c0.7,1,1,2.1,1,3.4
	s-0.3,2.5-1,3.5s-1.5,1.5-2.5,1.5s-1.8-0.4-2.5-1.3s-1.1-2.1-1.1-3.6h1.4c0,1,0.2,1.7,0.6,2.3c0.4,0.6,0.9,0.8,1.5,0.8
	s1.2-0.3,1.6-0.9s0.6-1.3,0.6-2.2c0-0.8-0.2-1.6-0.6-2.2s-0.9-0.9-1.5-0.9c-0.8,0-1.4,0.5-2,1.5l-1.1-0.6L136.3,234.1z"/>
<path class="st7" d="M126.6,277.5l3.9-4.9c0.5-0.6,0.8-1.1,1-1.5c0.3-0.6,0.5-1.2,0.5-1.7c0-0.7-0.2-1.3-0.6-1.8s-0.8-0.7-1.4-0.7
	c-0.4,0-0.8,0.2-1.2,0.6c-0.4,0.4-0.6,0.8-0.6,1.4c0,0.3-0.1,0.7-0.1,1.3h-1.4c0-1.5,0.3-2.8,0.9-3.7c0.6-0.9,1.5-1.4,2.5-1.4
	c0.9,0,1.6,0.4,2.3,1.3c0.7,0.9,1,1.9,1,3c0,1.2-0.3,2.3-1,3.3c-0.1,0.2-0.4,0.6-0.9,1.2l-2.7,3.4h4.6v1.8h-6.7L126.6,277.5
	L126.6,277.5z"/>
<path class="st7" d="M135.6,269.1c0-1.3,0.3-2.3,0.8-3s1.2-1.1,2-1.1s1.4,0.4,1.9,1.1s0.8,1.6,0.8,2.6s-0.3,1.9-0.8,2.4
	c0.3,0.2,0.7,0.6,1,1.3c0.3,0.7,0.5,1.5,0.5,2.3c0,1.3-0.3,2.4-1,3.2c-0.7,0.9-1.5,1.3-2.4,1.3s-1.7-0.5-2.4-1.4
	c-0.6-0.9-0.9-2.1-0.9-3.5h1.4c0,0.8,0.1,1.5,0.3,1.9c0.4,0.8,0.9,1.3,1.6,1.3c0.6,0,1.1-0.3,1.4-0.8c0.4-0.5,0.6-1.2,0.6-1.9
	c0-0.7-0.2-1.3-0.5-1.8s-0.7-0.8-1.2-0.9c-0.2,0-0.3,0-0.5,0h-0.6v-1.8h0.6c0.4,0,0.8-0.1,1.1-0.4c0.3-0.3,0.5-0.8,0.5-1.4
	c0-0.5-0.1-0.9-0.4-1.2c-0.3-0.3-0.6-0.5-1-0.5s-0.7,0.2-0.9,0.6s-0.3,0.9-0.3,1.7L135.6,269.1L135.6,269.1z"/>
<path class="st7" d="M126.6,308.6l3.9-4.9c0.5-0.6,0.8-1.1,1-1.5c0.3-0.6,0.5-1.2,0.5-1.7c0-0.7-0.2-1.3-0.6-1.8s-0.8-0.7-1.4-0.7
	c-0.4,0-0.8,0.2-1.2,0.6c-0.4,0.4-0.6,0.8-0.6,1.4c0,0.3-0.1,0.7-0.1,1.3h-1.4c0-1.5,0.3-2.8,0.9-3.7c0.6-0.9,1.5-1.4,2.5-1.4
	c0.9,0,1.6,0.4,2.3,1.3c0.7,0.9,1,1.9,1,3c0,1.2-0.3,2.3-1,3.3c-0.1,0.2-0.4,0.6-0.9,1.2l-2.7,3.4h4.6v1.8h-6.7L126.6,308.6
	L126.6,308.6z"/>
<path class="st7" d="M137.6,298.2h-1.7v-1.8h3.1v13.8h-1.4V298.2z"/>
<path class="st7" d="M130.3,329.3h-1.7v-1.8h3.1v13.8h-1.4V329.3z"/>
<path class="st7" d="M136.8,341.4l2.1-4.2h-0.6c-0.9,0-1.8-0.5-2.4-1.5s-0.9-2.1-0.9-3.3c0-1.3,0.3-2.4,1-3.4s1.5-1.5,2.6-1.5
	c1,0,1.8,0.5,2.5,1.4s1,2.1,1,3.4c0,1-0.2,2-0.7,3c0,0.1-0.2,0.5-0.7,1.3l-2.4,4.8L136.8,341.4L136.8,341.4z M138.6,335.3
	c0.6,0,1.1-0.3,1.5-0.9s0.6-1.3,0.6-2.1c0-0.8-0.2-1.6-0.6-2.2s-0.9-0.9-1.6-0.9c-0.6,0-1.1,0.3-1.6,0.9s-0.6,1.3-0.6,2.1
	c0,0.8,0.2,1.5,0.7,2.1S138,335.3,138.6,335.3z"/>
<path class="st7" d="M130.3,360.5h-1.7v-1.8h3.1v13.8h-1.4V360.5z"/>
<path class="st7" d="M139.7,360.5h-4.6v-1.8h6.1v1.5l-4.1,12.3h-1.5L139.7,360.5z"/>
<path class="st7" d="M130.3,391.6h-1.7v-1.8h3.1v13.8h-1.4V391.6z"/>
<path class="st7" d="M136.6,389.9h4.9v1.8h-3.7l-0.4,2.8c0.3-0.2,0.8-0.4,1.4-0.4c1,0,1.8,0.5,2.5,1.4c0.7,1,1,2.1,1,3.4
	s-0.3,2.5-1,3.5s-1.5,1.5-2.5,1.5s-1.8-0.4-2.5-1.3s-1.1-2.1-1.1-3.6h1.4c0,1,0.2,1.7,0.6,2.3s0.9,0.8,1.5,0.8s1.2-0.3,1.6-0.9
	s0.6-1.3,0.6-2.2c0-0.8-0.2-1.6-0.6-2.2s-0.9-0.9-1.5-0.9c-0.8,0-1.4,0.5-2,1.5l-1.1-0.6L136.6,389.9z"/>
<path class="st7" d="M130.3,422.8h-1.7V421h3.1v13.8h-1.4V422.8z"/>
<path class="st7" d="M135.8,424.9c0-1.3,0.3-2.3,0.8-3s1.2-1.1,2-1.1s1.4,0.4,1.9,1.1s0.8,1.6,0.8,2.6s-0.3,1.9-0.8,2.4
	c0.3,0.2,0.7,0.6,1,1.3s0.5,1.5,0.5,2.3c0,1.3-0.3,2.4-1,3.2s-1.5,1.3-2.4,1.3s-1.7-0.5-2.4-1.4c-0.6-0.9-0.9-2.1-0.9-3.5h1.4
	c0,0.8,0.1,1.5,0.3,1.9c0.4,0.8,0.9,1.3,1.6,1.3c0.6,0,1.1-0.3,1.4-0.8s0.6-1.2,0.6-1.9s-0.2-1.3-0.5-1.8s-0.7-0.8-1.2-0.9
	c-0.2,0-0.3,0-0.5,0h-0.6v-1.8h0.6c0.4,0,0.8-0.1,1.1-0.4s0.5-0.8,0.5-1.4c0-0.5-0.1-0.9-0.4-1.2s-0.6-0.5-1-0.5s-0.7,0.2-0.9,0.6
	c-0.2,0.4-0.3,0.9-0.3,1.7L135.8,424.9L135.8,424.9z"/>
<path class="st7" d="M130.3,453.9h-1.7v-1.8h3.1v13.8h-1.4V453.9z"/>
<path class="st7" d="M137.6,453.9h-1.7v-1.8h3.1v13.8h-1.4V453.9z"/>
<path class="st7" d="M128.1,497.1l2.1-4.2h-0.6c-0.9,0-1.8-0.5-2.4-1.5s-0.9-2.1-0.9-3.3c0-1.3,0.3-2.4,1-3.4s1.5-1.5,2.6-1.5
	c1,0,1.8,0.5,2.5,1.4s1,2.1,1,3.4c0,1-0.2,2-0.7,3c0,0.1-0.2,0.5-0.7,1.3l-2.4,4.8H128.1z M129.9,491c0.6,0,1.1-0.3,1.5-0.9
	s0.6-1.3,0.6-2.1s-0.2-1.6-0.6-2.2s-0.9-0.9-1.6-0.9c-0.6,0-1.1,0.3-1.6,0.9s-0.6,1.3-0.6,2.1s0.2,1.5,0.7,2.1S129.3,491,129.9,491z
	"/>
<path class="st7" d="M131.5,516.2h-4.6v-1.7h6.1v1.5l-4.1,12.3h-1.5L131.5,516.2z"/>
<path class="st7" d="M127.7,545.6h4.9v1.8h-3.7l-0.4,2.8c0.3-0.2,0.8-0.4,1.4-0.4c1,0,1.8,0.5,2.5,1.4c0.7,1,1,2.1,1,3.4
	c0,1.3-0.3,2.5-1,3.5s-1.5,1.5-2.5,1.5s-1.8-0.4-2.5-1.3s-1.1-2.1-1.1-3.6h1.4c0,1,0.2,1.7,0.6,2.3s0.9,0.8,1.5,0.8s1.2-0.3,1.6-0.9
	s0.6-1.3,0.6-2.2c0-0.8-0.2-1.6-0.6-2.2c-0.4-0.6-0.9-0.9-1.5-0.9c-0.8,0-1.4,0.5-2,1.5l-1.1-0.6L127.7,545.6z"/>
<path class="st7" d="M127.2,580.6c0-1.3,0.3-2.3,0.8-3s1.2-1.1,2-1.1s1.4,0.4,1.9,1.1s0.8,1.6,0.8,2.6s-0.3,1.9-0.8,2.4
	c0.3,0.2,0.7,0.6,1,1.3s0.5,1.5,0.5,2.3c0,1.3-0.3,2.4-1,3.2s-1.5,1.3-2.4,1.3s-1.7-0.5-2.4-1.4c-0.6-0.9-0.9-2.1-0.9-3.5h1.4
	c0,0.8,0.1,1.5,0.3,1.9c0.4,0.8,0.9,1.3,1.6,1.3c0.6,0,1.1-0.3,1.4-0.8s0.6-1.2,0.6-1.9s-0.2-1.3-0.5-1.8s-0.7-0.8-1.2-0.9
	c-0.2,0-0.3,0-0.5,0h-0.6v-1.8h0.6c0.4,0,0.8-0.1,1.1-0.4s0.5-0.8,0.5-1.4c0-0.5-0.1-0.9-0.4-1.2s-0.6-0.5-1-0.5s-0.7,0.2-0.9,0.6
	s-0.3,0.9-0.3,1.7L127.2,580.6L127.2,580.6z"/>
<path class="st7" d="M130.3,609.7h-1.7v-1.8h3.1v13.8h-1.4V609.7z"/>
</svg>
