<svg xmlns="http://www.w3.org/2000/svg" width="60px" height="60px" viewBox="0 0 60 60">
<style type="text/css">
	.st0{fill:#E6E6E6;}
	.st1{opacity:0.75;}
</style>
<rect class="st0" width="60" height="60"/>
<polygon class="st1" points="0,27 12,27 12,15 18,15 18,27 30,27 30,6 30,0 0,0 "/>
<polygon class="st1" points="36,60 55.7,60 36,40.3 "/>
<polygon class="st1" points="18,33 18,45 12,45 12,33 0,33 0,60 30,60 30,33 "/>
<path class="st1" d="M30,0c9.1,0,16.5,7.4,16.5,16.5c0,6.8-4.1,12.8-10.4,15.3L60,55.8V0H30z"/>
<path class="st1" d="M40.5,16.5c0-3.4-1.7-6.6-4.5-8.6v17.2C38.8,23.1,40.5,19.9,40.5,16.5z"/>
<path class="st1" d="M0,0v60h60V0H0z M46.6,45H9.4V7.9h37.1L46.6,45L46.6,45z"/>
</svg>
