<svg xmlns="http://www.w3.org/2000/svg" viewBox="0 0 1920 1080">
<defs><style>
.bg{fill:hsl(0,0%,0%);}
.box{fill:hsl(200,100%,35%);}
</style></defs>
<rect class="bg" width="1920" height="1080"/>
<path class="box" d="M1000,585h-90c-2.8,0-5-2.2-5-5v-90c0-2.8,2.2-5,5-5h90c2.8,0,5,2.2,5,5v90C1005,582.8,1002.8,585,1000,585z"/>
<path d="M965.1,538.1c10.2-4,17.4-14,17.4-25.6c0-15.2-12.3-27.5-27.5-27.5v10v35h-20v-20h-10v20h-20v10h20v20h10v-20
	h20v45h10v-32.9l32.9,32.9h2.1c2.8,0,5-2.2,5-5v-2.1L965.1,538.1z M965,498.1c4.5,3.2,7.5,8.4,7.5,14.4s-3,11.2-7.5,14.4V498.1z"/>
</svg>