<svg version="1.1" id="Layer_1" xmlns="http://www.w3.org/2000/svg" xmlns:xlink="http://www.w3.org/1999/xlink" x="0px" y="0px"
	 viewBox="0 0 84 98" style="enable-background:new 0 0 84 98;" xml:space="preserve">
<filter id="swshadow"><feDropShadow dx="-1" dy="1" stdDeviation="2"/></filter>
<style type="text/css">
	.st0{fill:#CCCCCC;}
	.st1{fill:url(#path6078_1_);}
	.st2{fill:#666666;}
	.st3{fill:url(#path6076_1_);}
	.st4{fill:url(#path6034_1_);}
	.st5{opacity:0.3;fill:url(#path6932_1_);enable-background:new;}
	.st6{fill:url(#path6005_1_);}
	.st7{fill:url(#path6062_1_);}
	.st8{fill:url(#path6060_1_);}
	.st10{fill:#FFFFFF;stroke:#636769;stroke-width:1;}
	.st11{fill:none;stroke:#000000;stroke-width:4;filter:url(#swshadow);}
	.st12{fill:none;stroke:#969a9c;stroke-width:1;filter:url(#swshadow);}
	.st13{fill:none;stroke:#000000;stroke-width:0.5;stroke-miterlimit:10;}
	.st14{fill:none;stroke:#000000;stroke-width:0.25;stroke-miterlimit:10;}
	.st15{font-family:'Arial';}
	.st16{font-size:5px;}
	.st17{fill:none;stroke:#000000;stroke-width:0.15;stroke-miterlimit:10;}
	.st18{fill:none;stroke:#000000;stroke-width:0.3;stroke-miterlimit:10;}
	.st19{font-size:3px;}
	.st20{fill:none;stroke:#C80000;stroke-width:0.5;}
	.st21{fill:#C80000;}
	.st22{fill:none;stroke:#C80000;transform-origin:42px 55px;animation:spin 60s infinite linear;}
	.st23{fill:#FFFFFF;fill-opacity:0.5;}
	@keyframes spin{0%{transform:rotate(0deg)}100%{transform:rotate(360deg)}}
</style>
<path id="path6072" class="st0" d="M3.7,25.2c0.4,0.4,1.9-0.6,3.4-2.2s2.4-3.2,2-3.5s-1.9,0.6-3.4,2.2S3.3,24.9,3.7,25.2z"/>
<linearGradient id="path6078_1_" gradientUnits="userSpaceOnUse" x1="13.2518" y1="-1420.2509" x2="8.7618" y2="-1424.8608" gradientTransform="matrix(1 0 0 -1 -1.56 -1400)">
	<stop  offset="0" style="stop-color:#000000"/>
	<stop  offset="0.10" style="stop-color:#FFFFFF"/>
	<stop  offset="0.40" style="stop-color:#666666"/>
	<stop  offset="0.65" style="stop-color:#CCCCCC"/>
	<stop  offset="0.80" style="stop-color:#333333"/>
	<stop  offset="1" style="stop-color:#000000"/>
</linearGradient>
<path id="path6078" class="st1" d="M5.9,21.9c1.5-1.6,3-2.6,3.4-2.2l3.7,3.5c-0.4-0.4-1.9,0.6-3.4,2.2s-2.4,3.2-2,3.5l-3.7-3.5
	C3.5,25,4.4,23.5,5.9,21.9z"/>
<path id="path6074" class="st2" d="M7.6,29c0.4,0.3,1.9-0.7,3.4-2.3s2.4-3.2,2-3.5s-1.9,0.6-3.4,2.2S7.2,28.6,7.6,29z"/>
<linearGradient id="path6076_1_" gradientUnits="userSpaceOnUse" x1="17.146" y1="-1424.0436" x2="12.656" y2="-1428.6537" gradientTransform="matrix(1 0 0 -1 -1.56 -1400)">
	<stop  offset="0" style="stop-color:#000000"/>
	<stop  offset="0.10" style="stop-color:#FFFFFF"/>
	<stop  offset="0.40" style="stop-color:#666666"/>
	<stop  offset="0.65" style="stop-color:#CCCCCC"/>
	<stop  offset="0.80" style="stop-color:#333333"/>
	<stop  offset="1" style="stop-color:#000000"/>
</linearGradient>
<path id="path6076" class="st3" d="M9.9,25.7c1.2-1.3,2.4-2.1,2.6-1.9l3.5,3.3c0.2,0.2-0.5,1.4-1.8,2.7s-2.4,2.1-2.6,1.9l-3.5-3.3
	C7.9,28.2,8.7,26.9,9.9,25.7z"/>
<path id="path6044" class="st0" d="M47.5,1.7C47.5,2.4,45,3,42,3s-5.5-0.6-5.5-1.3S39,0.4,42,0.4S47.5,1,47.5,1.7z"/>
<linearGradient id="path6034_1_" gradientUnits="userSpaceOnUse" x1="-146.9387" y1="2552.4387" x2="-156.5487" y2="2552.4387" gradientTransform="matrix(1.14 0 0 0.88 215.0101 -2240)">
	<stop  offset="0" style="stop-color:#000000"/>
	<stop  offset="0.10" style="stop-color:#FFFFFF"/>
	<stop  offset="0.40" style="stop-color:#666666"/>
	<stop  offset="0.65" style="stop-color:#CCCCCC"/>
	<stop  offset="0.80" style="stop-color:#333333"/>
	<stop  offset="1" style="stop-color:#000000"/>
</linearGradient>
<path id="path6034" class="st4" d="M42,0.7c-3,0-5.5,0.6-5.5,1.3v7.1c0-0.7,2.5-1.3,5.5-1.3s5.5,0.6,5.5,1.3v-7
	C47.5,1.3,45,0.7,42,0.7z"/>
<path id="path6032" class="st2" d="M47.5,9.2c0,0.7-2.5,1.3-5.5,1.3s-5.5-0.6-5.5-1.3S39,7.9,42,7.9S47.5,8.5,47.5,9.2z"/>
<linearGradient id="path6005_1_" gradientUnits="userSpaceOnUse" x1="-1.1751" y1="2323.8804" x2="-9.6651" y2="2323.8804" gradientTransform="matrix(1.03 0 0 0.97 47.645 -2240)">
	<stop  offset="0" style="stop-color:#000000"/>
	<stop  offset="0.10" style="stop-color:#FFFFFF"/>
	<stop  offset="0.40" style="stop-color:#666666"/>
	<stop  offset="0.65" style="stop-color:#CCCCCC"/>
	<stop  offset="0.80" style="stop-color:#333333"/>
	<stop  offset="1" style="stop-color:#000000"/>
</linearGradient>
<path id="path6005" class="st6" d="M42,8.4c-2.4,0-4.4,0.4-4.4,0.8v6.6c0,0.5,2,0.8,4.4,0.8s4.4-0.4,4.4-0.8V9.2
	C46.4,8.7,44.4,8.4,42,8.4z"/>
<path id="path6056" class="st0" d="M80.3,25.2c-0.4,0.4-1.9-0.6-3.4-2.2s-2.4-3.2-2-3.5s1.9,0.6,3.4,2.2S80.7,24.9,80.3,25.2z"/>
<linearGradient id="path6062_1_" gradientUnits="userSpaceOnUse" x1="73.9201" y1="-1420.462" x2="78.4201" y2="-1424.932" gradientTransform="matrix(1 0 0 -1 -1.56 -1400)">
	<stop  offset="0" style="stop-color:#000000"/>
	<stop  offset="0.10" style="stop-color:#FFFFFF"/>
	<stop  offset="0.40" style="stop-color:#666666"/>
	<stop  offset="0.65" style="stop-color:#CCCCCC"/>
	<stop  offset="0.80" style="stop-color:#333333"/>
	<stop  offset="1" style="stop-color:#000000"/>
</linearGradient>
<path id="path6062" class="st7" d="M78.1,21.9c-1.5-1.6-3-2.6-3.4-2.2L71,23.2c0.4-0.4,1.9,0.6,3.4,2.2s2.4,3.2,2,3.5l3.7-3.5
	C80.5,25,79.6,23.5,78.1,21.9z"/>
<path id="path6058" class="st2" d="M76.4,29c-0.4,0.4-1.9-0.6-3.4-2.2s-2.4-3.2-2-3.5s1.9,0.6,3.4,2.2S76.7,28.6,76.4,29z"/>
<linearGradient id="path6060_1_" gradientUnits="userSpaceOnUse" x1="70.1385" y1="-1424.2688" x2="74.6385" y2="-1428.7389" gradientTransform="matrix(1 0 0 -1 -1.56 -1400)">
	<stop  offset="0" style="stop-color:#000000"/>
	<stop  offset="0.10" style="stop-color:#FFFFFF"/>
	<stop  offset="0.40" style="stop-color:#666666"/>
	<stop  offset="0.65" style="stop-color:#CCCCCC"/>
	<stop  offset="0.80" style="stop-color:#333333"/>
	<stop  offset="1" style="stop-color:#000000"/>
</linearGradient>
<path id="path6060" class="st8" d="M74.1,25.7c-1.2-1.3-2.4-2.1-2.6-1.9L68,27c-0.2,0.2,0.5,1.4,1.8,2.7s2.4,2.1,2.6,1.9l3.5-3.3
	C76.1,28.2,75.3,26.9,74.1,25.7z"/>
<path id="body-outer" class="st10" d="M81.5,55c0,21.8-17.7,39.5-39.5,39.5S2.5,76.8,2.5,55S20.2,15.5,42,15.5S81.4,33.1,81.5,55
	L81.5,55z"/>
<path id="body-inner" class="st12" d="M77,55c0,19.4-15.7,35-35,35S7,74.4,7,55s15.6-35,35-35C61.3,19.9,77,35.6,77,55
	C77,54.9,77,55,77,55z"/>
<path id="body" class="st11" d="M79.5,55c0,20.7-16.8,37.5-37.5,37.5S4.5,75.7,4.5,55S21.3,17.5,42,17.5S79.5,34.3,79.5,55z"/>
<line class="st13" x1="71" y1="55" x2="76" y2="55"/>
<line class="st13" x1="8" y1="55" x2="13" y2="55"/>
<line class="st13" x1="67.1" y1="40.5" x2="71.4" y2="38"/>
<line class="st13" x1="12.6" y1="72" x2="16.9" y2="69.5"/>
<line class="st13" x1="56.5" y1="29.9" x2="59" y2="25.6"/>
<line class="st13" x1="25" y1="84.4" x2="27.5" y2="80.1"/>
<line class="st13" x1="42" y1="26" x2="42" y2="21"/>
<line class="st13" x1="42" y1="89" x2="42" y2="84"/>
<line class="st13" x1="27.5" y1="29.9" x2="25" y2="25.6"/>
<line class="st13" x1="59" y1="84.4" x2="56.5" y2="80.1"/>
<line class="st13" x1="16.9" y1="40.5" x2="12.6" y2="38"/>
<line class="st13" x1="71.4" y1="72" x2="67.1" y2="69.5"/>
<line class="st14" x1="73.3" y1="51.7" x2="75.8" y2="51.4"/>
<line class="st14" x1="8.2" y1="58.6" x2="10.7" y2="58.3"/>
<line class="st14" x1="72.8" y1="48.5" x2="75.3" y2="47.9"/>
<line class="st14" x1="8.7" y1="62.1" x2="11.2" y2="61.5"/>
<line class="st14" x1="72" y1="45.3" x2="74.3" y2="44.5"/>
<line class="st14" x1="9.7" y1="65.5" x2="12" y2="64.7"/>
<line class="st14" x1="70.8" y1="42.2" x2="73.1" y2="41.2"/>
<line class="st14" x1="10.9" y1="68.8" x2="13.2" y2="67.8"/>
<line class="st14" x1="67.5" y1="36.5" x2="69.5" y2="35"/>
<line class="st14" x1="14.5" y1="75" x2="16.5" y2="73.5"/>
<line class="st14" x1="65.4" y1="33.9" x2="67.3" y2="32.2"/>
<line class="st14" x1="16.7" y1="77.8" x2="18.6" y2="76.1"/>
<line class="st14" x1="63.1" y1="31.6" x2="64.8" y2="29.7"/>
<line class="st14" x1="19.2" y1="80.3" x2="20.9" y2="78.4"/>
<line class="st14" x1="60.5" y1="29.5" x2="62" y2="27.5"/>
<line class="st14" x1="22" y1="82.5" x2="23.5" y2="80.5"/>
<line class="st14" x1="54.8" y1="26.2" x2="55.8" y2="23.9"/>
<line class="st14" x1="28.2" y1="86.1" x2="29.2" y2="83.8"/>
<line class="st14" x1="51.7" y1="25" x2="52.5" y2="22.7"/>
<line class="st14" x1="31.5" y1="87.3" x2="32.3" y2="85"/>
<line class="st14" x1="48.5" y1="24.2" x2="49.1" y2="21.7"/>
<line class="st14" x1="34.9" y1="88.3" x2="35.5" y2="85.8"/>
<line class="st14" x1="45.3" y1="23.7" x2="45.6" y2="21.2"/>
<line class="st14" x1="38.4" y1="88.8" x2="38.7" y2="86.3"/>
<line class="st14" x1="38.7" y1="23.7" x2="38.4" y2="21.2"/>
<line class="st14" x1="45.6" y1="88.8" x2="45.3" y2="86.3"/>
<line class="st14" x1="35.5" y1="24.2" x2="34.9" y2="21.7"/>
<line class="st14" x1="49.1" y1="88.3" x2="48.5" y2="85.8"/>
<line class="st14" x1="32.3" y1="25" x2="31.5" y2="22.7"/>
<line class="st14" x1="52.5" y1="87.3" x2="51.7" y2="85"/>
<line class="st14" x1="29.2" y1="26.2" x2="28.2" y2="23.9"/>
<line class="st14" x1="55.8" y1="86.1" x2="54.8" y2="83.8"/>
<line class="st14" x1="23.5" y1="29.5" x2="22" y2="27.5"/>
<line class="st14" x1="62" y1="82.5" x2="60.5" y2="80.5"/>
<line class="st14" x1="20.9" y1="31.6" x2="19.2" y2="29.7"/>
<line class="st14" x1="64.8" y1="80.3" x2="63.1" y2="78.4"/>
<line class="st14" x1="18.6" y1="33.9" x2="16.7" y2="32.2"/>
<line class="st14" x1="67.3" y1="77.8" x2="65.4" y2="76.1"/>
<line class="st14" x1="16.5" y1="36.5" x2="14.5" y2="35"/>
<line class="st14" x1="69.5" y1="75" x2="67.5" y2="73.5"/>
<line class="st14" x1="13.2" y1="42.2" x2="10.9" y2="41.2"/>
<line class="st14" x1="73.1" y1="68.8" x2="70.8" y2="67.8"/>
<line class="st14" x1="12" y1="45.3" x2="9.7" y2="44.5"/>
<line class="st14" x1="74.3" y1="65.5" x2="72" y2="64.7"/>
<line class="st14" x1="11.2" y1="48.5" x2="8.7" y2="47.9"/>
<line class="st14" x1="75.3" y1="62.1" x2="72.8" y2="61.5"/>
<line class="st14" x1="10.7" y1="51.7" x2="8.2" y2="51.4"/>
<line class="st14" x1="75.8" y1="58.6" x2="73.3" y2="58.3"/>
<text transform="matrix(1 0 0 1 39.22 30.5918)" class="st15 st16">60</text>
<text transform="matrix(1 0 0 1 17 44.5518)" class="st15 st16">50</text>
<text transform="matrix(1 0 0 1 17 69.5518)" class="st15 st16">40</text>
<text transform="matrix(1 0 0 1 39.22 83.5518)" class="st15 st16">30</text>
<text transform="matrix(1 0 0 1 61.44 69.9718)" class="st15 st16">20</text>
<text transform="matrix(1 0 0 1 61.44 44.5518)" class="st15 st16">10</text>
<line class="st17" x1="43.6" y1="49.3" x2="43.9" y2="50.8"/>
<line class="st17" x1="40.1" y1="33.2" x2="40.4" y2="34.7"/>
<line class="st17" x1="45.1" y1="48.9" x2="45.7" y2="50.2"/>
<line class="st17" x1="38.3" y1="33.8" x2="38.9" y2="35.1"/>
<line class="st17" x1="46.4" y1="48.1" x2="47.3" y2="49.3"/>
<line class="st17" x1="36.7" y1="34.7" x2="37.6" y2="35.9"/>
<line class="st17" x1="47.6" y1="47" x2="48.7" y2="48"/>
<line class="st17" x1="35.3" y1="36" x2="36.4" y2="37"/>
<line class="st17" x1="49.1" y1="44.3" x2="50.6" y2="44.8"/>
<line class="st17" x1="33.4" y1="39.2" x2="34.9" y2="39.7"/>
<line class="st17" x1="49.5" y1="42.8" x2="51" y2="42.9"/>
<line class="st17" x1="33" y1="41.1" x2="34.5" y2="41.2"/>
<line class="st17" x1="49.5" y1="41.2" x2="51" y2="41.1"/>
<line class="st17" x1="33" y1="42.9" x2="34.5" y2="42.8"/>
<line class="st17" x1="49.1" y1="39.7" x2="50.6" y2="39.2"/>
<line class="st17" x1="33.4" y1="44.8" x2="34.9" y2="44.3"/>
<line class="st17" x1="47.6" y1="37" x2="48.7" y2="36"/>
<line class="st17" x1="35.3" y1="48" x2="36.4" y2="47"/>
<line class="st17" x1="46.4" y1="35.9" x2="47.3" y2="34.7"/>
<line class="st17" x1="36.7" y1="49.3" x2="37.6" y2="48.1"/>
<line class="st17" x1="45.1" y1="35.1" x2="45.7" y2="33.8"/>
<line class="st17" x1="38.3" y1="50.2" x2="38.9" y2="48.9"/>
<line class="st17" x1="43.6" y1="34.7" x2="43.9" y2="33.2"/>
<line class="st17" x1="40.1" y1="50.8" x2="40.4" y2="49.3"/>
<line class="st18" x1="48.1" y1="38.5" x2="49.8" y2="37.5"/>
<line class="st18" x1="34.2" y1="46.5" x2="35.9" y2="45.5"/>
<line class="st18" x1="42" y1="35" x2="42" y2="33"/>
<line class="st18" x1="42" y1="51" x2="42" y2="49"/>
<line class="st18" x1="35.9" y1="38.5" x2="34.2" y2="37.5"/>
<line class="st18" x1="49.8" y1="46.5" x2="48.1" y2="45.5"/>
<text transform="matrix(1 0 0 1 40.33 38.1418)" class="st15 st19">30</text>
<text transform="matrix(1 0 0 1 36.03 45.3418)" class="st15 st19">20</text>
<text transform="matrix(1 0 0 1 44.93 45.3418)" class="st15 st19">10</text>
<line class="st20" x1="42" y1="34.1" x2="42" y2="44"/>
<circle class="st21" cx="42" cy="42" r="1"/>
<line id="arm" class="st22" x1="42" y1="24.2" x2="42" y2="60.2"/>
<circle id="center" class="st21" cx="42" cy="55" r="2"/>
<path id="center-dot" d="M43,55c0,0.6-0.4,1-1,1s-1-0.4-1-1s0.4-1,1-1C42.5,54,43,54.4,43,55L43,55z"/>
</svg>
