<svg xmlns="http://www.w3.org/2000/svg" xmlns:xlink="http://www.w3.org/1999/xlink" viewBox="0 0 84 98">
	 viewBox="0 0 84 98" style="enable-background:new 0 0 84 98;" xml:space="preserve">
	<filter id="swshadow"><feDropShadow dx="-1" dy="1" stdDeviation="2"/></filter>
<style type="text/css">
	.st0{fill:#CCCCCC;}
	.st1{fill:url(#path6078_1_);}
	.st2{fill:#666666;}
	.st3{fill:url(#path6076_1_);}
	.st4{fill:url(#path6034_1_);}
	.st5{opacity:0.3;fill:url(#path6932_1_);}
	.st6{fill:url(#path6005_1_);}
	.st7{fill:url(#path6062_1_);}
	.st8{fill:url(#path6060_1_);}
	.st9,.st11{fill:none;stroke:#636769;}
	.st10{fill:none;stroke:#000000;stroke-width:4;filter:url(#swshadow);}
	.st12{fill:url(#dial_1_);}
	.st13{font-family:'Arial';}
	.st14{font-size:3px;}
	.st15{font-size:5px;}
	.st16{fill:none;stroke:#C80000;stroke-width:0.5;}
	.st17{fill:#C80000;}
	.st18{fill:none;stroke:#C80000;transform-origin:42px 55px;animation:spin 60s infinite linear;}
	@keyframes spin{0%{transform:rotate(0deg)}100%{transform:rotate(360deg)}}
</style>
<path id="path6072" class="st0" d="M3.7,25.2c0.4,0.4,1.9-0.6,3.4-2.2s2.4-3.2,2-3.5s-1.9,0.6-3.4,2.2S3.3,24.9,3.7,25.2z"/>
<linearGradient id="path6078_1_" gradientUnits="userSpaceOnUse" x1="13.2576" y1="-676.2565" x2="8.7676" y2="-680.8665" gradientTransform="matrix(1 0 0 -1 -1.56 -655.9268)">
	<stop  offset="0" style="stop-color:#000000"/>
	<stop  offset="0.12" style="stop-color:#FFFFFF"/>
	<stop  offset="0.41" style="stop-color:#666666"/>
	<stop  offset="0.65" style="stop-color:#CCCCCC"/>
	<stop  offset="0.82" style="stop-color:#333333"/>
	<stop  offset="1" style="stop-color:#000000"/>
</linearGradient>
<path id="path6078" class="st1" d="M5.9,21.9c1.5-1.6,3-2.6,3.4-2.2l3.7,3.5c-0.4-0.4-1.9,0.6-3.4,2.2s-2.4,3.2-2,3.5l-3.7-3.5
	C3.5,25,4.4,23.5,5.9,21.9z"/>
<path id="path6074" class="st2" d="M7.6,29c0.4,0.3,1.9-0.7,3.4-2.3s2.4-3.2,2-3.5s-1.9,0.6-3.4,2.2S7.2,28.6,7.6,29z"/>
<linearGradient id="path6076_1_" gradientUnits="userSpaceOnUse" x1="17.1519" y1="-680.0494" x2="12.6619" y2="-684.6594" gradientTransform="matrix(1 0 0 -1 -1.56 -655.9268)">
	<stop  offset="0" style="stop-color:#000000"/>
	<stop  offset="0.12" style="stop-color:#FFFFFF"/>
	<stop  offset="0.41" style="stop-color:#666666"/>
	<stop  offset="0.65" style="stop-color:#CCCCCC"/>
	<stop  offset="0.82" style="stop-color:#333333"/>
	<stop  offset="1" style="stop-color:#000000"/>
</linearGradient>
<path id="path6076" class="st3" d="M9.9,25.7c1.2-1.3,2.4-2.1,2.6-1.9l3.5,3.3c0.2,0.2-0.5,1.4-1.8,2.7s-2.4,2.1-2.6,1.9l-3.5-3.3
	C7.9,28.2,8.7,26.9,9.9,25.7z"/>
<path id="path6044" class="st0" d="M47.5,1.7C47.5,2.4,45,3,42,3s-5.5-0.6-5.5-1.3S39,0.4,42,0.4S47.5,1,47.5,1.7z"/>
<linearGradient id="path6034_1_" gradientUnits="userSpaceOnUse" x1="-62.6404" y1="-814.3804" x2="-53.0304" y2="-814.3804" gradientTransform="matrix(1.14 0 0 -0.88 107.9101 -711.7429)">
	<stop  offset="0" style="stop-color:#000000"/>
	<stop  offset="0.13" style="stop-color:#FFFFFF"/>
	<stop  offset="0.41" style="stop-color:#666666"/>
	<stop  offset="0.65" style="stop-color:#CCCCCC"/>
	<stop  offset="0.82" style="stop-color:#333333"/>
	<stop  offset="1" style="stop-color:#000000"/>
</linearGradient>
<path id="path6034" class="st4" d="M42,0.7c-3,0-5.5,0.6-5.5,1.3v7.1c0-0.7,2.5-1.3,5.5-1.3s5.5,0.6,5.5,1.3v-7
	C47.5,1.3,45,0.7,42,0.7z"/>
<linearGradient id="path6932_1_" gradientUnits="userSpaceOnUse" x1="-62.6404" y1="-814.3804" x2="-62.1604" y2="-814.3804" gradientTransform="matrix(1.14 0 0 -0.88 107.9101 -711.7429)">
	<stop  offset="0" style="stop-color:#000000"/>
	<stop  offset="1" style="stop-color:#FFFFFF"/>
</linearGradient>
<path id="path6932" class="st5" d="M42,0.7c-3,0-5.5,0.6-5.5,1.3v7.1c0-0.7,2.5-1.3,5.5-1.3s5.5,0.6,5.5,1.3v-7
	C47.5,1.3,45,0.7,42,0.7z"/>
<path id="path6032" class="st2" d="M47.5,9.2c0,0.7-2.5,1.3-5.5,1.3s-5.5-0.6-5.5-1.3S39,7.9,42,7.9S47.5,8.5,47.5,9.2z"/>
<linearGradient id="path6005_1_" gradientUnits="userSpaceOnUse" x1="12.4955" y1="-703.4872" x2="20.9855" y2="-703.4872" gradientTransform="matrix(1.03 0 0 -0.97 24.695 -669.8708)">
	<stop  offset="0" style="stop-color:#000000"/>
	<stop  offset="0.13" style="stop-color:#FFFFFF"/>
	<stop  offset="0.41" style="stop-color:#666666"/>
	<stop  offset="0.65" style="stop-color:#CCCCCC"/>
	<stop  offset="0.82" style="stop-color:#333333"/>
	<stop  offset="1" style="stop-color:#000000"/>
</linearGradient>
<path id="path6005" class="st6" d="M42,8.4c-2.4,0-4.4,0.4-4.4,0.8v6.6c0,0.5,2,0.8,4.4,0.8s4.4-0.4,4.4-0.8V9.2
	C46.4,8.7,44.4,8.4,42,8.4z"/>
<path id="path6056" class="st0" d="M80.3,25.2c-0.4,0.4-1.9-0.6-3.4-2.2s-2.4-3.2-2-3.5s1.9,0.6,3.4,2.2S80.7,24.9,80.3,25.2z"/>
<linearGradient id="path6062_1_" gradientUnits="userSpaceOnUse" x1="73.9143" y1="-676.4678" x2="78.4143" y2="-680.9378" gradientTransform="matrix(1 0 0 -1 -1.56 -655.9268)">
	<stop  offset="0" style="stop-color:#000000"/>
	<stop  offset="0.13" style="stop-color:#FFFFFF"/>
	<stop  offset="0.41" style="stop-color:#666666"/>
	<stop  offset="0.65" style="stop-color:#CCCCCC"/>
	<stop  offset="0.82" style="stop-color:#333333"/>
	<stop  offset="1" style="stop-color:#000000"/>
</linearGradient>
<path id="path6062" class="st7" d="M78.1,21.9c-1.5-1.6-3-2.6-3.4-2.2L71,23.2c0.4-0.4,1.9,0.6,3.4,2.2s2.4,3.2,2,3.5l3.7-3.5
	C80.5,25,79.6,23.5,78.1,21.9z"/>
<path id="path6058" class="st2" d="M76.4,29c-0.4,0.4-1.9-0.6-3.4-2.2s-2.4-3.2-2-3.5s1.9,0.6,3.4,2.2S76.7,28.6,76.4,29z"/>
<linearGradient id="path6060_1_" gradientUnits="userSpaceOnUse" x1="70.1327" y1="-680.2747" x2="74.6327" y2="-684.7448" gradientTransform="matrix(1 0 0 -1 -1.56 -655.9268)">
	<stop  offset="0" style="stop-color:#000000"/>
	<stop  offset="0.13" style="stop-color:#FFFFFF"/>
	<stop  offset="0.41" style="stop-color:#666666"/>
	<stop  offset="0.65" style="stop-color:#CCCCCC"/>
	<stop  offset="0.82" style="stop-color:#333333"/>
	<stop  offset="1" style="stop-color:#000000"/>
</linearGradient>
<path id="path6060" class="st8" d="M74.1,25.7c-1.2-1.3-2.4-2.1-2.6-1.9L68,27c-0.2,0.2,0.5,1.4,1.8,2.7s2.4,2.1,2.6,1.9l3.5-3.3
	C76.1,28.2,75.3,26.9,74.1,25.7z"/>
<radialGradient id="dial_1_" cx="70.5745" cy="-749.0578" r="37.6738" gradientTransform="matrix(0.94 0 0 -0.94 -24.34 -649.3649)" gradientUnits="userSpaceOnUse">
	<stop  offset="0" style="stop-color:#FFFFFF"/>
	<stop  offset="0.5" style="stop-color:#FFFFFF"/>
	<stop  offset="1" style="stop-color:#DAD8C3"/>
</radialGradient>
<path id="dial" class="st12" d="M77.4,55c0,19.6-15.9,35.4-35.4,35.4S6.6,74.6,6.6,55S22.4,19.6,42,19.6c19.5,0,35.4,15.8,35.4,35.3
	C77.4,54.9,77.4,55,77.4,55z"/>
<path id="body-inner_1_" class="st9" d="M81,55c0,21.5-17.5,39-39,39S3,76.5,3,55s17.5-39,39-39c21.5,0,38.9,17.4,39,38.9
	C81,54.9,81,55,81,55z"/>
<path id="body-outer" class="st10" d="M78.9,55c0,20.4-16.5,36.9-36.9,36.9S5.1,75.4,5.1,55S21.6,18.1,42,18.1S78.9,34.6,78.9,55z"
	/>
<path id="body-inner" class="st11" d="M77.4,55c0,19.6-15.9,35.4-35.4,35.4S6.6,74.6,6.6,55S22.4,19.6,42,19.6
	C61.5,19.5,77.4,35.4,77.4,55C77.4,54.9,77.4,55,77.4,55z"/>
<rect id="rect6952" x="41.9" y="20.8" width="0.3" height="5.3"/>
<rect id="rect6954" x="26" y="25" transform="matrix(0.866 -0.5 0.5 0.866 -10.3329 16.7765)" width="0.3" height="5.3"/>
<rect id="rect6956" x="14.4" y="36.6" transform="matrix(0.5 -0.866 0.866 0.5 -26.7532 32.2424)" width="0.3" height="5.3"/>
<rect id="rect6958" x="7.7" y="55" width="5.3" height="0.3"/>
<rect id="rect6960" x="11.9" y="70.8" transform="matrix(0.866 -0.5 0.5 0.866 -33.5336 16.7881)" width="5.3" height="0.3"/>
<rect id="rect6962" x="23.5" y="82.4" transform="matrix(0.5 -0.866 0.866 0.5 -58.4149 63.949)" width="5.3" height="0.3"/>
<rect id="rect6964" x="41.9" y="84.1" width="0.3" height="5.3"/>
<rect id="rect6966" x="57.7" y="79.9" transform="matrix(0.866 -0.5 0.5 0.866 -33.5219 39.9888)" width="0.3" height="5.3"/>
<rect id="rect6968" x="69.3" y="68.3" transform="matrix(0.5 -0.866 0.866 0.5 -26.7082 95.6107)" width="0.3" height="5.3"/>
<rect id="rect6970" x="71" y="55" width="5.3" height="0.3"/>
<rect id="rect6972" x="66.8" y="39.1" transform="matrix(0.866 -0.5 0.5 0.866 -10.3212 39.9772)" width="5.3" height="0.3"/>
<rect id="rect6974" x="55.2" y="27.5" transform="matrix(0.5 -0.866 0.866 0.5 4.9534 63.904)" width="5.3" height="0.3"/>
<rect id="rect6978" x="38.4" y="21" transform="matrix(0.9945 -0.1045 0.1045 0.9945 -2.1226 4.1464)" width="0.2" height="2.6"/>
<rect id="rect6980" x="35" y="21.5" transform="matrix(0.9781 -0.2079 0.2079 0.9781 -3.9773 7.7954)" width="0.2" height="2.6"/>
<rect id="rect6982" x="31.7" y="22.4" transform="matrix(0.9511 -0.309 0.309 0.9511 -5.7742 10.9848)" width="0.2" height="2.6"/>
<rect id="rect6984" x="28.5" y="23.7" transform="matrix(0.9135 -0.4067 0.4067 0.9135 -7.6948 13.7972)" width="0.2" height="2.6"/>
<rect id="rect6986" x="22.5" y="27.1" transform="matrix(0.809 -0.5878 0.5878 0.809 -12.3948 18.7046)" width="0.2" height="2.6"/>
<rect id="rect6988" x="19.8" y="29.3" transform="matrix(0.7431 -0.6691 0.6691 0.7431 -15.3815 21.1917)" width="0.2" height="2.6"/>
<rect id="rect6990" x="17.4" y="31.7" transform="matrix(0.6691 -0.7431 0.7431 0.6691 -18.7556 23.9091)" width="0.2" height="2.6"/>
<rect id="rect6992" x="15.2" y="34.4" transform="matrix(0.5878 -0.809 0.809 0.5878 -22.5993 27.1023)" width="0.2" height="2.6"/>
<rect id="rect6994" x="11.8" y="40.4" transform="matrix(0.4067 -0.9135 0.9135 0.4067 -31.0144 35.5877)" width="0.2" height="2.6"/>
<rect id="rect6996" x="10.5" y="43.6" transform="matrix(0.309 -0.9511 0.9511 0.309 -35.4087 41.1414)" width="0.2" height="2.6"/>
<rect id="rect6998" x="9.6" y="47" transform="matrix(0.2079 -0.9781 0.9781 0.2079 -39.5556 47.7199)" width="0.2" height="2.6"/>
<rect id="rect7000" x="9" y="50.4" transform="matrix(0.1045 -0.9945 0.9945 0.1045 -43.1939 55.3476)" width="0.2" height="2.6"/>
<rect id="rect7002" x="7.6" y="58.2" transform="matrix(0.9949 -0.1005 0.1005 0.9949 -5.8122 1.1888)" width="2.6" height="0.2"/>
<rect id="rect7004" x="8.4" y="61.8" transform="matrix(0.9781 -0.2079 0.2079 0.9781 -12.6632 3.3678)" width="2.6" height="0.2"/>
<rect id="rect7006" x="9.3" y="65.2" transform="matrix(0.9511 -0.309 0.309 0.9511 -19.6669 6.4736)" width="2.6" height="0.2"/>
<rect id="rect7008" x="10.6" y="68.4" transform="matrix(0.9135 -0.4067 0.4067 0.9135 -26.8326 10.7608)" width="2.6" height="0.2"/>
<rect id="rect7014" x="14" y="74.4" transform="matrix(0.809 -0.5878 0.5878 0.809 -40.8776 23.2331)" width="2.6" height="0.2"/>
<rect id="rect7016" x="16.2" y="77.1" transform="matrix(0.7431 -0.6691 0.6691 0.7431 -47.1568 31.5475)" width="2.6" height="0.2"/>
<rect id="rect7018" x="18.6" y="79.5" transform="matrix(0.6691 -0.7431 0.7431 0.6691 -52.5917 41.13)" width="2.6" height="0.2"/>
<rect id="rect7020" x="21.3" y="81.7" transform="matrix(0.5878 -0.809 0.809 0.5878 -56.8645 52.0311)" width="2.6" height="0.2"/>
<rect id="rect7022" x="27.3" y="85.1" transform="matrix(0.4067 -0.9135 0.9135 0.4067 -60.9049 76.6397)" width="2.6" height="0.2"/>
<rect id="rect7024" x="30.5" y="86.4" transform="matrix(0.309 -0.9511 0.9511 0.309 -60.2677 90.0424)" width="2.6" height="0.2"/>
<rect id="rect7026" x="33.9" y="87.3" transform="matrix(0.2079 -0.9781 0.9781 0.2079 -57.6698 103.6392)" width="2.6" height="0.2"/>
<rect id="rect7028" x="37.2" y="87.9" transform="matrix(0.1045 -0.9945 0.9945 0.1045 -52.9709 117.1022)" width="2.6" height="0.2"/>
<rect id="rect7030" x="45.3" y="86.6" transform="matrix(0.9945 -0.1045 0.1045 0.9945 -8.9407 5.2278)" width="0.2" height="2.6"/>
<rect id="rect7032" x="48.7" y="86" transform="matrix(0.9781 -0.2079 0.2079 0.9781 -17.0895 12.0494)" width="0.2" height="2.6"/>
<rect id="rect7034" x="52.1" y="85.2" transform="matrix(0.9511 -0.309 0.309 0.9511 -24.1767 20.3691)" width="0.2" height="2.6"/>
<rect id="rect7036" x="55.3" y="83.9" transform="matrix(0.9135 -0.4067 0.4067 0.9135 -29.8764 29.892)" width="0.2" height="2.6"/>
<rect id="rect7038" x="61.3" y="80.5" transform="matrix(0.809 -0.5878 0.5878 0.809 -36.355 51.7178)" width="0.2" height="2.6"/>
<rect id="rect7040" x="64" y="78.3" transform="matrix(0.7431 -0.6691 0.6691 0.7431 -36.7972 63.3195)" width="0.2" height="2.6"/>
<rect id="rect7042" x="66.4" y="75.9" transform="matrix(0.6691 -0.7431 0.7431 0.6691 -35.3699 74.9813)" width="0.2" height="2.6"/>
<rect id="rect7044" x="68.6" y="73.2" transform="matrix(0.5878 -0.809 0.809 0.5878 -31.9513 86.29)" width="0.2" height="2.6"/>
<rect id="rect7046" x="72" y="67.3" transform="matrix(0.4067 -0.9135 0.9135 0.4067 -19.847 106.5393)" width="0.2" height="2.6"/>
<rect id="rect7048" x="73.3" y="64" transform="matrix(0.309 -0.9511 0.9511 0.309 -11.3667 114.9014)" width="0.2" height="2.6"/>
<rect id="rect7050" x="74.4" y="60.6" transform="matrix(0.2095 -0.9778 0.9778 0.2095 -1.6732 121.7564)" width="0.2" height="2.6"/>
<rect id="rect7052" x="74.6" y="57.3" transform="matrix(0.1045 -0.9945 0.9945 0.1045 8.7053 126.7689)" width="0.2" height="2.6"/>
<rect id="rect7054" x="73.5" y="51.5" transform="matrix(0.9945 -0.1045 0.1045 0.9945 -4.985 8.1005)" width="2.6" height="0.2"/>
<rect id="rect7056" x="72.9" y="48.1" transform="matrix(0.9781 -0.2079 0.2079 0.9781 -8.4064 16.4818)" width="2.6" height="0.2"/>
<rect id="rect7058" x="72.1" y="44.8" transform="matrix(0.9511 -0.309 0.309 0.9511 -10.2812 24.879)" width="2.6" height="0.2"/>
<rect id="rect7060" x="70.8" y="41.6" transform="matrix(0.9135 -0.4067 0.4067 0.9135 -10.7353 32.9358)" width="2.6" height="0.2"/>
<rect id="rect7062" x="67.4" y="35.6" transform="matrix(0.809 -0.5878 0.5878 0.809 -7.8644 47.1933)" width="2.6" height="0.2"/>
<rect id="rect7064" x="65.2" y="32.9" transform="matrix(0.7431 -0.6691 0.6691 0.7431 -5.026 52.9729)" width="2.6" height="0.2"/>
<rect id="rect7066" x="62.8" y="30.5" transform="matrix(0.6691 -0.7431 0.7431 0.6691 -1.5187 57.7596)" width="2.6" height="0.2"/>
<rect id="rect7068" x="60.1" y="28.3" transform="matrix(0.5878 -0.809 0.809 0.5878 2.3125 61.3701)" width="2.6" height="0.2"/>
<rect id="rect7070" x="54.1" y="24.9" transform="matrix(0.4067 -0.9135 0.9135 0.4067 10.0435 65.4874)" width="2.6" height="0.2"/>
<rect id="rect7072" x="50.9" y="23.6" transform="matrix(0.309 -0.9511 0.9511 0.309 13.4828 66.0073)" width="2.6" height="0.2"/>
<rect id="rect7074" x="47.5" y="22.8" transform="matrix(0.2079 -0.9781 0.9781 0.2079 16.2646 65.8882)" width="2.6" height="0.2"/>
<rect id="rect7076" x="44.2" y="22.3" transform="matrix(0.1045 -0.9945 0.9945 0.1045 18.4672 65.2237)" width="2.6" height="0.2"/>
<path id="path7487-27" d="M40.5,34.6l-0.2,0L40,33.2l0.2,0L40.5,34.6z"/>
<path id="path7487-27_1_" d="M43.5,49.4l0.2,0l0.3,1.5l-0.2,0L43.5,49.4z"/>
<path id="path7487-27_7_" d="M39,35.1l-0.2,0.1l-0.6-1.4l0.2-0.1L39,35.1z"/>
<path id="path7487-27_6_" d="M45,48.9l0.2-0.1l0.6,1.4l-0.2,0.1L45,48.9z"/>
<path id="path7487-27_9_" d="M37.7,35.9L37.5,36l-0.9-1.2l0.2-0.1L37.7,35.9z"/>
<path id="path7487-27_8_" d="M46.3,48.1l0.2-0.1l0.9,1.2l-0.2,0.1L46.3,48.1z"/>
<path id="path7487-27_11_" d="M36.5,36.9l-0.1,0.1l-1.1-1l0.1-0.1L36.5,36.9z"/>
<path id="path7487-27_10_" d="M47.5,47.1l0.1-0.1l1.1,1l-0.1,0.1L47.5,47.1z"/>
<path id="path7487-27_19_" d="M43.8,33.2l0.2,0l-0.3,1.5l-0.2,0L43.8,33.2z"/>
<path id="path7487-27_18_" d="M40.2,50.8l-0.2,0l0.3-1.5l0.2,0L40.2,50.8z"/>
<path id="path7487-27_17_" d="M45.6,33.7l0.2,0.1l-0.6,1.4L45,35.1L45.6,33.7z"/>
<path id="path7487-27_16_" d="M38.4,50.3l-0.2-0.1l0.6-1.4l0.2,0.1L38.4,50.3z"/>
<path id="path7487-27_15_" d="M47.2,34.7l0.2,0.1L46.5,36l-0.2-0.1L47.2,34.7z"/>
<path id="path7487-27_14_" d="M36.8,49.3l-0.2-0.1l0.9-1.2l0.2,0.1L36.8,49.3z"/>
<path id="path7487-27_13_" d="M48.6,35.9l0.1,0.1l-1.1,1l-0.1-0.1L48.6,35.9z"/>
<path id="path7487-27_12_" d="M35.4,48.1l-0.1-0.1l1.1-1l0.1,0.1L35.4,48.1z"/>
<path id="path7487-27_27_" d="M50.5,39.1l0.1,0.2l-1.4,0.5l-0.1-0.2L50.5,39.1z"/>
<path id="path7487-27_26_" d="M33.5,44.9l-0.1-0.2l1.4-0.5l0.1,0.2L33.5,44.9z"/>
<path id="path7487-27_25_" d="M50.9,41l0,0.2l-1.5,0.2l0-0.2L50.9,41z"/>
<path id="path7487-27_24_" d="M33.1,43l0-0.2l1.5-0.2l0,0.2L33.1,43z"/>
<path id="path7487-27_23_" d="M51,42.8l0,0.2l-1.5-0.2l0-0.2L51,42.8z"/>
<path id="path7487-27_22_" d="M33,41.2l0-0.2l1.5,0.2l0,0.2L33,41.2z"/>
<path id="path7487-27_21_" d="M50.6,44.7l-0.1,0.2l-1.4-0.5l0.1-0.2L50.6,44.7z"/>
<path id="path7487-27_20_" d="M33.4,39.3l0.1-0.2l1.4,0.5l-0.1,0.2L33.4,39.3z"/>
<path id="path7487-27_3_" d="M36,38.4l-0.1,0.3l-1.7-1l0.1-0.3L36,38.4z"/>
<path id="path7487-27_2_" d="M48,45.6l0.1-0.3l1.7,1l-0.1,0.3L48,45.6z"/>
<path id="path7487-27_29_" d="M42.1,35h-0.3v-2h0.3V35z"/>
<path id="path7487-27_28_" d="M41.8,49h0.3v2h-0.3V49z"/>
<path id="path7487-27_5_" d="M35.9,45.4l0.1,0.3l-1.7,1l-0.1-0.3L35.9,45.4z"/>
<path id="path7487-27_4_" d="M48.1,38.6L48,38.4l1.7-1l0.1,0.3L48.1,38.6z"/>
<text transform="matrix(1 0 0 1 40.33 38.1418)" class="st13 st14">30</text>
<text transform="matrix(1 0 0 1 36.03 45.3418)" class="st13 st14">20</text>
<text transform="matrix(1 0 0 1 44.93 45.3418)" class="st13 st14">10</text>
<text transform="matrix(1 0 0 1 39.22 30.5918)" class="st13 st15">60</text>
<text transform="matrix(1 0 0 1 17 44.5518)" class="st13 st15">50</text>
<text transform="matrix(1 0 0 1 17 69.5518)" class="st13 st15">40</text>
<text transform="matrix(1 0 0 1 39.22 83.5518)" class="st13 st15">30</text>
<text transform="matrix(1 0 0 1 61.44 69.9718)" class="st13 st15">20</text>
<text transform="matrix(1 0 0 1 61.44 44.5518)" class="st13 st15">10</text>
<line class="st16" x1="42" y1="34.1" x2="42" y2="44"/>
<circle class="st17" cx="42" cy="42" r="1"/>
<line id="arm" class="st18" x1="42" y1="24.2" x2="42" y2="60.2"/>
<circle id="center" class="st17" cx="42" cy="55" r="2"/>
<path id="center-dot" d="M43,55c0,0.6-0.4,1-1,1c-0.6,0-1-0.4-1-1c0-0.6,0.4-1,1-1c0.5,0,1,0.4,1,0.9C43,54.9,43,55,43,55z"/>
</svg>
