<svg version="1.1" id="Layer_1" xmlns="http://www.w3.org/2000/svg" xmlns:xlink="http://www.w3.org/1999/xlink" x="0px" y="0px"
	 viewBox="0 0 84 98" style="enable-background:new 0 0 84 98;" xml:space="preserve">
<filter id="swshadow"><feDropShadow dx="-1" dy="1" stdDeviation="2"/></filter>
<style type="text/css">
	.st0{fill:#CCCCCC;}
	.st1{fill:url(#path6078_1_);}
	.st2{fill:#666666;}
	.st3{fill:url(#path6076_1_);}
	.st4{fill:url(#path6034_1_);}
	.st5{opacity:0.3;fill:url(#path6932_1_);enable-background:new    ;}
	.st6{fill:url(#path6005_1_);}
	.st7{fill:url(#path6062_1_);}
	.st8{fill:url(#path6060_1_);}
	.st9{fill:url(#dial_1_);}
	.st10{fill:none;stroke:#636769;}
	.st11{fill:none;stroke:#000000;stroke-width:4;filter:url(#swshadow);}
	.st12{font-family:'Arial';}
	.st13{font-size:5px;}
	.st14{fill:none;stroke:#000000;stroke-width:0.15;stroke-miterlimit:10;}
	.st15{fill:none;stroke:#000000;stroke-width:0.3;stroke-miterlimit:10;}
	.st16{font-size:3px;}
	.st17{fill:none;stroke:#C80000;stroke-width:0.5;}
	.st18{fill:#C80000;}
	.st19{fill:none;stroke:#C80000;transform-origin:42px 55px;animation:spin 60s infinite linear;}
	@keyframes spin{0%{transform:rotate(0deg)}100%{transform:rotate(360deg)}}
</style>
<path id="path6072" class="st0" d="M3.7,25.2c0.4,0.4,1.9-0.6,3.4-2.2s2.4-3.2,2-3.5s-1.9,0.6-3.4,2.2S3.3,24.9,3.7,25.2z"/>
<linearGradient id="path6078_1_" gradientUnits="userSpaceOnUse" x1="13.2517" y1="1518.1405" x2="8.7617" y2="1522.7505" gradientTransform="matrix(1 0 0 1 -1.56 -1497.8167)">
	<stop  offset="0" style="stop-color:#000000"/>
	<stop  offset="0.12" style="stop-color:#FFFFFF"/>
	<stop  offset="0.41" style="stop-color:#666666"/>
	<stop  offset="0.65" style="stop-color:#CCCCCC"/>
	<stop  offset="0.82" style="stop-color:#333333"/>
	<stop  offset="1" style="stop-color:#000000"/>
</linearGradient>
<path id="path6078" class="st1" d="M5.9,21.9c1.5-1.6,3-2.6,3.4-2.2l3.7,3.5c-0.4-0.4-1.9,0.6-3.4,2.2s-2.4,3.2-2,3.5l-3.7-3.5
	C3.5,25,4.4,23.5,5.9,21.9z"/>
<path id="path6074" class="st2" d="M7.6,29c0.4,0.3,1.9-0.7,3.4-2.3s2.4-3.2,2-3.5s-1.9,0.6-3.4,2.2S7.2,28.6,7.6,29z"/>
<linearGradient id="path6076_1_" gradientUnits="userSpaceOnUse" x1="17.146" y1="1521.9333" x2="12.656" y2="1526.5435" gradientTransform="matrix(1 0 0 1 -1.56 -1497.8167)">
	<stop  offset="0" style="stop-color:#000000"/>
	<stop  offset="0.12" style="stop-color:#FFFFFF"/>
	<stop  offset="0.41" style="stop-color:#666666"/>
	<stop  offset="0.65" style="stop-color:#CCCCCC"/>
	<stop  offset="0.82" style="stop-color:#333333"/>
	<stop  offset="1" style="stop-color:#000000"/>
</linearGradient>
<path id="path6076" class="st3" d="M9.9,25.7c1.2-1.3,2.4-2.1,2.6-1.9l3.5,3.3c0.2,0.2-0.5,1.4-1.8,2.7s-2.4,2.1-2.6,1.9l-3.5-3.3
	C7.9,28.2,8.7,26.9,9.9,25.7z"/>
<path id="path6044" class="st0" d="M47.5,1.7C47.5,2.4,45,3,42,3s-5.5-0.6-5.5-1.3S39,0.4,42,0.4S47.5,1,47.5,1.7z"/>
<linearGradient id="path6034_1_" gradientUnits="userSpaceOnUse" x1="-93.9562" y1="1706.984" x2="-84.3462" y2="1706.984" gradientTransform="matrix(1.14 0 0 0.88 143.6101 -1497.246)">
	<stop  offset="0" style="stop-color:#000000"/>
	<stop  offset="0.13" style="stop-color:#FFFFFF"/>
	<stop  offset="0.41" style="stop-color:#666666"/>
	<stop  offset="0.65" style="stop-color:#CCCCCC"/>
	<stop  offset="0.82" style="stop-color:#333333"/>
	<stop  offset="1" style="stop-color:#000000"/>
</linearGradient>
<path id="path6034" class="st4" d="M42,0.7c-3,0-5.5,0.6-5.5,1.3v7.1c0-0.7,2.5-1.3,5.5-1.3s5.5,0.6,5.5,1.3v-7
	C47.5,1.3,45,0.7,42,0.7z"/>
<linearGradient id="path6932_1_" gradientUnits="userSpaceOnUse" x1="-93.9562" y1="1706.984" x2="-93.4762" y2="1706.984" gradientTransform="matrix(1.14 0 0 0.88 143.6101 -1497.246)">
	<stop  offset="0" style="stop-color:#000000"/>
	<stop  offset="1" style="stop-color:#FFFFFF"/>
</linearGradient>
<path id="path6932" class="st5" d="M42,0.7c-3,0-5.5,0.6-5.5,1.3v7.1c0-0.7,2.5-1.3,5.5-1.3s5.5,0.6,5.5,1.3v-7
	C47.5,1.3,45,0.7,42,0.7z"/>
<path id="path6032" class="st2" d="M47.5,9.2c0,0.7-2.5,1.3-5.5,1.3s-5.5-0.6-5.5-1.3S39,7.9,42,7.9S47.5,8.5,47.5,9.2z"/>
<linearGradient id="path6005_1_" gradientUnits="userSpaceOnUse" x1="5.0683" y1="1556.8699" x2="13.5583" y2="1556.8699" gradientTransform="matrix(1.03 0 0 0.97 32.345 -1497.6639)">
	<stop  offset="0" style="stop-color:#000000"/>
	<stop  offset="0.13" style="stop-color:#FFFFFF"/>
	<stop  offset="0.41" style="stop-color:#666666"/>
	<stop  offset="0.65" style="stop-color:#CCCCCC"/>
	<stop  offset="0.82" style="stop-color:#333333"/>
	<stop  offset="1" style="stop-color:#000000"/>
</linearGradient>
<path id="path6005" class="st6" d="M42,8.4c-2.4,0-4.4,0.4-4.4,0.8v6.6c0,0.5,2,0.8,4.4,0.8s4.4-0.4,4.4-0.8V9.2
	C46.4,8.7,44.4,8.4,42,8.4z"/>
<path id="path6056" class="st0" d="M80.3,25.2c-0.4,0.4-1.9-0.6-3.4-2.2s-2.4-3.2-2-3.5s1.9,0.6,3.4,2.2S80.7,24.9,80.3,25.2z"/>
<linearGradient id="path6062_1_" gradientUnits="userSpaceOnUse" x1="73.9202" y1="1518.3517" x2="78.4202" y2="1522.8217" gradientTransform="matrix(1 0 0 1 -1.56 -1497.8167)">
	<stop  offset="0" style="stop-color:#000000"/>
	<stop  offset="0.13" style="stop-color:#FFFFFF"/>
	<stop  offset="0.41" style="stop-color:#666666"/>
	<stop  offset="0.65" style="stop-color:#CCCCCC"/>
	<stop  offset="0.82" style="stop-color:#333333"/>
	<stop  offset="1" style="stop-color:#000000"/>
</linearGradient>
<path id="path6062" class="st7" d="M78.1,21.9c-1.5-1.6-3-2.6-3.4-2.2L71,23.2c0.4-0.4,1.9,0.6,3.4,2.2s2.4,3.2,2,3.5l3.7-3.5
	C80.5,25,79.6,23.5,78.1,21.9z"/>
<path id="path6058" class="st2" d="M76.4,29c-0.4,0.4-1.9-0.6-3.4-2.2s-2.4-3.2-2-3.5s1.9,0.6,3.4,2.2S76.7,28.6,76.4,29z"/>
<linearGradient id="path6060_1_" gradientUnits="userSpaceOnUse" x1="70.1386" y1="1522.1586" x2="74.6386" y2="1526.6287" gradientTransform="matrix(1 0 0 1 -1.56 -1497.8167)">
	<stop  offset="0" style="stop-color:#000000"/>
	<stop  offset="0.13" style="stop-color:#FFFFFF"/>
	<stop  offset="0.41" style="stop-color:#666666"/>
	<stop  offset="0.65" style="stop-color:#CCCCCC"/>
	<stop  offset="0.82" style="stop-color:#333333"/>
	<stop  offset="1" style="stop-color:#000000"/>
</linearGradient>
<path id="path6060" class="st8" d="M74.1,25.7c-1.2-1.3-2.4-2.1-2.6-1.9L68,27c-0.2,0.2,0.5,1.4,1.8,2.7s2.4,2.1,2.6,1.9l3.5-3.3
	C76.1,28.2,75.3,26.9,74.1,25.7z"/>
<radialGradient id="dial_1_" cx="86.8511" cy="1614.6923" r="37.6738" gradientTransform="matrix(0.94 0 0 0.94 -39.64 -1463.0613)" gradientUnits="userSpaceOnUse">
	<stop  offset="0" style="stop-color:#FFFFFF"/>
	<stop  offset="0.5" style="stop-color:#FFFFFF"/>
	<stop  offset="1" style="stop-color:#DAD8C3"/>
</radialGradient>
<path id="dial" class="st9" d="M77.4,55c0,19.6-15.9,35.4-35.4,35.4S6.6,74.6,6.6,55S22.4,19.6,42,19.6C61.5,19.6,77.4,35.4,77.4,55
	L77.4,55z"/>
<path id="body-inner_1_" class="st10" d="M81,55c0,21.5-17.5,39-39,39S3,76.5,3,55s17.5-39,39-39S80.9,33.4,81,55L81,55z"/>
<path id="body-outer" class="st11" d="M78.9,55c0,20.4-16.5,36.9-36.9,36.9S5.1,75.4,5.1,55S21.6,18.1,42,18.1S78.9,34.6,78.9,55z"
	/>
<path id="body-inner" class="st10" d="M77.4,55c0,19.6-15.9,35.4-35.4,35.4S6.6,74.6,6.6,55S22.4,19.6,42,19.6
	C61.5,19.5,77.4,35.4,77.4,55C77.4,54.9,77.4,55,77.4,55z"/>
<rect id="rect6952" x="41.9" y="20.8" width="0.3" height="5.3"/>
<rect id="rect6954" x="26" y="25" transform="matrix(0.866 -0.5 0.5 0.866 -10.3215 16.7734)" width="0.3" height="5.3"/>
<rect id="rect6956" x="14.4" y="36.6" transform="matrix(0.5 -0.866 0.866 0.5 -26.7501 32.201)" width="0.3" height="5.3"/>
<rect id="rect6958" x="7.7" y="55" width="5.3" height="0.3"/>
<rect id="rect6960" x="11.9" y="70.8" transform="matrix(0.866 -0.5 0.5 0.866 -33.5304 16.7777)" width="5.3" height="0.3"/>
<rect id="rect6962" x="23.5" y="82.4" transform="matrix(0.5 -0.866 0.866 0.5 -58.4403 63.9332)" width="5.3" height="0.3"/>
<rect id="rect6964" x="41.9" y="84.1" width="0.3" height="5.3"/>
<rect id="rect6966" x="57.7" y="79.9" transform="matrix(0.866 -0.5 0.5 0.866 -33.526 39.9866)" width="0.3" height="5.3"/>
<rect id="rect6968" x="69.3" y="68.3" transform="matrix(0.5 -0.866 0.866 0.5 -26.7081 95.6235)" width="0.3" height="5.3"/>
<rect id="rect6970" x="71" y="55" width="5.3" height="0.3"/>
<rect id="rect6972" x="66.8" y="39.1" transform="matrix(0.866 -0.5 0.5 0.866 -10.3171 39.9823)" width="5.3" height="0.3"/>
<rect id="rect6974" x="55.2" y="27.5" transform="matrix(0.5 -0.866 0.866 0.5 4.9821 63.8912)" width="5.3" height="0.3"/>
<rect id="rect6978" x="38.4" y="21" transform="matrix(0.9945 -0.1045 0.1045 0.9945 -2.1197 4.145)" width="0.2" height="2.6"/>
<rect id="rect6980" x="35" y="21.5" transform="matrix(0.9781 -0.2079 0.2079 0.9781 -3.9732 7.7946)" width="0.2" height="2.6"/>
<rect id="rect6982" x="31.7" y="22.4" transform="matrix(0.9511 -0.309 0.309 0.9511 -5.7671 10.9837)" width="0.2" height="2.6"/>
<rect id="rect6984" x="28.5" y="23.7" transform="matrix(0.9136 -0.4067 0.4067 0.9136 -7.697 13.7933)" width="0.2" height="2.6"/>
<rect id="rect6986" x="22.5" y="27.1" transform="matrix(0.809 -0.5878 0.5878 0.809 -12.3781 18.6973)" width="0.2" height="2.6"/>
<rect id="rect6988" x="19.8" y="29.3" transform="matrix(0.7431 -0.6691 0.6691 0.7431 -15.3794 21.1667)" width="0.2" height="2.6"/>
<rect id="rect6990" x="17.4" y="31.7" transform="matrix(0.6691 -0.7431 0.7431 0.6691 -18.7304 23.9007)" width="0.2" height="2.6"/>
<rect id="rect6992" x="15.2" y="34.4" transform="matrix(0.5878 -0.809 0.809 0.5878 -22.5923 27.077)" width="0.2" height="2.6"/>
<rect id="rect6994" x="11.8" y="40.4" transform="matrix(0.4067 -0.9136 0.9136 0.4067 -31.0027 35.6136)" width="0.2" height="2.6"/>
<rect id="rect6996" x="10.5" y="43.6" transform="matrix(0.309 -0.9511 0.9511 0.309 -35.4303 41.1036)" width="0.2" height="2.6"/>
<rect id="rect6998" x="9.6" y="47" transform="matrix(0.2079 -0.9781 0.9781 0.2079 -39.5332 47.7285)" width="0.2" height="2.6"/>
<rect id="rect7000" x="9.1" y="50.4" transform="matrix(0.1045 -0.9945 0.9945 0.1045 -43.2031 55.42)" width="0.2" height="2.6"/>
<rect id="rect7002" x="7.6" y="58.2" transform="matrix(0.9949 -0.1005 0.1005 0.9949 -5.814 1.1898)" width="2.6" height="0.2"/>
<rect id="rect7004" x="8.4" y="61.8" transform="matrix(0.9781 -0.2079 0.2079 0.9781 -12.6569 3.3679)" width="2.6" height="0.2"/>
<rect id="rect7006" x="9.3" y="65.2" transform="matrix(0.9511 -0.309 0.309 0.9511 -19.6602 6.4686)" width="2.6" height="0.2"/>
<rect id="rect7008" x="10.6" y="68.4" transform="matrix(0.9136 -0.4067 0.4067 0.9136 -26.8303 10.7601)" width="2.6" height="0.2"/>
<rect id="rect7014" x="14" y="74.4" transform="matrix(0.809 -0.5878 0.5878 0.809 -40.8768 23.2194)" width="2.6" height="0.2"/>
<rect id="rect7016" x="16.2" y="77.1" transform="matrix(0.7431 -0.6691 0.6691 0.7431 -47.1655 31.5422)" width="2.6" height="0.2"/>
<rect id="rect7018" x="18.6" y="79.5" transform="matrix(0.6691 -0.7431 0.7431 0.6691 -52.5803 41.1069)" width="2.6" height="0.2"/>
<rect id="rect7020" x="21.3" y="81.7" transform="matrix(0.5878 -0.809 0.809 0.5878 -56.8866 52.0102)" width="2.6" height="0.2"/>
<rect id="rect7022" x="27.3" y="85.1" transform="matrix(0.4067 -0.9136 0.9136 0.4067 -60.8599 76.6143)" width="2.6" height="0.2"/>
<rect id="rect7024" x="30.5" y="86.4" transform="matrix(0.309 -0.9511 0.9511 0.309 -60.2979 90.0615)" width="2.6" height="0.2"/>
<rect id="rect7026" x="33.8" y="87.3" transform="matrix(0.2079 -0.9781 0.9781 0.2079 -57.6416 103.5797)" width="2.6" height="0.2"/>
<rect id="rect7028" x="37.3" y="87.9" transform="matrix(0.1045 -0.9945 0.9945 0.1045 -52.9902 117.1699)" width="2.6" height="0.2"/>
<rect id="rect7030" x="45.3" y="86.6" transform="matrix(0.9945 -0.1045 0.1045 0.9945 -8.9372 5.2252)" width="0.2" height="2.6"/>
<rect id="rect7032" x="48.7" y="86" transform="matrix(0.9781 -0.2079 0.2079 0.9781 -17.0827 12.0518)" width="0.2" height="2.6"/>
<rect id="rect7034" x="52.1" y="85.2" transform="matrix(0.9511 -0.309 0.309 0.9511 -24.1761 20.3623)" width="0.2" height="2.6"/>
<rect id="rect7036" x="55.3" y="83.9" transform="matrix(0.9136 -0.4067 0.4067 0.9136 -29.8614 29.8899)" width="0.2" height="2.6"/>
<rect id="rect7038" x="61.3" y="80.5" transform="matrix(0.809 -0.5878 0.5878 0.809 -36.357 51.7149)" width="0.2" height="2.6"/>
<rect id="rect7040" x="64" y="78.3" transform="matrix(0.7431 -0.6691 0.6691 0.7431 -36.7868 63.33)" width="0.2" height="2.6"/>
<rect id="rect7042" x="66.4" y="75.9" transform="matrix(0.6691 -0.7431 0.7431 0.6691 -35.385 74.9625)" width="0.2" height="2.6"/>
<rect id="rect7044" x="68.6" y="73.2" transform="matrix(0.5878 -0.809 0.809 0.5878 -31.9547 86.2893)" width="0.2" height="2.6"/>
<rect id="rect7046" x="72" y="67.3" transform="matrix(0.4067 -0.9136 0.9136 0.4067 -19.847 106.5899)" width="0.2" height="2.6"/>
<rect id="rect7048" x="73.3" y="64" transform="matrix(0.309 -0.9511 0.9511 0.309 -11.3399 114.9291)" width="0.2" height="2.6"/>
<rect id="rect7050" x="74.4" y="60.6" transform="matrix(0.2095 -0.9778 0.9778 0.2095 -1.6444 121.7227)" width="0.2" height="2.6"/>
<rect id="rect7052" x="74.7" y="57.3" transform="matrix(0.1045 -0.9945 0.9945 0.1045 8.6909 126.8589)" width="0.2" height="2.6"/>
<rect id="rect7054" x="73.5" y="51.5" transform="matrix(0.9945 -0.1045 0.1045 0.9945 -4.9828 8.0989)" width="2.6" height="0.2"/>
<rect id="rect7056" x="72.9" y="48.1" transform="matrix(0.9781 -0.2079 0.2079 0.9781 -8.4001 16.478)" width="2.6" height="0.2"/>
<rect id="rect7058" x="72.1" y="44.8" transform="matrix(0.9511 -0.309 0.309 0.9511 -10.2825 24.8782)" width="2.6" height="0.2"/>
<rect id="rect7060" x="70.8" y="41.6" transform="matrix(0.9136 -0.4067 0.4067 0.9136 -10.7308 32.925)" width="2.6" height="0.2"/>
<rect id="rect7062" x="67.4" y="35.6" transform="matrix(0.809 -0.5878 0.5878 0.809 -7.8592 47.1983)" width="2.6" height="0.2"/>
<rect id="rect7064" x="65.2" y="32.9" transform="matrix(0.7431 -0.6691 0.6691 0.7431 -5.0079 52.9542)" width="2.6" height="0.2"/>
<rect id="rect7066" x="62.8" y="30.5" transform="matrix(0.6691 -0.7431 0.7431 0.6691 -1.5296 57.7672)" width="2.6" height="0.2"/>
<rect id="rect7068" x="60.1" y="28.3" transform="matrix(0.5878 -0.809 0.809 0.5878 2.3318 61.3586)" width="2.6" height="0.2"/>
<rect id="rect7070" x="54.1" y="24.9" transform="matrix(0.4067 -0.9136 0.9136 0.4067 9.9931 65.4817)" width="2.6" height="0.2"/>
<rect id="rect7072" x="50.9" y="23.6" transform="matrix(0.309 -0.9511 0.9511 0.309 13.5145 65.9669)" width="2.6" height="0.2"/>
<rect id="rect7074" x="47.5" y="22.8" transform="matrix(0.2079 -0.9781 0.9781 0.2079 16.2438 65.895)" width="2.6" height="0.2"/>
<rect id="rect7076" x="44.2" y="22.2" transform="matrix(0.1045 -0.9945 0.9945 0.1045 18.5514 65.2324)" width="2.6" height="0.2"/>
<text transform="matrix(1 0 0 1 39.22 30.5918)" class="st12 st13">60</text>
<text transform="matrix(1 0 0 1 17 44.5518)" class="st12 st13">50</text>
<text transform="matrix(1 0 0 1 17 69.5518)" class="st12 st13">40</text>
<text transform="matrix(1 0 0 1 39.22 83.5518)" class="st12 st13">30</text>
<text transform="matrix(1 0 0 1 61.44 69.9718)" class="st12 st13">20</text>
<text transform="matrix(1 0 0 1 61.44 44.5518)" class="st12 st13">10</text>
<line class="st14" x1="43.6" y1="49.3" x2="43.9" y2="50.8"/>
<line class="st14" x1="40.1" y1="33.2" x2="40.4" y2="34.7"/>
<line class="st14" x1="45.1" y1="48.9" x2="45.7" y2="50.2"/>
<line class="st14" x1="38.3" y1="33.8" x2="38.9" y2="35.1"/>
<line class="st14" x1="46.4" y1="48.1" x2="47.3" y2="49.3"/>
<line class="st14" x1="36.7" y1="34.7" x2="37.6" y2="35.9"/>
<line class="st14" x1="47.6" y1="47" x2="48.7" y2="48"/>
<line class="st14" x1="35.3" y1="36" x2="36.4" y2="37"/>
<line class="st14" x1="49.1" y1="44.3" x2="50.6" y2="44.8"/>
<line class="st14" x1="33.4" y1="39.2" x2="34.9" y2="39.7"/>
<line class="st14" x1="49.5" y1="42.8" x2="51" y2="42.9"/>
<line class="st14" x1="33" y1="41.1" x2="34.5" y2="41.2"/>
<line class="st14" x1="49.5" y1="41.2" x2="51" y2="41.1"/>
<line class="st14" x1="33" y1="42.9" x2="34.5" y2="42.8"/>
<line class="st14" x1="49.1" y1="39.7" x2="50.6" y2="39.2"/>
<line class="st14" x1="33.4" y1="44.8" x2="34.9" y2="44.3"/>
<line class="st14" x1="47.6" y1="37" x2="48.7" y2="36"/>
<line class="st14" x1="35.3" y1="48" x2="36.4" y2="47"/>
<line class="st14" x1="46.4" y1="35.9" x2="47.3" y2="34.7"/>
<line class="st14" x1="36.7" y1="49.3" x2="37.6" y2="48.1"/>
<line class="st14" x1="45.1" y1="35.1" x2="45.7" y2="33.8"/>
<line class="st14" x1="38.3" y1="50.2" x2="38.9" y2="48.9"/>
<line class="st14" x1="43.6" y1="34.7" x2="43.9" y2="33.2"/>
<line class="st14" x1="40.1" y1="50.8" x2="40.4" y2="49.3"/>
<line class="st15" x1="48.1" y1="38.5" x2="49.8" y2="37.5"/>
<line class="st15" x1="34.2" y1="46.5" x2="35.9" y2="45.5"/>
<line class="st15" x1="42" y1="35" x2="42" y2="33"/>
<line class="st15" x1="42" y1="51" x2="42" y2="49"/>
<line class="st15" x1="35.9" y1="38.5" x2="34.2" y2="37.5"/>
<line class="st15" x1="49.8" y1="46.5" x2="48.1" y2="45.5"/>
<text transform="matrix(1 0 0 1 40.33 38.1418)" class="st12 st16">30</text>
<text transform="matrix(1 0 0 1 36.03 45.3418)" class="st12 st16">20</text>
<text transform="matrix(1 0 0 1 44.93 45.3418)" class="st12 st16">10</text>
<line class="st17" x1="42" y1="34.1" x2="42" y2="44"/>
<circle class="st18" cx="42" cy="42" r="1"/>
<line id="arm" class="st19" x1="42" y1="24.2" x2="42" y2="60.2"/>
<circle id="center" class="st18" cx="42" cy="55" r="2"/>
<path id="center-dot" d="M43,55c0,0.6-0.4,1-1,1s-1-0.4-1-1s0.4-1,1-1C42.5,54,43,54.4,43,55L43,55z"/>
</svg>
