<svg xmlns="http://www.w3.org/2000/svg" xmlns:xlink="http://www.w3.org/1999/xlink" viewBox="-3 0 85 100">
<defs>
	<filter id="swshadow"><feDropShadow dx="-1" dy="1" stdDeviation="1"/></filter>
	<style>
	.st-1{fill:#ccc;}
	.st-2{fill:url(#linear-gradient-2);}
	.st-3{fill:#666;}
	.st-4{fill:url(#linear-gradient-2);}
	.st-5{fill:url(#linear-gradient-3);}
	.st-6{opacity:0.3;fill:url(#linear-gradient-4);}
	.st-13,.st-14,.st-6{isolation:isolate;}
	.st-7{fill:url(#linear-gradient-5);}
	.st-8{fill:url(#linear-gradient-7);}
	.st-9{fill:url(#linear-gradient-7);}
	.st-10{stroke:#313435;fill:url(#radial-gradient);filter:url(#swshadow);}
	.st-11{fill:url(#radial-gradient-2);}.st-12{fill:url(#radial-gradient-3);}
	.st-13{font-size:3px;}
	.st-13,.st-14{font-family:Arial;}
	.st-14{font-size:5px;}
	.st-15,.st-17{fill:none;stroke:#c80000;}
	.st-15{stroke-width:0.5px;}
	.st-16{fill:#c80000;}
	.st-17{stroke-width:1px;}
	.st-17{transform-origin:40px 55px;animation:spin 60s infinite linear;}
	@keyframes spin{0%{transform:rotate(0deg)}100%{transform:rotate(360deg)}}
	</style>
	<linearGradient id="linear-gradient" x1="12.22" y1="776.44" x2="6.51" y2="782.01" gradientTransform="translate(-2.6 -759.65) scale(0.99 1.01)" gradientUnits="userSpaceOnUse"><stop offset="0"/><stop offset="0.12" stop-color="#fff"/><stop offset="0.41" stop-color="#666"/><stop offset="0.65" stop-color="#ccc"/><stop offset="0.82" stop-color="#333"/><stop offset="1"/></linearGradient><linearGradient id="linear-gradient-2" x1="14.46" y1="782.19" x2="9.97" y2="786.8" gradientTransform="translate(-1.56 -759.64)" xlink:href="#linear-gradient"/><linearGradient id="linear-gradient-3" x1="-32.45" y1="869.77" x2="-22.84" y2="869.77" gradientTransform="translate(72 -758.72) scale(1.14 0.88)" gradientUnits="userSpaceOnUse"><stop offset="0"/><stop offset="0.13" stop-color="#fff"/><stop offset="0.41" stop-color="#666"/><stop offset="0.65" stop-color="#ccc"/><stop offset="0.82" stop-color="#333"/><stop offset="1"/></linearGradient><linearGradient id="linear-gradient-4" x1="-32.45" y1="869.77" x2="-31.97" y2="869.77" gradientTransform="translate(72 -758.72) scale(1.14 0.88)" gradientUnits="userSpaceOnUse"><stop offset="0"/><stop offset="1" stop-color="#fff"/></linearGradient><linearGradient id="linear-gradient-5" x1="18.51" y1="796.84" x2="27" y2="796.84" gradientTransform="translate(17 -759.4) scale(1.03 0.97)" xlink:href="#linear-gradient-3"/><linearGradient id="linear-gradient-6" x1="74.51" y1="776.29" x2="80.11" y2="782.08" gradientTransform="translate(-2.6 -759.65) scale(0.99 1.01)" xlink:href="#linear-gradient-3"/><linearGradient id="linear-gradient-7" x1="69.96" y1="782.24" x2="74.46" y2="786.71" gradientTransform="translate(-1.56 -759.64)" xlink:href="#linear-gradient-3"/><radialGradient id="radial-gradient" cx="40.47" cy="814.32" r="40" gradientTransform="translate(0.03 -759.62)" gradientUnits="userSpaceOnUse"><stop offset="0" stop-color="gray"/><stop offset="0.92" stop-color="#959595"/><stop offset="0.93" stop-color="#e6e6e6"/><stop offset="0.99" stop-color="#1a1a1a"/><stop offset="1" stop-color="#979797"/></radialGradient><radialGradient id="radial-gradient-2" cx="-177.85" cy="879.31" r="36.5" gradientTransform="translate(-463.13 -700.45) rotate(-45) scale(1 1.01)" gradientUnits="userSpaceOnUse"><stop offset="0" stop-color="#999"/><stop offset="0.96" stop-color="#999"/><stop offset="0.98" stop-color="#666"/><stop offset="1" stop-color="#4d4d4d"/></radialGradient><radialGradient id="radial-gradient-3" cx="52.59" cy="828.9" r="36.69" gradientTransform="translate(-8.95 -724.71) scale(0.94)" gradientUnits="userSpaceOnUse"><stop offset="0" stop-color="#fff"/><stop offset="0.5" stop-color="#fff"/><stop offset="1" stop-color="#dad8c3"/></radialGradient>
</defs>
<path id="path6072" class="st-1" d="M2.2,24.8c.4.4,1.9-.6,3.4-2.2s2.4-3.2,2-3.5-1.9.6-3.4,2.2S1.8,24.5,2.2,24.8Z"/><path id="path6078" class="st-2" d="M4.4,21.5c1.5-1.6,3-2.6,3.4-2.2l3.7,3.5c-.4-.4-1.9.6-3.4,2.2s-2.4,3.2-2,3.5L2.4,25c-.4-.4.5-1.9,2-3.5Z"/><path id="path6074" class="st-3" d="M6.1,28.6c.4.3,1.9-.7,3.4-2.3s2.4-3.2,2-3.5-1.9.6-3.4,2.2S5.7,28.2,6.1,28.6Z"/><path id="path6076" class="st-4" d="M8.4,25.3c1.2-1.3,2.4-2.1,2.6-1.9l3.5,3.3c.2.2-.5,1.4-1.8,2.7s-2.4,2.1-2.6,1.9L6.6,28c-.2-.2.6-1.5,1.8-2.7Z"/>
<path id="path6044" class="st-1" d="M46,1.3c0,.7-2.5,1.3-5.5,1.3S35,2,35,1.3,37.5,0,40.5,0,46,.6,46,1.3Z"/><path id="path6034" class="st-5" d="M40.5.3c-3,0-5.5.6-5.5,1.3V8.7c0-.7,2.5-1.3,5.5-1.3S46,8,46,8.7v-7C46,.9,43.5.3,40.5.3Z"/><path id="path6932" class="st-6" d="M40.5.3c-3,0-5.5.6-5.5,1.3V8.7c0-.7,2.5-1.3,5.5-1.3S46,8,46,8.7v-7C46,.9,43.5.3,40.5.3Z"/><path id="path6032" class="st-3" d="M46,8.8c0,.7-2.5,1.3-5.5,1.3S35,9.5,35,8.8s2.5-1.3,5.5-1.3S46,8.1,46,8.8Z"/><path id="path6005" class="st-7" d="M40.5,8c-2.4,0-4.4.4-4.4.8v6.6c0,.5,2,.8,4.4.8s4.4-.4,4.4-.8V8.8C44.9,8.3,42.9,8,40.5,8Z"/>
<path id="path6056" class="st-1" d="M78.8,24.8c-.4.4-1.9-.6-3.4-2.2s-2.4-3.2-2-3.5,1.9.6,3.4,2.2S79.2,24.5,78.8,24.8Z"/><path id="path6062" class="st-8" d="M76.6,21.5c-1.5-1.6-3-2.6-3.4-2.2l-3.7,3.5c.4-.4,1.9.6,3.4,2.2s2.4,3.2,2,3.5L78.6,25c.4-.4-.5-1.9-2-3.5Z"/><path id="path6058" class="st-3" d="M74.9,28.6c-.4.4-1.9-.6-3.4-2.2s-2.4-3.2-2-3.5,1.9.6,3.4,2.2,2.3,3.1,2,3.5Z"/><path id="path6060" class="st-9" d="M72.6,25.3c-1.2-1.3-2.4-2.1-2.6-1.9l-3.5,3.2c-.2.2.5,1.4,1.8,2.7s2.4,2.1,2.6,1.9l3.5-3.3C74.6,27.8,73.8,26.5,72.6,25.3Z"/>
<path id="body-outer" class="st-10" d="M80.5,54.7a40,40,0,1,1-40-40A40,40,0,0,1,80.5,54.7Z"/><path id="body-inner" class="st-11" d="M77,54.7A36.5,36.5,0,1,1,40.5,18.2,36.45,36.45,0,0,1,77,54.7Z"/><path id="dial" class="st-12" d="M75,54.7A34.5,34.5,0,1,1,40.5,20.2,34.44,34.44,0,0,1,75,54.7Z"/>
<rect id="rect6952" x="40.4" y="20.4" width="0.3" height="5.3"/><rect id="rect6954" x="24.49" y="24.61" width="0.3" height="5.3" transform="translate(-10.33 15.97) rotate(-30)"/><rect id="rect6956" x="12.9" y="36.23" width="0.3" height="5.3" transform="translate(-27.15 30.74) rotate(-60)"/><rect id="rect6958" x="6.2" y="54.6" width="5.3" height="0.3"/><rect id="rect6960" x="10.41" y="70.41" width="5.3" height="0.3" transform="translate(-33.53 15.98) rotate(-30)"/><rect id="rect6962" x="22.03" y="82" width="5.3" height="0.3" transform="translate(-58.81 62.45) rotate(-60)"/><rect id="rect6964" x="40.4" y="83.7" width="0.3" height="5.3"/><rect id="rect6966" x="56.21" y="79.49" width="0.3" height="5.3" transform="translate(-33.52 39.18) rotate(-30)"/><rect id="rect6968" x="67.8" y="67.87" width="0.3" height="5.3" transform="translate(-27.1 94.11) rotate(-60)"/><rect id="rect6970" x="69.5" y="54.6" width="5.3" height="0.3"/><rect id="rect6972" x="65.29" y="38.69" width="5.3" height="0.3" transform="translate(-10.32 39.17) rotate(-30)"/><rect id="rect6974" x="53.67" y="27.1" width="5.3" height="0.3" transform="translate(4.56 62.4) rotate(-60)"/><rect id="rect6978" x="36.9" y="20.61" width="0.2" height="2.6" transform="translate(-2.09 3.99) rotate(-6)"/><rect id="rect6980" x="33.49" y="21.11" width="0.2" height="2.6" transform="translate(-3.92 7.47) rotate(-12)"/><rect id="rect6982" x="30.19" y="22.01" width="0.2" height="2.6" transform="translate(-5.72 10.5) rotate(-18)"/><rect id="rect6984" x="27.01" y="23.29" width="0.2" height="2.6" transform="translate(-7.66 13.15) rotate(-24)"/><rect id="rect6986" x="20.99" y="26.71" width="0.2" height="2.6" transform="translate(-12.44 17.75) rotate(-36)"/><rect id="rect6988" x="18.31" y="28.92" width="0.2" height="2.6" transform="translate(-15.49 20.08) rotate(-42)"/><rect id="rect6990" x="15.87" y="31.3" width="0.2" height="2.6" transform="translate(-18.94 22.66) rotate(-48)"/><rect id="rect6992" x="13.7" y="34.02" width="0.2" height="2.6" transform="translate(-22.89 25.72) rotate(-54)"/><rect id="rect6994" x="10.3" y="39.96" width="0.2" height="2.6" transform="translate(-31.53 33.98) rotate(-66)"/><rect id="rect6996" x="9.02" y="43.23" width="0.2" height="2.6" transform="translate(-36.06 39.44) rotate(-72)"/><rect id="rect6998" x="8.09" y="46.57" width="0.2" height="2.6" transform="translate(-40.34 45.93) rotate(-78)"/><rect id="rect7000" x="7.54" y="49.94" width="0.2" height="2.6" transform="translate(-44.12 53.49) rotate(-84)"/><rect id="rect7002" x="6.39" y="58" width="2.6" height="0.2" transform="matrix(0.99, -0.1, 0.1, 0.99, -6.03, 1.12)"/><rect id="rect7004" x="6.89" y="61.41" width="2.6" height="0.2" transform="translate(-12.61 3.05) rotate(-12)"/><rect id="rect7006" x="7.8" y="64.81" width="2.6" height="0.2" transform="translate(-19.61 5.99) rotate(-18)"/><rect id="rect7008" x="9.09" y="67.99" width="2.6" height="0.2" transform="translate(-26.79 10.11) rotate(-24)"/><rect id="rect7014" x="12.51" y="74.01" width="2.6" height="0.2" transform="translate(-40.92 22.27) rotate(-36)"/><rect id="rect7016" x="14.71" y="76.68" width="2.6" height="0.2" transform="translate(-47.26 30.44) rotate(-42)"/><rect id="rect7018" x="17.1" y="79.12" width="2.6" height="0.2" transform="translate(-52.79 39.88) rotate(-48)"/><rect id="rect7020" x="19.82" y="81.31" width="2.6" height="0.2" transform="translate(-57.15 50.64) rotate(-54)"/><rect id="rect7022" x="25.76" y="84.7" width="2.6" height="0.2" transform="translate(-61.42 75.03) rotate(-66)"/><rect id="rect7024" x="29.04" y="85.98" width="2.6" height="0.2" transform="translate(-60.91 88.34) rotate(-72)"/><rect id="rect7026" x="32.36" y="86.91" width="2.6" height="0.2" transform="translate(-58.45 101.85) rotate(-78)"/><rect id="rect7028" x="35.74" y="87.45" width="2.6" height="0.2" transform="translate(-53.9 115.24) rotate(-84)"/><rect id="rect7030" x="43.8" y="86.2" width="0.2" height="2.6" transform="translate(-8.9 5.07) rotate(-6)"/><rect id="rect7032" x="47.18" y="85.61" width="0.2" height="2.6" transform="translate(-17.04 11.73) rotate(-12)"/><rect id="rect7034" x="50.61" y="84.8" width="0.2" height="2.6" transform="translate(-24.12 19.88) rotate(-18)"/><rect id="rect7036" x="53.78" y="83.51" width="0.2" height="2.6" transform="translate(-29.84 29.25) rotate(-24)"/><rect id="rect7038" x="59.81" y="80.09" width="0.2" height="2.6" transform="translate(-36.4 50.76) rotate(-36)"/><rect id="rect7040" x="62.48" y="77.88" width="0.2" height="2.6" transform="translate(-36.91 62.21) rotate(-42)"/><rect id="rect7042" x="64.92" y="75.5" width="0.2" height="2.6" transform="translate(-35.56 73.73) rotate(-48)"/><rect id="rect7044" x="67.1" y="72.78" width="0.2" height="2.6" transform="translate(-32.23 84.91) rotate(-54)"/><rect id="rect7046" x="70.5" y="66.84" width="0.2" height="2.6" transform="translate(-20.36 104.92) rotate(-66)"/><rect id="rect7048" x="71.79" y="63.56" width="0.2" height="2.6" transform="translate(-12.01 113.19) rotate(-72)"/><rect id="rect7050" x="72.61" y="60.21" width="0.2" height="2.6" transform="matrix(0.21, -0.98, 0.98, 0.21, -2.58, 119.84)"/><rect id="rect7052" x="73.15" y="56.84" width="0.2" height="2.6" transform="translate(7.77 124.91) rotate(-84)"/><rect id="rect7054" x="71.99" y="51.1" width="2.6" height="0.2" transform="translate(-4.95 7.94) rotate(-6)"/><rect id="rect7056" x="71.4" y="47.72" width="2.6" height="0.2" transform="translate(-8.35 16.16) rotate(-12)"/><rect id="rect7058" x="70.6" y="44.39" width="2.6" height="0.2" transform="translate(-10.23 24.39) rotate(-18)"/><rect id="rect7060" x="69.31" y="41.21" width="2.6" height="0.2" transform="translate(-10.7 32.29) rotate(-24)"/><rect id="rect7062" x="65.89" y="35.19" width="2.6" height="0.2" transform="translate(-7.91 46.23) rotate(-36)"/><rect id="rect7064" x="63.68" y="32.52" width="2.6" height="0.2" transform="translate(-5.13 51.86) rotate(-42)"/><rect id="rect7066" x="61.3" y="30.08" width="2.6" height="0.2" transform="translate(-1.71 56.5) rotate(-48)"/><rect id="rect7068" x="58.58" y="27.9" width="2.6" height="0.2" transform="translate(2.03 59.99) rotate(-54)"/><rect id="rect7070" x="52.64" y="24.5" width="2.6" height="0.2" transform="translate(9.53 63.87) rotate(-66)"/><rect id="rect7072" x="49.37" y="23.21" width="2.6" height="0.2" transform="translate(12.84 64.3) rotate(-72)"/><rect id="rect7074" x="46.01" y="22.39" width="2.6" height="0.2" transform="translate(15.48 64.09) rotate(-78)"/><rect id="rect7076" x="42.64" y="21.85" width="2.6" height="0.2" transform="translate(17.53 63.35) rotate(-84)"/>
<path id="path7487" d="M39,34.4h0L38.6,33h.1Z"/><path id="path7487-2" data-name="path7487" d="M42,49h0l.4,1.4h-.1Z"/><path id="path7487-3" data-name="path7487" d="M37.5,34.8h0l-.7-1.3h.1Z"/><path id="path7487-4" data-name="path7487" d="M43.5,48.6h0l.7,1.3h-.1Z"/><path id="path7487-5" data-name="path7487" d="M36.1,35.6h0l-1-1.2.1-.1Z"/><path id="path7487-6" data-name="path7487" d="M44.9,47.8h0l1,1.2-.1.1Z"/><path id="path7487-7" data-name="path7487" d="M35,36.6h0l-1.2-.9.1-.1Z"/><path id="path7487-8" data-name="path7487" d="M46,46.8h0l1.2.9-.1.1Z"/><path id="path7487-9" data-name="path7487" d="M42.3,32.9h0l-.2,1.5H42Z"/><path id="path7487-10" data-name="path7487" d="M38.7,50.5h0l.2-1.5H39Z"/><path id="path7487-11" data-name="path7487" d="M44.1,33.5h0l-.5,1.4h-.1Z"/><path id="path7487-12" data-name="path7487" d="M36.9,49.9h0l.5-1.4h.1Z"/><path id="path7487-13" data-name="path7487" d="M45.7,34.4h0l-.8,1.3-.1-.1Z"/><path id="path7487-14" data-name="path7487" d="M35.3,49h0l.8-1.3.1.1Z"/><path id="path7487-15" data-name="path7487" d="M47.2,35.6h0l-1,1.1-.1-.1Z"/><path id="path7487-16" data-name="path7487" d="M33.8,47.8h0l1-1.1.1.1Z"/><path id="path7487-17" data-name="path7487" d="M49,38.9h0l-1.4.6v-.1Z"/><path id="path7487-18" data-name="path7487" d="M32,44.5h0l1.4-.6V44Z"/><path id="path7487-19" data-name="path7487" d="M49.4,40.7h0l-1.5.3v-.1Z"/><path id="path7487-20" data-name="path7487" d="M31.6,42.7h0l1.5-.3v.1Z"/><path id="path7487-21" data-name="path7487" d="M49.5,42.6h0L48,42.5v-.1Z"/><path id="path7487-22" data-name="path7487" d="M31.5,40.8h0l1.5.1V41Z"/><path id="path7487-23" data-name="path7487" d="M49.1,44.4h0L47.6,44v-.1Z"/><path id="path7487-24" data-name="path7487" d="M31.9,39h0l1.5.4v.1Z"/><path id="path7487-25" data-name="path7487" d="M34.5,38.1l-.1.2-1.7-1,.1-.2Z"/><path id="path7487-26" data-name="path7487" d="M46.5,45.3l.1-.2,1.7,1-.1.2Z"/><path id="path7487-27" data-name="path7487" d="M40.6,34.7h-.3v-2h.3Z"/><path id="path7487-28" data-name="path7487" d="M40.4,48.7h.3v2h-.3Z"/><path id="path7487-29" data-name="path7487" d="M34.4,45.1l.1.2-1.7,1-.1-.2Z"/><path id="path7487-30" data-name="path7487" d="M46.6,38.3l-.1-.2,1.7-1,.1.2Z"/><text class="st-13" transform="translate(43.43 44.93)">10</text><text class="st-13" transform="translate(34.53 44.93)">20</text><text class="st-13" transform="translate(38.83 37.73)">30</text>
<text class="st-14" transform="translate(37.72 30.18)">60</text><text class="st-14" transform="translate(15.5 44.14)">50</text><text class="st-14" transform="translate(15.5 69.14)">40</text><text class="st-14" transform="translate(37.72 83.14)">30</text><text class="st-14" transform="translate(59.94 69.56)">20</text><text class="st-14" transform="translate(59.94 44.14)">10</text><line class="st-15" x1="40.5" y1="33.8" x2="40.5" y2="43.7"/><circle class="st-16" cx="40.5" cy="41.7" r="1"/>
<line id="arm" class="st-17" x1="40.5" y1="23.8" x2="40.5" y2="59.8"/><circle id="center" class="st-16" cx="40.5" cy="54.7" r="2"/><path id="center-dot" d="M41.5,54.7a1,1,0,1,1-1-1A.94.94,0,0,1,41.5,54.7Z"/>
</svg>
