<svg xmlns="http://www.w3.org/2000/svg" viewBox="0 0 1920 1080">
<defs><style>
.bg{fill:hsl(0,0%,0%);}
.box{fill:hsl(200,100%,35%);}
</style></defs>
<rect class="bg" width="1920" height="1080"/>
<path class="box" d="M910,485h90c2.8,0,5,2.2,5,5v90c0,2.8-2.2,5-5,5h-90c-2.8,0-5-2.2-5-5v-90C905,487.2,907.2,485,910,485z"/>
<path d="M944.9,531.9c-10.2,4-17.4,14-17.4,25.6c0,15.2,12.3,27.5,27.5,27.5v-10v-35h20v20h10v-20h20v-10h-20v-20h-10
	v20h-20v-45h-10v32.9L912.1,485H910c-2.8,0-5,2.2-5,5v2.1L944.9,531.9z M945,571.9c-4.5-3.2-7.5-8.4-7.5-14.4s3-11.2,7.5-14.4V571.9
	z"/>
</svg>
