<svg xmlns="http://www.w3.org/2000/svg" width="230px" height="230px" viewBox="0 0 230 230">
<style type="text/css">
.cls-11,.cls-12,.cls-13 { font-family: Arial; }
.cls-11,.cls-12 { font-size:12px; }
.cls-13 { font-size: 9px; }
.cls-3,.cls-4,.cls-15,.cls-16,.cls-17,.cls-18 { fill: none; }
.cls-1 { fill: hsl(0,0%,90%); }
.cls-12 { fill: #ff0000; }
.cls-17 { fill: hsl(200,3%,20%); }
.cls-18 { fill: hsl(200,3%,10%); }
.cls-3,.cls-4,.cls-5 { stroke: #ff0000; }
.cls-7,.cls-6,.cls-8,.cls-9,.cls-14,.cls-15,.cls-16,.cls-17,.cls-18,.cls-20 { stroke: #000000; }
.cls-14 { opacity: 0.3; }
.cls-16 { fill: none; stroke-width: 5px; filter:url(#vushadow); }
.cls-3 { stroke-width: 4px; }
.cls-8 { stroke-width: 3px; }
.cls-9 { stroke-width: 2px; }
.cls-5,.cls-6 { stroke-width: 1.3px; }
.cls-14,.cls-15 { stroke-width: 1px; }
.cls-7,.cls-4 { stroke-width: 0.5px; }
.cls-17,.cls-18,.cls-20 { stroke-width: 0.2px; }
.cls-8,.cls-9 { stroke-linecap: round; }
.cls-19 { fill:hsl(200,3%,60%) }
#vuneedle {
	transform-origin: 115px 220px;
	transition-duration: 300ms;
}
</style>
<filter id="vushadow"><feDropShadow dx="-3" dy="3" stdDeviation="4"/></filter>
<rect class="cls-1" width="230" height="125"/>

<path class="cls-3" d="M147.19,53.55a168.5,168.5,0,0,1,50.93,18.7"/>

<line class="cls-6" x1="32.97" y1="73.93" x2="28.32" y2="65.64"/>
<line class="cls-6" x1="58.68" y1="62.2" x2="55.49" y2="53.25"/>
<line class="cls-6" x1="74.94" y1="57.32" x2="72.67" y2="48.09"/>
<line class="cls-7" x1="81.98" y1="55.75" x2="80.6" y2="48.89"/>
<line class="cls-6" x1="89.81" y1="54.38" x2="88.38" y2="44.99"/>
<line class="cls-7" x1="98.71" y1="53.19" x2="98.04" y2="46.31"/>
<line class="cls-6" x1="108.81" y1="52.66" x2="108.46" y2="43.12"/>
<line class="cls-6" x1="120.11" y1="52.58" x2="120.4" y2="43.08"/>
<line class="cls-6" x1="132.7" y1="53.42" x2="133.71" y2="43.98"/>
<line class="cls-7" x1="139.63" y1="54.3" x2="140.66" y2="47.37"/>
<line class="cls-6" x1="146.81" y1="55.52" x2="148.62" y2="46.19"/>
<line class="cls-4" x1="154.41" y1="57.16" x2="156.09" y2="50.37"/>
<line class="cls-5" x1="162.44" y1="59.31" x2="165.13" y2="50.2"/>
<line class="cls-5" x1="179.48" y1="65.36" x2="183" y2="56.53"/>
<line class="cls-5" x1="197.04" y1="73.93" x2="201.7" y2="65.65"/>

<path class="cls-8" d="M31,81h0"/>
<path class="cls-9" d="M38,77h0"/>
<path class="cls-8" d="M46,72h0"/>
<path class="cls-9" d="M58,67h0"/>
<path class="cls-8" d="M70,63h0"/>
<path class="cls-9" d="M83,60h0"/>
<path class="cls-8" d="M95,58h0"/>
<path class="cls-9" d="M108,57h0"/>
<path class="cls-8" d="M121,57h0"/>
<path class="cls-9" d="M133,58h0"/>
<path class="cls-8" d="M146,60h0"/>

<text class="cls-11" transform="translate(21 65) rotate(-29)">20</text>
<text class="cls-11" transform="translate(46 52) rotate(-20)">10</text>
<text class="cls-11" transform="translate(68 45) rotate(-17)">7</text>
<text class="cls-11" transform="translate(84 41) rotate(-9)">5</text>
<text class="cls-11" transform="translate(105 39) rotate(-1)">3</text>
<text class="cls-11" transform="translate(117 39) rotate(2)">2</text>
<text class="cls-11" transform="translate(131 40) rotate(6)">1</text>
<text class="cls-11" transform="translate(146 42) rotate(11)">0</text>
<text class="cls-12" transform="translate(163 45) rotate(16)">1</text>
<text class="cls-12" transform="translate(182 52) rotate(23)">2</text>
<text class="cls-12" transform="translate(201 61) rotate(30)">3</text>

<text class="cls-13" transform="translate(34 91) rotate(-27)">0</text>
<text class="cls-13" transform="translate(46 84) rotate(-25)">20</text>
<text class="cls-13" transform="translate(68 74) rotate(-18)">40</text>
<text class="cls-13" transform="translate(92 69) rotate(-7)">60</text>
<text class="cls-13" transform="translate(115 67) rotate(2)">80</text>
<text class="cls-13" transform="translate(136 69) rotate(11)">100</text>

<path class="cls-19" d="M108.3,85.9h13.5c0.4,0,0.8,0.3,0.8,0.8v13.5c0,0.4-0.3,0.8-0.8,0.8h-13.5c-0.4,0-0.8-0.3-0.8-0.8V86.7C107.5,86.3,107.8,85.9,108.3,85.9z"/>
<path class="cls-1" d="M116.5,93.9c2.1-0.8,3.1-3.2,2.3-5.4c-0.6-1.6-2.1-2.6-3.8-2.6v6.8h-3v-3h-1.5v3h-3v1.5h3v3h1.5v-3h3v6.8h1.5V96l4.9,4.9h0.3c0.4,0,0.8-0.3,0.8-0.8v-0.3L116.5,93.9z M116.5,87.9c1.2,0.8,1.5,2.5,0.7,3.7c-0.2,0.3-0.4,0.5-0.7,0.7V87.9z"/>

<g id="vuneedle">
<line class="cls-14" x1="114.3" y1="221" x2="22.3" y2="69"/>
<line class="cls-15" x1="115" y1="220" x2="23" y2="68"/>
</g>

<rect x="10" y="10" class="cls-16" width="210" height="105"/>
<polygon class="cls-17" points="220.06 115.02 10 115.02 10 9.99 14.03 14 14.03 111 216.03 111 220.06 115.02"/>
<polygon class="cls-18" points="220.06 115.02 216.03 111 216.03 14 14.03 14 10 9.99 220.06 9.99 220.06 115.02"/>

<line class="cls-20" x1="216" y1="14" x2="220" y2="10"/><line class="cls-20" x1="10" y1="115" x2="14" y2="111"/>

<path d="M0,0V230H230V0ZM220,115H10V10H220Z"/>
</svg>
